<svg width="65" height="28" viewBox="0 0 65 28" fill="none" xmlns="http://www.w3.org/2000/svg">
<rect width="28" height="28" rx="5" fill="#333333"/>
<path d="M14.002 23.6602L7.8418 15.2832L13.959 18.8223C13.9744 18.8204 13.99 18.8184 14.0059 18.8184C14.019 18.8184 14.0321 18.821 14.0449 18.8223L20.1621 15.2832L14.002 23.6602ZM13.6211 21.8418V19.5166L10.6445 17.7949L13.6211 21.8418ZM14.3916 19.5117V21.8301L17.3594 17.7949L14.3916 19.5117ZM14.2783 4.8584C14.3163 4.89636 14.3447 4.94304 14.3643 4.99414L20.1621 14.2207L14.002 17.7861L7.8418 14.2207L8.01172 13.9492C8.03118 13.8683 8.07587 13.7943 8.14258 13.7402L13.6719 4.94141C13.6795 4.92801 13.6872 4.91468 13.6963 4.90234L14.002 4.41797L14.2783 4.8584ZM9.16113 14.0957L13.6211 16.6758V11.9727L9.16113 14.0957ZM14.3906 16.6709L18.7676 14.1377L14.3906 11.9854V16.6709ZM14.3906 11.127L18.6133 13.2041L14.3906 6.4834V11.127ZM9.45312 13.1035L13.6211 11.1191V6.4707L9.45312 13.1035Z" fill="white"/>
<path d="M34.6392 10V4.18182H35.4886V6.34375H35.5398C35.589 6.25284 35.66 6.14773 35.7528 6.02841C35.8456 5.90909 35.9744 5.80492 36.1392 5.71591C36.304 5.625 36.5218 5.57955 36.7926 5.57955C37.1449 5.57955 37.4593 5.66856 37.7358 5.84659C38.0123 6.02462 38.2292 6.28125 38.3864 6.61648C38.5455 6.9517 38.625 7.35511 38.625 7.8267C38.625 8.2983 38.5464 8.70265 38.3892 9.03977C38.232 9.375 38.0161 9.63352 37.7415 9.81534C37.4669 9.99527 37.1534 10.0852 36.8011 10.0852C36.536 10.0852 36.3191 10.0407 36.1506 9.9517C35.9839 9.86269 35.8532 9.75852 35.7585 9.6392C35.6638 9.51989 35.5909 9.41383 35.5398 9.32102H35.4688V10H34.6392ZM35.4716 7.81818C35.4716 8.125 35.5161 8.39394 35.6051 8.625C35.6941 8.85606 35.8229 9.03693 35.9915 9.16761C36.16 9.2964 36.3665 9.3608 36.6108 9.3608C36.8646 9.3608 37.0767 9.29356 37.2472 9.15909C37.4176 9.02273 37.5464 8.83807 37.6335 8.60511C37.7225 8.37216 37.767 8.10985 37.767 7.81818C37.767 7.5303 37.7235 7.27178 37.6364 7.04261C37.5511 6.81345 37.4223 6.63258 37.25 6.5C37.0795 6.36742 36.8665 6.30114 36.6108 6.30114C36.3646 6.30114 36.1562 6.36458 35.9858 6.49148C35.8172 6.61837 35.6894 6.79545 35.6023 7.02273C35.5152 7.25 35.4716 7.51515 35.4716 7.81818ZM39.9673 11.6364C39.8404 11.6364 39.7249 11.6259 39.6207 11.6051C39.5166 11.5862 39.4389 11.5653 39.3878 11.5426L39.5923 10.8466C39.7476 10.8883 39.8859 10.9063 40.0071 10.9006C40.1283 10.8949 40.2353 10.8494 40.3281 10.7642C40.4228 10.679 40.5062 10.5398 40.5781 10.3466L40.6832 10.0568L39.0866 5.63636H39.9957L41.1009 9.02273H41.1463L42.2514 5.63636H43.1634L41.3651 10.5824C41.2817 10.8097 41.1757 11.0019 41.0469 11.1591C40.9181 11.3182 40.7647 11.4375 40.5866 11.517C40.4086 11.5966 40.2022 11.6364 39.9673 11.6364ZM34.9588 24V15.2727H40.4304V16.4062H36.2756V19.0653H40.1449V20.1946H36.2756V22.8665H40.4815V24H34.9588ZM45.1424 17.4545V18.4773H41.5671V17.4545H45.1424ZM42.5259 15.8864H43.8001V22.0781C43.8001 22.3253 43.837 22.5114 43.9109 22.6364C43.9847 22.7585 44.0799 22.8423 44.1964 22.8878C44.3157 22.9304 44.445 22.9517 44.5842 22.9517C44.6864 22.9517 44.7759 22.9446 44.8526 22.9304C44.9293 22.9162 44.989 22.9048 45.0316 22.8963L45.2617 23.9489C45.1879 23.9773 45.0827 24.0057 44.9464 24.0341C44.81 24.0653 44.6396 24.0824 44.435 24.0852C44.0998 24.0909 43.7873 24.0312 43.4975 23.9062C43.2077 23.7812 42.9734 23.5881 42.7944 23.3267C42.6154 23.0653 42.5259 22.7372 42.5259 22.3423V15.8864ZM47.9666 20.1136V24H46.6925V15.2727H47.9496V18.5199H48.0305C48.1839 18.1676 48.4183 17.8878 48.7337 17.6804C49.049 17.473 49.4609 17.3693 49.9695 17.3693C50.4183 17.3693 50.8104 17.4616 51.1456 17.6463C51.4837 17.831 51.745 18.1065 51.9297 18.473C52.1172 18.8366 52.2109 19.2912 52.2109 19.8366V24H50.9368V19.9901C50.9368 19.5099 50.8132 19.1378 50.5661 18.8736C50.3189 18.6065 49.9751 18.473 49.5348 18.473C49.2337 18.473 48.9638 18.5369 48.7251 18.6648C48.4893 18.7926 48.3033 18.9801 48.1669 19.2273C48.0334 19.4716 47.9666 19.767 47.9666 20.1136ZM55.3303 15.2727V24H54.0135V15.2727H55.3303ZM60.0732 24H57.2479V15.2727H60.1626C61.0178 15.2727 61.7521 15.4474 62.3658 15.7969C62.9794 16.1435 63.4496 16.642 63.7763 17.2926C64.1058 17.9403 64.2706 18.7173 64.2706 19.6236C64.2706 20.5327 64.1044 21.3139 63.772 21.9673C63.4425 22.6207 62.9652 23.1236 62.3402 23.4759C61.7152 23.8253 60.9595 24 60.0732 24ZM58.5646 22.8494H60.0007C60.6655 22.8494 61.218 22.7244 61.6584 22.4744C62.0987 22.2216 62.4283 21.8565 62.647 21.3793C62.8658 20.8991 62.9751 20.3139 62.9751 19.6236C62.9751 18.9389 62.8658 18.358 62.647 17.8807C62.4311 17.4034 62.1087 17.0412 61.6797 16.794C61.2507 16.5469 60.718 16.4233 60.0817 16.4233H58.5646V22.8494Z" fill="#AAAAAA"/>
</svg>
