<svg width="129" height="59" viewBox="0 0 129 59" fill="none" xmlns="http://www.w3.org/2000/svg">
<g clip-path="url(#clip0_1891_9523)">
<path d="M73.0043 15.719V17.4043H67.4125V15.719H73.0043ZM68.1196 6.91796V17.4043H65.9551V6.91796H68.1196ZM72.2755 11.1888V12.8309H67.4125V11.1888H72.2755ZM72.997 6.91796V8.61048H67.4125V6.91796H72.997ZM77.9611 9.61158V11.0808H73.4155V9.61158H77.9611ZM74.541 7.68861H76.6191V15.0564C76.6191 15.2821 76.6479 15.4549 76.7057 15.575C76.7682 15.6949 76.8595 15.779 76.9798 15.8271C77.1 15.8703 77.2515 15.8918 77.4343 15.8918C77.5642 15.8918 77.6796 15.8871 77.7807 15.8774C77.8865 15.8631 77.9754 15.8486 78.0477 15.8342L78.0548 17.3611C77.8769 17.4188 77.6845 17.4643 77.4776 17.498C77.2707 17.5316 77.0423 17.5484 76.7922 17.5484C76.3352 17.5484 75.9359 17.4739 75.5945 17.3251C75.2577 17.1714 74.9981 16.9265 74.8153 16.5904C74.6325 16.2544 74.541 15.8126 74.541 15.2653V7.68861ZM81.1717 6.3418V17.4043H79.0939V6.3418H81.1717ZM80.8759 13.2343H80.306C80.3107 12.6917 80.383 12.1923 80.5225 11.7362C80.662 11.2753 80.8616 10.8767 81.1212 10.5407C81.381 10.1997 81.6913 9.93566 82.052 9.74841C82.4176 9.56116 82.8217 9.46753 83.2641 9.46753C83.6489 9.46753 83.9978 9.52275 84.3103 9.63319C84.6278 9.73881 84.8996 9.91167 85.1257 10.1517C85.3565 10.387 85.5345 10.6967 85.6596 11.0808C85.7847 11.4649 85.8472 11.9307 85.8472 12.478V17.4043H83.7548V12.4636C83.7548 12.1179 83.7043 11.8466 83.6032 11.6498C83.507 11.4481 83.3652 11.3065 83.1775 11.2249C82.9947 11.1384 82.7686 11.0952 82.4994 11.0952C82.2011 11.0952 81.9462 11.1504 81.7346 11.2609C81.5277 11.3713 81.3618 11.5249 81.2368 11.7218C81.1116 11.9139 81.0203 12.1395 80.9625 12.3988C80.9049 12.6581 80.8759 12.9366 80.8759 13.2343ZM91.0205 17.5484C90.4144 17.5484 89.8709 17.4524 89.3898 17.2602C88.9088 17.0634 88.4999 16.7922 88.1633 16.4464C87.8314 16.1007 87.5764 15.6998 87.3985 15.2437C87.2204 14.7828 87.1315 14.293 87.1315 13.7744V13.4863C87.1315 12.8958 87.2157 12.3556 87.384 11.8659C87.5524 11.3761 87.7929 10.9512 88.1055 10.5911C88.4229 10.231 88.8079 9.95487 89.2599 9.76282C89.712 9.56596 90.222 9.46753 90.7895 9.46753C91.3428 9.46753 91.8334 9.55876 92.2614 9.74121C92.6895 9.92367 93.0479 10.1829 93.3365 10.519C93.6299 10.8551 93.8511 11.2585 94.0004 11.729C94.1495 12.1947 94.2239 12.7133 94.2239 13.2847V14.1489H88.0189V12.7661H92.1821V12.6077C92.1821 12.3196 92.1292 12.0627 92.0234 11.837C91.9223 11.6066 91.7683 11.4241 91.5616 11.2897C91.3548 11.1552 91.0903 11.088 90.768 11.088C90.4937 11.088 90.258 11.148 90.0608 11.2681C89.8636 11.3881 89.7024 11.5562 89.5774 11.7722C89.4571 11.9883 89.3658 12.2428 89.3032 12.5356C89.2455 12.8237 89.2167 13.1406 89.2167 13.4863V13.7744C89.2167 14.0865 89.2599 14.3746 89.3465 14.6387C89.4379 14.9027 89.5655 15.1309 89.7289 15.3229C89.8973 15.515 90.0993 15.6638 90.335 15.7694C90.5754 15.875 90.8473 15.9278 91.1502 15.9278C91.5256 15.9278 91.8743 15.8558 92.1966 15.7117C92.5236 15.5629 92.8049 15.3397 93.0406 15.0419L94.0507 16.1367C93.8873 16.3719 93.6636 16.5976 93.3797 16.8137C93.1008 17.0298 92.7641 17.2074 92.3696 17.3466C91.9752 17.4811 91.5256 17.5484 91.0205 17.5484ZM97.4853 11.3113V17.4043H95.4072V9.61158H97.3625L97.4853 11.3113ZM99.8374 9.56116L99.8012 11.4841C99.7003 11.4697 99.5776 11.4577 99.4333 11.4481C99.2938 11.4337 99.1664 11.4265 99.0509 11.4265C98.7575 11.4265 98.5025 11.4649 98.286 11.5417C98.0744 11.6138 97.8965 11.7218 97.7521 11.8659C97.6127 12.0099 97.5069 12.1851 97.4347 12.3916C97.3674 12.5981 97.3289 12.8333 97.3193 13.0974L96.9007 12.9678C96.9007 12.4636 96.9513 12.0003 97.0523 11.5778C97.1532 11.1504 97.3 10.7783 97.4924 10.4614C97.6896 10.1445 97.9302 9.89966 98.2139 9.7268C98.4978 9.55395 98.8224 9.46753 99.188 9.46753C99.3034 9.46753 99.4213 9.47713 99.5416 9.49634C99.6617 9.51075 99.7604 9.53236 99.8374 9.56116ZM104.267 17.5484C103.661 17.5484 103.118 17.4524 102.637 17.2602C102.156 17.0634 101.747 16.7922 101.41 16.4464C101.078 16.1007 100.823 15.6998 100.645 15.2437C100.467 14.7828 100.379 14.293 100.379 13.7744V13.4863C100.379 12.8958 100.463 12.3556 100.631 11.8659C100.799 11.3761 101.04 10.9512 101.352 10.5911C101.67 10.231 102.055 9.95487 102.507 9.76282C102.959 9.56596 103.469 9.46753 104.036 9.46753C104.59 9.46753 105.08 9.55876 105.508 9.74121C105.937 9.92367 106.295 10.1829 106.584 10.519C106.877 10.8551 107.098 11.2585 107.247 11.729C107.396 12.1947 107.471 12.7133 107.471 13.2847V14.1489H101.266V12.7661H105.429V12.6077C105.429 12.3196 105.376 12.0627 105.27 11.837C105.169 11.6066 105.015 11.4241 104.809 11.2897C104.602 11.1552 104.337 11.088 104.015 11.088C103.741 11.088 103.505 11.148 103.308 11.2681C103.111 11.3881 102.95 11.5562 102.824 11.7722C102.704 11.9883 102.613 12.2428 102.55 12.5356C102.492 12.8237 102.464 13.1406 102.464 13.4863V13.7744C102.464 14.0865 102.507 14.3746 102.594 14.6387C102.685 14.9027 102.812 15.1309 102.976 15.3229C103.144 15.515 103.346 15.6638 103.582 15.7694C103.823 15.875 104.094 15.9278 104.397 15.9278C104.773 15.9278 105.121 15.8558 105.444 15.7117C105.771 15.5629 106.052 15.3397 106.288 15.0419L107.298 16.1367C107.134 16.3719 106.911 16.5976 106.627 16.8137C106.348 17.0298 106.011 17.2074 105.617 17.3466C105.222 17.4811 104.773 17.5484 104.267 17.5484ZM113.272 15.539V9.61158H115.35V17.4043H113.395L113.272 15.539ZM113.503 13.9401L114.116 13.9257C114.116 14.4442 114.056 14.9267 113.936 15.3732C113.816 15.815 113.635 16.1991 113.395 16.5256C113.154 16.8473 112.851 17.0994 112.485 17.2819C112.12 17.4595 111.689 17.5484 111.194 17.5484C110.814 17.5484 110.463 17.4955 110.141 17.3898C109.823 17.2795 109.549 17.109 109.318 16.8786C109.092 16.6432 108.914 16.3432 108.784 15.9783C108.659 15.6086 108.597 15.1644 108.597 14.6459V9.61158H110.674V14.6603C110.674 14.8908 110.701 15.0852 110.754 15.2437C110.812 15.4021 110.891 15.5318 110.992 15.6325C111.093 15.7334 111.211 15.8054 111.345 15.8486C111.485 15.8918 111.639 15.9135 111.807 15.9135C112.235 15.9135 112.572 15.8271 112.817 15.6542C113.068 15.4813 113.243 15.2461 113.344 14.9484C113.45 14.6459 113.503 14.3098 113.503 13.9401ZM119.015 11.2249V17.4043H116.93V9.61158H118.885L119.015 11.2249ZM118.727 13.2343H118.149C118.149 12.6917 118.214 12.1923 118.344 11.7362C118.479 11.2753 118.674 10.8767 118.929 10.5407C119.188 10.1997 119.508 9.93566 119.888 9.74841C120.268 9.56116 120.708 9.46753 121.209 9.46753C121.555 9.46753 121.872 9.52035 122.161 9.62597C122.45 9.7268 122.697 9.88765 122.904 10.1085C123.116 10.3246 123.279 10.6079 123.395 10.9584C123.51 11.3041 123.568 11.7194 123.568 12.2043V17.4043H121.49V12.4348C121.49 12.0795 121.442 11.8058 121.346 11.6138C121.249 11.4217 121.112 11.2873 120.934 11.2104C120.761 11.1336 120.552 11.0952 120.307 11.0952C120.037 11.0952 119.802 11.1504 119.6 11.2609C119.402 11.3713 119.239 11.5249 119.109 11.7218C118.979 11.9139 118.883 12.1395 118.82 12.3988C118.758 12.6581 118.727 12.9366 118.727 13.2343ZM123.373 12.9966L122.63 13.0902C122.63 12.5813 122.693 12.1083 122.818 11.6714C122.947 11.2345 123.137 10.8503 123.388 10.519C123.643 10.1877 123.958 9.93087 124.333 9.74841C124.708 9.56116 125.141 9.46753 125.631 9.46753C126.007 9.46753 126.348 9.52275 126.656 9.63319C126.964 9.73881 127.226 9.90926 127.443 10.1445C127.664 10.375 127.832 10.6775 127.948 11.052C128.068 11.4265 128.128 11.8851 128.128 12.4276V17.4043H126.043V12.4276C126.043 12.0675 125.995 11.7938 125.898 11.6066C125.807 11.4145 125.672 11.2825 125.494 11.2104C125.321 11.1336 125.114 11.0952 124.874 11.0952C124.624 11.0952 124.405 11.1456 124.217 11.2465C124.03 11.3425 123.873 11.4769 123.748 11.6498C123.623 11.8226 123.53 12.0243 123.467 12.2548C123.404 12.4804 123.373 12.7277 123.373 12.9966ZM68.1196 24.1754V34.6618H65.9551V24.1754H68.1196ZM72.3043 28.6552V30.3405H67.5279V28.6552H72.3043ZM72.8094 24.1754V25.868H67.5279V24.1754H72.8094ZM73.4443 30.8446V30.6935C73.4443 30.122 73.5262 29.5964 73.6896 29.1161C73.8532 28.6313 74.0914 28.211 74.4039 27.8557C74.7166 27.5005 75.1014 27.2244 75.5584 27.0275C76.0153 26.8259 76.5397 26.725 77.1312 26.725C77.7229 26.725 78.2497 26.8259 78.7114 27.0275C79.1732 27.2244 79.5604 27.5005 79.873 27.8557C80.1906 28.211 80.431 28.6313 80.5946 29.1161C80.7581 29.5964 80.8399 30.122 80.8399 30.6935V30.8446C80.8399 31.4112 80.7581 31.937 80.5946 32.4219C80.431 32.9021 80.1906 33.3222 79.873 33.6823C79.5604 34.0376 79.1756 34.3137 78.7187 34.5106C78.2616 34.7074 77.7374 34.8059 77.1457 34.8059C76.5541 34.8059 76.0274 34.7074 75.5656 34.5106C75.1086 34.3137 74.7215 34.0376 74.4039 33.6823C74.0914 33.3222 73.8532 32.9021 73.6896 32.4219C73.5262 31.937 73.4443 31.4112 73.4443 30.8446ZM75.5223 30.6935V30.8446C75.5223 31.1712 75.5512 31.4761 75.6089 31.7593C75.6666 32.0426 75.758 32.2924 75.883 32.5083C76.0129 32.7197 76.1812 32.8853 76.3881 33.0054C76.595 33.1253 76.8475 33.1853 77.1457 33.1853C77.4343 33.1853 77.6821 33.1253 77.8888 33.0054C78.0957 32.8853 78.2616 32.7197 78.3868 32.5083C78.5118 32.2924 78.6031 32.0426 78.6609 31.7593C78.7234 31.4761 78.7547 31.1712 78.7547 30.8446V30.6935C78.7547 30.3765 78.7234 30.0788 78.6609 29.8003C78.6031 29.517 78.5094 29.2674 78.3796 29.0513C78.2544 28.8304 78.0885 28.6577 77.8817 28.5327C77.6749 28.4079 77.4247 28.3456 77.1312 28.3456C76.8379 28.3456 76.5877 28.4079 76.3809 28.5327C76.1789 28.6577 76.0129 28.8304 75.883 29.0513C75.758 29.2674 75.6666 29.517 75.6089 29.8003C75.5512 30.0788 75.5223 30.3765 75.5223 30.6935ZM84.3103 23.5993V34.6618H82.2252V23.5993H84.3103ZM88.2209 23.5993V34.6618H86.1358V23.5993H88.2209ZM89.6062 30.8446V30.6935C89.6062 30.122 89.6881 29.5964 89.8515 29.1161C90.0151 28.6313 90.2533 28.211 90.5658 27.8557C90.8785 27.5005 91.2633 27.2244 91.7203 27.0275C92.1772 26.8259 92.7016 26.725 93.2932 26.725C93.8848 26.725 94.4116 26.8259 94.8734 27.0275C95.3351 27.2244 95.7223 27.5005 96.035 27.8557C96.3525 28.211 96.5929 28.6313 96.7565 29.1161C96.9201 29.5964 97.0018 30.122 97.0018 30.6935V30.8446C97.0018 31.4112 96.9201 31.937 96.7565 32.4219C96.5929 32.9021 96.3525 33.3222 96.035 33.6823C95.7223 34.0376 95.3375 34.3137 94.8806 34.5106C94.4236 34.7074 93.8993 34.8059 93.3076 34.8059C92.716 34.8059 92.1893 34.7074 91.7276 34.5106C91.2705 34.3137 90.8834 34.0376 90.5658 33.6823C90.2533 33.3222 90.0151 32.9021 89.8515 32.4219C89.6881 31.937 89.6062 31.4112 89.6062 30.8446ZM91.6843 30.6935V30.8446C91.6843 31.1712 91.7131 31.4761 91.7709 31.7593C91.8285 32.0426 91.92 32.2924 92.045 32.5083C92.1749 32.7197 92.3432 32.8853 92.55 33.0054C92.7569 33.1253 93.0094 33.1853 93.3076 33.1853C93.5962 33.1853 93.844 33.1253 94.0507 33.0054C94.2576 32.8853 94.4236 32.7197 94.5487 32.5083C94.6737 32.2924 94.765 32.0426 94.8228 31.7593C94.8853 31.4761 94.9167 31.1712 94.9167 30.8446V30.6935C94.9167 30.3765 94.8853 30.0788 94.8228 29.8003C94.765 29.517 94.6714 29.2674 94.5415 29.0513C94.4163 28.8304 94.2504 28.6577 94.0437 28.5327C93.8368 28.4079 93.5866 28.3456 93.2932 28.3456C92.9998 28.3456 92.7497 28.4079 92.5428 28.5327C92.3408 28.6577 92.1749 28.8304 92.045 29.0513C91.92 29.2674 91.8285 29.517 91.7709 29.8003C91.7131 30.0788 91.6843 30.3765 91.6843 30.6935ZM100.508 32.6452L102.132 26.8691H103.452L103.027 29.1378L101.403 34.6618H100.299L100.508 32.6452ZM99.6858 26.8691L100.847 32.638L100.956 34.6618H99.657L97.68 26.8691H99.6858ZM104.938 32.5444L106.071 26.8691H108.084L106.107 34.6618H104.816L104.938 32.5444ZM103.632 26.8691L105.249 32.602L105.472 34.6618H104.361L102.738 29.145L102.327 26.8691H103.632ZM70.046 48.1814H67.3692V46.496H70.046C70.4597 46.496 70.7963 46.4289 71.0561 46.2944C71.3159 46.1551 71.5059 45.9631 71.6262 45.7183C71.7463 45.4734 71.8065 45.1973 71.8065 44.89C71.8065 44.5779 71.7463 44.2874 71.6262 44.0186C71.5059 43.7497 71.3159 43.5336 71.0561 43.3703C70.7963 43.2071 70.4597 43.1255 70.046 43.1255H68.1196V51.9193H65.9551V41.4329H70.046C70.8686 41.4329 71.5731 41.5818 72.1601 41.8796C72.7517 42.1724 73.2039 42.5781 73.5166 43.0967C73.8291 43.6152 73.9854 44.2082 73.9854 44.8756C73.9854 45.5526 73.8291 46.1383 73.5166 46.6329C73.2039 47.1275 72.7517 47.5092 72.1601 47.7781C71.5731 48.047 70.8686 48.1814 70.046 48.1814ZM77.4271 45.8262V51.9193H75.3492V44.1266H77.3044L77.4271 45.8262ZM79.7792 44.0761L79.7431 45.9991C79.6422 45.9848 79.5196 45.9727 79.3752 45.9631C79.2357 45.9486 79.1082 45.9416 78.9928 45.9416C78.6993 45.9416 78.4444 45.9799 78.2279 46.0568C78.0163 46.1287 77.8384 46.2369 77.6941 46.3808C77.5546 46.5249 77.4488 46.7002 77.3767 46.9067C77.3093 47.113 77.2707 47.3483 77.2611 47.6125L76.8426 47.4828C76.8426 46.9786 76.8932 46.5153 76.9942 46.0928C77.0952 45.6654 77.2419 45.2933 77.4343 44.9765C77.6316 44.6595 77.872 44.4147 78.1558 44.2418C78.4397 44.0689 78.7643 43.9825 79.1299 43.9825C79.2453 43.9825 79.3632 43.9922 79.4834 44.0114C79.6037 44.0257 79.7024 44.0474 79.7792 44.0761ZM80.2121 48.1022V47.951C80.2121 47.3795 80.2939 46.8539 80.4574 46.3736C80.621 45.8888 80.8591 45.4685 81.1717 45.1132C81.4844 44.758 81.8692 44.4819 82.3262 44.285C82.7831 44.0834 83.3074 43.9825 83.8991 43.9825C84.4907 43.9825 85.0175 44.0834 85.4793 44.285C85.941 44.4819 86.3282 44.758 86.6409 45.1132C86.9583 45.4685 87.1988 45.8888 87.3624 46.3736C87.5258 46.8539 87.6077 47.3795 87.6077 47.951V48.1022C87.6077 48.6687 87.5258 49.1945 87.3624 49.6794C87.1988 50.1596 86.9583 50.5797 86.6409 50.9398C86.3282 51.2951 85.9434 51.5712 85.4864 51.7681C85.0295 51.9649 84.5052 52.0634 83.9135 52.0634C83.3219 52.0634 82.7951 51.9649 82.3335 51.7681C81.8764 51.5712 81.4893 51.2951 81.1717 50.9398C80.8591 50.5797 80.621 50.1596 80.4574 49.6794C80.2939 49.1945 80.2121 48.6687 80.2121 48.1022ZM82.2902 47.951V48.1022C82.2902 48.4287 82.319 48.7336 82.3766 49.0168C82.4344 49.3001 82.5259 49.5499 82.6509 49.7658C82.7808 49.9772 82.9491 50.1428 83.156 50.2629C83.3628 50.3828 83.6154 50.4428 83.9135 50.4428C84.2021 50.4428 84.4498 50.3828 84.6567 50.2629C84.8635 50.1428 85.0295 49.9772 85.1545 49.7658C85.2796 49.5499 85.371 49.3001 85.4287 49.0168C85.4912 48.7336 85.5226 48.4287 85.5226 48.1022V47.951C85.5226 47.634 85.4912 47.3363 85.4287 47.0578C85.371 46.7745 85.2771 46.5249 85.1472 46.3088C85.0222 46.0879 84.8563 45.9152 84.6494 45.7902C84.4427 45.6654 84.1925 45.6031 83.8991 45.6031C83.6058 45.6031 83.3556 45.6654 83.1487 45.7902C82.9467 45.9152 82.7808 46.0879 82.6509 46.3088C82.5259 46.5249 82.4344 46.7745 82.3766 47.0578C82.319 47.3363 82.2902 47.634 82.2902 47.951ZM92.7087 44.1266V45.5958H88.1633V44.1266H92.7087ZM89.2888 42.2036H91.3667V49.5714C91.3667 49.7971 91.3957 49.9699 91.4533 50.09C91.5158 50.2099 91.6073 50.294 91.7276 50.3421C91.8479 50.3853 91.9993 50.4068 92.1821 50.4068C92.312 50.4068 92.4274 50.4021 92.5285 50.3924C92.6343 50.3781 92.7232 50.3636 92.7953 50.3492L92.8026 51.8761C92.6247 51.9338 92.4323 51.9793 92.2254 52.013C92.0185 52.0466 91.7901 52.0634 91.5399 52.0634C91.083 52.0634 90.6838 51.9889 90.3423 51.8401C90.0055 51.6864 89.7457 51.4416 89.5629 51.1054C89.3802 50.7694 89.2888 50.3276 89.2888 49.7803V42.2036ZM93.3727 48.1022V47.951C93.3727 47.3795 93.4544 46.8539 93.6179 46.3736C93.7814 45.8888 94.0196 45.4685 94.3322 45.1132C94.6449 44.758 95.0297 44.4819 95.4866 44.285C95.9436 44.0834 96.4679 43.9825 97.0596 43.9825C97.6512 43.9825 98.1779 44.0834 98.6396 44.285C99.1014 44.4819 99.4887 44.758 99.8012 45.1132C100.119 45.4685 100.359 45.8888 100.523 46.3736C100.686 46.8539 100.768 47.3795 100.768 47.951V48.1022C100.768 48.6687 100.686 49.1945 100.523 49.6794C100.359 50.1596 100.119 50.5797 99.8012 50.9398C99.4887 51.2951 99.1038 51.5712 98.6469 51.7681C98.1898 51.9649 97.6656 52.0634 97.0739 52.0634C96.4822 52.0634 95.9556 51.9649 95.4938 51.7681C95.0369 51.5712 94.6496 51.2951 94.3322 50.9398C94.0196 50.5797 93.7814 50.1596 93.6179 49.6794C93.4544 49.1945 93.3727 48.6687 93.3727 48.1022ZM95.4505 47.951V48.1022C95.4505 48.4287 95.4794 48.7336 95.5371 49.0168C95.5949 49.3001 95.6862 49.5499 95.8112 49.7658C95.9411 49.9772 96.1096 50.1428 96.3163 50.2629C96.5232 50.3828 96.7757 50.4428 97.0739 50.4428C97.3625 50.4428 97.6103 50.3828 97.8172 50.2629C98.0239 50.1428 98.1898 49.9772 98.315 49.7658C98.44 49.5499 98.5315 49.3001 98.5891 49.0168C98.6516 48.7336 98.6829 48.4287 98.6829 48.1022V47.951C98.6829 47.634 98.6516 47.3363 98.5891 47.0578C98.5315 46.7745 98.4376 46.5249 98.3077 46.3088C98.1827 46.0879 98.0168 45.9152 97.8099 45.7902C97.603 45.6654 97.3529 45.6031 97.0596 45.6031C96.7661 45.6031 96.5159 45.6654 96.3092 45.7902C96.1071 45.9152 95.9411 46.0879 95.8112 46.3088C95.6862 46.5249 95.5949 46.7745 95.5371 47.0578C95.4794 47.3363 95.4505 47.634 95.4505 47.951ZM105.27 50.4428C105.525 50.4428 105.751 50.3949 105.949 50.2989C106.146 50.198 106.3 50.0587 106.41 49.8811C106.526 49.6987 106.586 49.485 106.591 49.2401H108.546C108.541 49.7875 108.395 50.2748 108.106 50.7021C107.817 51.1247 107.43 51.4584 106.944 51.7032C106.458 51.9433 105.915 52.0634 105.314 52.0634C104.708 52.0634 104.178 51.9625 103.726 51.7609C103.279 51.5593 102.906 51.2808 102.608 50.9254C102.31 50.5653 102.086 50.1475 101.937 49.6723C101.788 49.192 101.713 48.6783 101.713 48.1309V47.9221C101.713 47.37 101.788 46.8562 101.937 46.3808C102.086 45.9007 102.31 45.483 102.608 45.1277C102.906 44.7676 103.279 44.4866 103.726 44.285C104.174 44.0834 104.698 43.9825 105.299 43.9825C105.939 43.9825 106.499 44.1049 106.98 44.3499C107.466 44.5947 107.846 44.9452 108.12 45.4014C108.399 45.8526 108.541 46.3881 108.546 47.0074H106.591C106.586 46.7481 106.531 46.5128 106.425 46.3016C106.324 46.0904 106.175 45.9222 105.977 45.7975C105.785 45.6678 105.547 45.6031 105.263 45.6031C104.96 45.6031 104.712 45.6678 104.52 45.7975C104.328 45.9222 104.178 46.0951 104.073 46.3161C103.967 46.5322 103.892 46.7794 103.849 47.0578C103.811 47.3315 103.791 47.6197 103.791 47.9221V48.1309C103.791 48.4334 103.811 48.724 103.849 49.0025C103.887 49.281 103.96 49.5282 104.065 49.7443C104.176 49.9604 104.328 50.1307 104.52 50.2557C104.712 50.3804 104.963 50.4428 105.27 50.4428ZM109.419 48.1022V47.951C109.419 47.3795 109.501 46.8539 109.664 46.3736C109.828 45.8888 110.066 45.4685 110.379 45.1132C110.691 44.758 111.076 44.4819 111.533 44.285C111.99 44.0834 112.514 43.9825 113.106 43.9825C113.698 43.9825 114.224 44.0834 114.686 44.285C115.148 44.4819 115.535 44.758 115.848 45.1132C116.165 45.4685 116.406 45.8888 116.569 46.3736C116.733 46.8539 116.815 47.3795 116.815 47.951V48.1022C116.815 48.6687 116.733 49.1945 116.569 49.6794C116.406 50.1596 116.165 50.5797 115.848 50.9398C115.535 51.2951 115.15 51.5712 114.693 51.7681C114.236 51.9649 113.712 52.0634 113.12 52.0634C112.529 52.0634 112.002 51.9649 111.54 51.7681C111.083 51.5712 110.696 51.2951 110.379 50.9398C110.066 50.5797 109.828 50.1596 109.664 49.6794C109.501 49.1945 109.419 48.6687 109.419 48.1022ZM111.497 47.951V48.1022C111.497 48.4287 111.526 48.7336 111.584 49.0168C111.641 49.3001 111.733 49.5499 111.858 49.7658C111.988 49.9772 112.156 50.1428 112.363 50.2629C112.57 50.3828 112.822 50.4428 113.12 50.4428C113.409 50.4428 113.657 50.3828 113.864 50.2629C114.07 50.1428 114.236 49.9772 114.362 49.7658C114.487 49.5499 114.578 49.3001 114.636 49.0168C114.698 48.7336 114.729 48.4287 114.729 48.1022V47.951C114.729 47.634 114.698 47.3363 114.636 47.0578C114.578 46.7745 114.484 46.5249 114.354 46.3088C114.229 46.0879 114.063 45.9152 113.856 45.7902C113.65 45.6654 113.399 45.6031 113.106 45.6031C112.813 45.6031 112.562 45.6654 112.356 45.7902C112.154 45.9152 111.988 46.0879 111.858 46.3088C111.733 46.5249 111.641 46.7745 111.584 47.0578C111.526 47.3363 111.497 47.634 111.497 47.951ZM120.285 40.8568V51.9193H118.2V40.8568H120.285Z" fill="white"/>
<path d="M56.1512 0H2.95532C1.32314 0 0 1.32076 0 2.95V56.05C0 57.6792 1.32314 59 2.95532 59H56.1512C57.7833 59 59.1065 57.6792 59.1065 56.05V2.95C59.1065 1.32076 57.7833 0 56.1512 0Z" fill="url(#paint0_linear_1891_9523)"/>
<path d="M19.3574 29.7955L29.4794 12.9805L39.5275 29.7955L29.4794 35.9167L19.3574 29.7955Z" fill="#333333"/>
<path d="M29.4794 37.7599L19.3574 31.6387L29.4794 45.8724L39.5275 31.6387L29.4794 37.7599Z" fill="#333333"/>
<path d="M42.4092 39.3828H39.5278V43.6603H35.5381V46.3153H39.5278V50.7403H42.4092V46.3153H46.325V43.6603H42.4092V39.3828Z" fill="#333333"/>
</g>
<defs>
<linearGradient id="paint0_linear_1891_9523" x1="29.5532" y1="29.5" x2="59.0532" y2="59.0532" gradientUnits="userSpaceOnUse">
<stop stop-color="#FFE067"/>
<stop offset="1" stop-color="#FFF7D9"/>
</linearGradient>
<clipPath id="clip0_1891_9523">
<rect width="129" height="59" fill="white"/>
</clipPath>
</defs>
</svg>
