<svg width="28" height="28" viewBox="0 0 28 28" fill="none" xmlns="http://www.w3.org/2000/svg">
<rect width="28" height="28" rx="5" fill="#333333"/>
<path d="M14.002 23.6602L7.8418 15.2832L13.959 18.8223C13.9744 18.8204 13.99 18.8184 14.0059 18.8184C14.019 18.8184 14.0321 18.821 14.0449 18.8223L20.1621 15.2832L14.002 23.6602ZM13.6211 21.8418V19.5166L10.6445 17.7949L13.6211 21.8418ZM14.3916 19.5117V21.8301L17.3594 17.7949L14.3916 19.5117ZM14.2783 4.8584C14.3163 4.89636 14.3447 4.94304 14.3643 4.99414L20.1621 14.2207L14.002 17.7861L7.8418 14.2207L8.01172 13.9492C8.03118 13.8683 8.07587 13.7943 8.14258 13.7402L13.6719 4.94141C13.6795 4.92801 13.6872 4.91468 13.6963 4.90234L14.002 4.41797L14.2783 4.8584ZM9.16113 14.0957L13.6211 16.6758V11.9727L9.16113 14.0957ZM14.3906 16.6709L18.7676 14.1377L14.3906 11.9854V16.6709ZM14.3906 11.127L18.6133 13.2041L14.3906 6.4834V11.127ZM9.45312 13.1035L13.6211 11.1191V6.4707L9.45312 13.1035Z" fill="white"/>
</svg>
