<svg width="100" height="36" viewBox="0 0 100 36" fill="none" xmlns="http://www.w3.org/2000/svg">
<path d="M27.4158 5.72398C27.3892 5.4538 27.275 5.24391 27.0733 5.0943C26.8715 4.9447 26.5978 4.8699 26.2519 4.8699C26.0169 4.8699 25.8185 4.90339 25.6567 4.97038C25.4949 5.03513 25.3707 5.12557 25.2843 5.24167C25.2 5.35778 25.1579 5.48952 25.1579 5.63689C25.1535 5.7597 25.179 5.86688 25.2344 5.95843C25.292 6.04998 25.3707 6.12924 25.4705 6.19623C25.5702 6.26098 25.6855 6.31792 25.8163 6.36704C25.9471 6.41393 26.0868 6.45413 26.2353 6.48762L26.8472 6.63499C27.1442 6.70197 27.4169 6.79129 27.6652 6.90293C27.9135 7.01458 28.1285 7.1519 28.3103 7.3149C28.4921 7.4779 28.6329 7.66993 28.7326 7.89098C28.8346 8.11204 28.8867 8.36547 28.8889 8.65127C28.8867 9.07106 28.7803 9.43501 28.5697 9.74315C28.3613 10.0491 28.0598 10.2869 27.6652 10.4566C27.2728 10.624 26.7995 10.7078 26.2453 10.7078C25.6955 10.7078 25.2166 10.6229 24.8087 10.4532C24.403 10.2835 24.086 10.0323 23.8577 9.69961C23.6316 9.36468 23.513 8.95048 23.5019 8.45701H24.8952C24.9107 8.687 24.9761 8.87903 25.0914 9.0331C25.2089 9.18493 25.3652 9.29993 25.5603 9.37808C25.7576 9.45399 25.9804 9.49195 26.2286 9.49195C26.4725 9.49195 26.6842 9.45623 26.8638 9.38477C27.0456 9.31332 27.1863 9.21396 27.2861 9.08669C27.3859 8.95941 27.4357 8.81316 27.4357 8.64793C27.4357 8.49386 27.3903 8.36435 27.2994 8.25941C27.2107 8.15446 27.0799 8.06514 26.907 7.99146C26.7363 7.91777 26.5268 7.85079 26.2785 7.7905L25.537 7.60294C24.9628 7.46227 24.5094 7.24233 24.1769 6.94313C23.8444 6.64392 23.6792 6.24089 23.6814 5.73402C23.6792 5.31871 23.789 4.95587 24.0106 4.6455C24.2346 4.33513 24.5416 4.09286 24.9318 3.9187C25.3219 3.74453 25.7653 3.65745 26.2619 3.65745C26.7674 3.65745 27.2085 3.74453 27.5854 3.9187C27.9645 4.09286 28.2593 4.33513 28.4699 4.6455C28.6805 4.95587 28.7892 5.31536 28.7958 5.72398H27.4158Z" fill="white"/>
<path d="M29.8308 10.6106V5.46608H31.2474V10.6106H29.8308ZM30.5424 4.80291C30.3318 4.80291 30.1512 4.73258 30.0004 4.59191C29.8519 4.449 29.7776 4.27819 29.7776 4.07946C29.7776 3.88297 29.8519 3.71439 30.0004 3.57372C30.1512 3.43081 30.3318 3.35936 30.5424 3.35936C30.753 3.35936 30.9326 3.43081 31.0811 3.57372C31.2319 3.71439 31.3073 3.88297 31.3073 4.07946C31.3073 4.27819 31.2319 4.449 31.0811 4.59191C30.9326 4.73258 30.753 4.80291 30.5424 4.80291Z" fill="white"/>
<path d="M34.6833 12.647C34.2244 12.647 33.8309 12.5834 33.5028 12.4561C33.1769 12.3311 32.9176 12.1602 32.7247 11.9436C32.5318 11.7271 32.4066 11.4837 32.3489 11.2135L33.6591 11.036C33.699 11.1387 33.7622 11.2347 33.8487 11.324C33.9351 11.4133 34.0493 11.4848 34.1912 11.5384C34.3353 11.5942 34.5104 11.6221 34.7166 11.6221C35.0247 11.6221 35.2786 11.5462 35.4781 11.3944C35.6798 11.2448 35.7807 10.9936 35.7807 10.6408V9.69961H35.7208C35.6587 9.84251 35.5656 9.9776 35.4415 10.1049C35.3173 10.2322 35.1577 10.336 34.9626 10.4164C34.7676 10.4967 34.5348 10.5369 34.2643 10.5369C33.8808 10.5369 33.5316 10.4476 33.2168 10.269C32.9043 10.0881 32.6549 9.81237 32.4686 9.44171C32.2846 9.06882 32.1926 8.59769 32.1926 8.0283C32.1926 7.44552 32.2869 6.95876 32.4753 6.568C32.6637 6.17725 32.9142 5.88474 33.2268 5.69048C33.5416 5.49622 33.8863 5.39909 34.261 5.39909C34.547 5.39909 34.7864 5.44822 34.9793 5.54646C35.1721 5.64248 35.3273 5.76305 35.4448 5.90819C35.5645 6.05109 35.6565 6.19176 35.7208 6.3302H35.774V5.46608H37.1806V10.6609C37.1806 11.0985 37.0742 11.4647 36.8614 11.7594C36.6486 12.0542 36.3537 12.2752 35.9769 12.4226C35.6022 12.5722 35.171 12.647 34.6833 12.647ZM34.7132 9.46516C34.9416 9.46516 35.1345 9.40822 35.2919 9.29434C35.4515 9.17823 35.5734 9.013 35.6576 8.79865C35.7441 8.58206 35.7873 8.32304 35.7873 8.0216C35.7873 7.72017 35.7452 7.45892 35.661 7.23786C35.5767 7.01458 35.4548 6.84153 35.2952 6.71872C35.1356 6.59591 34.9416 6.53451 34.7132 6.53451C34.4805 6.53451 34.2843 6.59815 34.1247 6.72542C33.965 6.85046 33.8442 7.02462 33.7622 7.24791C33.6802 7.4712 33.6392 7.7291 33.6392 8.0216C33.6392 8.31858 33.6802 8.57536 33.7622 8.79195C33.8464 9.0063 33.9673 9.17265 34.1247 9.29099C34.2843 9.4071 34.4805 9.46516 34.7132 9.46516Z" fill="white"/>
<path d="M39.7245 7.63643V10.6106H38.3079V5.46608H39.658V6.37374H39.7179C39.8309 6.07454 40.0205 5.83785 40.2865 5.66369C40.5525 5.48729 40.8751 5.39909 41.2542 5.39909C41.6089 5.39909 41.9181 5.47724 42.182 5.63354C42.4458 5.78985 42.6508 6.01313 42.7971 6.30341C42.9435 6.59145 43.0166 6.93531 43.0166 7.33499V10.6106H41.6V7.58954C41.6022 7.27471 41.5224 7.02909 41.3606 6.85269C41.1988 6.67406 40.976 6.58475 40.6922 6.58475C40.5016 6.58475 40.3331 6.62606 40.1868 6.70867C40.0427 6.79129 39.9296 6.91186 39.8476 7.0704C39.7678 7.2267 39.7267 7.41538 39.7245 7.63643Z" fill="white"/>
<path d="M46.3004 10.6106V5.46608H47.717V10.6106H46.3004ZM47.012 4.80291C46.8014 4.80291 46.6207 4.73258 46.47 4.59191C46.3214 4.449 46.2472 4.27819 46.2472 4.07946C46.2472 3.88297 46.3214 3.71439 46.47 3.57372C46.6207 3.43081 46.8014 3.35936 47.012 3.35936C47.2226 3.35936 47.4022 3.43081 47.5507 3.57372C47.7015 3.71439 47.7768 3.88297 47.7768 4.07946C47.7768 4.27819 47.7015 4.449 47.5507 4.59191C47.4022 4.73258 47.2226 4.80291 47.012 4.80291Z" fill="white"/>
<path d="M50.2683 7.63643V10.6106H48.8517V5.46608H50.2018V6.37374H50.2617C50.3748 6.07454 50.5643 5.83785 50.8303 5.66369C51.0963 5.48729 51.4189 5.39909 51.798 5.39909C52.1527 5.39909 52.462 5.47724 52.7258 5.63354C52.9896 5.78985 53.1946 6.01313 53.341 6.30341C53.4873 6.59145 53.5604 6.93531 53.5604 7.33499V10.6106H52.1438V7.58954C52.146 7.27471 52.0662 7.02909 51.9044 6.85269C51.7426 6.67406 51.5198 6.58475 51.236 6.58475C51.0454 6.58475 50.8769 6.62606 50.7306 6.70867C50.5865 6.79129 50.4734 6.91186 50.3914 7.0704C50.3116 7.2267 50.2706 7.41538 50.2683 7.63643Z" fill="white"/>
<path d="M57.8518 10.6106L56.4618 5.46608H57.895L58.6864 8.92257H58.733L59.5577 5.46608H60.9643L61.8023 8.90247H61.8455L62.6236 5.46608H64.0535L62.6669 10.6106H61.1671L60.2892 7.37519H60.2261L59.3482 10.6106H57.8518Z" fill="white"/>
<path d="M64.8092 10.6106V5.46608H66.2258V10.6106H64.8092ZM65.5208 4.80291C65.3102 4.80291 65.1295 4.73258 64.9788 4.59191C64.8303 4.449 64.756 4.27819 64.756 4.07946C64.756 3.88297 64.8303 3.71439 64.9788 3.57372C65.1295 3.43081 65.3102 3.35936 65.5208 3.35936C65.7314 3.35936 65.911 3.43081 66.0595 3.57372C66.2103 3.71439 66.2857 3.88297 66.2857 4.07946C66.2857 4.27819 66.2103 4.449 66.0595 4.59191C65.911 4.73258 65.7314 4.80291 65.5208 4.80291Z" fill="white"/>
<path d="M70.0774 5.46608V6.53786H67.0014V5.46608H70.0774ZM67.6998 4.23353H69.1164V9.02975C69.1164 9.16149 69.1363 9.2642 69.1762 9.33788C69.2161 9.40934 69.2715 9.45958 69.3425 9.4886C69.4156 9.51763 69.4999 9.53214 69.5952 9.53214C69.6617 9.53214 69.7282 9.52656 69.7947 9.5154C69.8612 9.502 69.9122 9.49195 69.9477 9.48525L70.1705 10.547C70.0995 10.5693 69.9998 10.595 69.8712 10.624C69.7426 10.6553 69.5863 10.6743 69.4023 10.681C69.0609 10.6944 68.7616 10.6486 68.5045 10.5436C68.2495 10.4387 68.0511 10.2757 67.9093 10.0546C67.7674 9.83358 67.6975 9.55447 67.6998 9.21731V4.23353Z" fill="white"/>
<path d="M72.5265 7.63643V10.6106H71.1099V3.75123H72.4866V6.37374H72.5464C72.6617 6.07007 72.8479 5.83227 73.1051 5.66034C73.3623 5.48617 73.6848 5.39909 74.0728 5.39909C74.4275 5.39909 74.7367 5.47724 75.0005 5.63354C75.2666 5.78761 75.4727 6.00978 75.619 6.30006C75.7676 6.5881 75.8407 6.93308 75.8385 7.33499V10.6106H74.4219V7.58954C74.4241 7.27247 74.3443 7.02574 74.1825 6.84934C74.0229 6.67295 73.799 6.58475 73.5108 6.58475C73.3179 6.58475 73.1472 6.62606 72.9987 6.70867C72.8524 6.79129 72.7371 6.91186 72.6528 7.0704C72.5708 7.2267 72.5287 7.41538 72.5265 7.63643Z" fill="white"/>
<path d="M24.1653 30.6058V18.6018H32.196V20.6943H26.685V23.5546H31.7828V25.6471H26.685V28.5133H32.2192V30.6058H24.1653Z" fill="white"/>
<path d="M38.9071 21.6028V23.4784H33.5242V21.6028H38.9071ZM34.7463 19.4458H37.2253V27.8392C37.2253 28.0698 37.2602 28.2495 37.3301 28.3785C37.3999 28.5035 37.4969 28.5914 37.621 28.6422C37.7491 28.693 37.8965 28.7184 38.0633 28.7184C38.1797 28.7184 38.2961 28.7086 38.4125 28.6891C38.5289 28.6657 38.6181 28.6481 38.6802 28.6364L39.0701 30.4944C38.9459 30.5335 38.7713 30.5784 38.5463 30.6292C38.3213 30.6839 38.0478 30.7171 37.7258 30.7288C37.1283 30.7523 36.6046 30.6722 36.1546 30.4885C35.7084 30.3049 35.3612 30.0196 35.1129 29.6328C34.8646 29.2459 34.7424 28.7575 34.7463 28.1675V19.4458Z" fill="white"/>
<path d="M43.1931 25.4009V30.6058H40.714V18.6018H43.1232V23.1912H43.228C43.4297 22.6598 43.7556 22.2436 44.2056 21.9428C44.6557 21.638 45.2201 21.4856 45.8991 21.4856C46.5198 21.4856 47.061 21.6223 47.5227 21.8959C47.9882 22.1655 48.349 22.5543 48.605 23.0623C48.865 23.5663 48.993 24.17 48.9891 24.8734V30.6058H46.5101V25.3189C46.514 24.764 46.3743 24.3322 46.0911 24.0235C45.8118 23.7148 45.4199 23.5605 44.9156 23.5605C44.5781 23.5605 44.2793 23.6328 44.0194 23.7773C43.7634 23.9219 43.5616 24.1329 43.4142 24.4104C43.2707 24.6839 43.1969 25.0141 43.1931 25.4009Z" fill="white"/>
<path d="M55.0136 30.7816C54.0941 30.7816 53.3027 30.594 52.6393 30.2189C51.9798 29.8399 51.4716 29.3045 51.1146 28.6129C50.7577 27.9174 50.5793 27.0948 50.5793 26.1453C50.5793 25.2192 50.7577 24.4065 51.1146 23.707C51.4716 23.0076 51.974 22.4625 52.6218 22.0717C53.2736 21.681 54.0379 21.4856 54.9147 21.4856C55.5044 21.4856 56.0533 21.5813 56.5615 21.7728C57.0736 21.9603 57.5198 22.2436 57.9 22.6227C58.2841 23.0017 58.5828 23.4784 58.7962 24.0528C59.0095 24.6233 59.1162 25.2915 59.1162 26.0574V26.7432H51.5685V25.1958H56.7827C56.7827 24.8363 56.7051 24.5178 56.5499 24.2404C56.3947 23.9629 56.1794 23.7461 55.904 23.5898C55.6324 23.4296 55.3162 23.3495 54.9554 23.3495C54.5791 23.3495 54.2454 23.4374 53.9545 23.6132C53.6674 23.7852 53.4424 24.0177 53.2794 24.3107C53.1165 24.5999 53.0331 24.9222 53.0292 25.2778V26.749C53.0292 27.1945 53.1107 27.5794 53.2736 27.9037C53.4404 28.228 53.6751 28.4781 53.9778 28.6539C54.2804 28.8298 54.6392 28.9177 55.0543 28.9177C55.3298 28.9177 55.582 28.8786 55.8108 28.8005C56.0397 28.7223 56.2357 28.6051 56.3986 28.4488C56.5615 28.2925 56.6857 28.101 56.771 27.8744L59.0639 28.0268C58.9475 28.5817 58.7089 29.0662 58.3481 29.4804C57.9912 29.8907 57.5295 30.2111 56.9631 30.4416C56.4005 30.6683 55.7507 30.7816 55.0136 30.7816Z" fill="white"/>
<path d="M60.734 30.6058V21.6028H63.1374V23.1736H63.2305C63.3934 22.6149 63.667 22.1928 64.051 21.9076C64.4351 21.6184 64.8774 21.4739 65.3778 21.4739C65.502 21.4739 65.6358 21.4817 65.7794 21.4973C65.9229 21.5129 66.049 21.5344 66.1576 21.5618V23.7773C66.0412 23.7422 65.8802 23.7109 65.6746 23.6836C65.469 23.6562 65.2809 23.6425 65.1102 23.6425C64.7455 23.6425 64.4196 23.7226 64.1325 23.8828C63.8493 24.0391 63.6243 24.258 63.4575 24.5393C63.2945 24.8207 63.213 25.145 63.213 25.5123V30.6058H60.734Z" fill="white"/>
<path d="M71.0968 30.7816C70.1773 30.7816 69.3859 30.594 68.7225 30.2189C68.063 29.8399 67.5548 29.3045 67.1978 28.6129C66.8409 27.9174 66.6625 27.0948 66.6625 26.1453C66.6625 25.2192 66.8409 24.4065 67.1978 23.707C67.5548 23.0076 68.0572 22.4625 68.705 22.0717C69.3568 21.681 70.1211 21.4856 70.9979 21.4856C71.5876 21.4856 72.1365 21.5813 72.6447 21.7728C73.1568 21.9603 73.603 22.2436 73.9832 22.6227C74.3673 23.0017 74.666 23.4784 74.8794 24.0528C75.0927 24.6233 75.1994 25.2915 75.1994 26.0574V26.7432H67.6517V25.1958H72.8659C72.8659 24.8363 72.7883 24.5178 72.6331 24.2404C72.4779 23.9629 72.2626 23.7461 71.9872 23.5898C71.7156 23.4296 71.3994 23.3495 71.0386 23.3495C70.6623 23.3495 70.3286 23.4374 70.0377 23.6132C69.7506 23.7852 69.5256 24.0177 69.3626 24.3107C69.1997 24.5999 69.1163 24.9222 69.1124 25.2778V26.749C69.1124 27.1945 69.1939 27.5794 69.3568 27.9037C69.5236 28.228 69.7583 28.4781 70.061 28.6539C70.3636 28.8298 70.7224 28.9177 71.1375 28.9177C71.413 28.9177 71.6652 28.8786 71.8941 28.8005C72.1229 28.7223 72.3189 28.6051 72.4818 28.4488C72.6447 28.2925 72.7689 28.101 72.8542 27.8744L75.1471 28.0268C75.0307 28.5817 74.7921 29.0662 74.4313 29.4804C74.0744 29.8907 73.6127 30.2111 73.0463 30.4416C72.4837 30.6683 71.8339 30.7816 71.0968 30.7816Z" fill="white"/>
<path d="M82.5493 26.7725V21.6028H85.0283V30.6058H82.6482V28.9705H82.5551C82.3533 29.498 82.0178 29.9219 81.5483 30.2423C81.0828 30.5628 80.5144 30.723 79.8433 30.723C79.2458 30.723 78.7201 30.5862 78.2662 30.3127C77.8123 30.0392 77.4573 29.6504 77.2013 29.1463C76.9491 28.6422 76.8211 28.0385 76.8172 27.3351V21.6028H79.2962V26.8897C79.3001 27.4211 79.4417 27.8412 79.7211 28.1499C80.0004 28.4586 80.3748 28.6129 80.8442 28.6129C81.1429 28.6129 81.4223 28.5445 81.6822 28.4078C81.9421 28.2671 82.1516 28.06 82.3107 27.7865C82.4736 27.5129 82.5531 27.1749 82.5493 26.7725Z" fill="white"/>
<path d="M87.0112 30.6058V21.6028H89.3739V23.1912H89.4786C89.6649 22.6637 89.9752 22.2475 90.4097 21.9428C90.8442 21.638 91.3641 21.4856 91.9693 21.4856C92.5823 21.4856 93.1041 21.6399 93.5347 21.9486C93.9653 22.2534 94.2524 22.6676 94.396 23.1912H94.4891C94.6714 22.6754 95.0012 22.2632 95.4784 21.9545C95.9594 21.6419 96.5278 21.4856 97.1834 21.4856C98.0175 21.4856 98.6945 21.7532 99.2144 22.2886C99.7381 22.82 100 23.5741 100 24.551V30.6058H97.5268V25.0434C97.5268 24.5432 97.3949 24.1681 97.1311 23.918C96.8673 23.6679 96.5375 23.5429 96.1418 23.5429C95.6918 23.5429 95.3406 23.6875 95.0885 23.9766C94.8363 24.2619 94.7102 24.639 94.7102 25.1079V30.6058H92.3068V24.9906C92.3068 24.5491 92.1808 24.1974 91.9286 23.9356C91.6803 23.6738 91.3525 23.5429 90.9451 23.5429C90.6697 23.5429 90.4214 23.6132 90.2002 23.7539C89.983 23.8907 89.8103 24.0841 89.6823 24.3342C89.5543 24.5803 89.4903 24.8695 89.4903 25.2016V30.6058H87.0112Z" fill="white"/>
<path d="M0 12.1347L7.28937 0L14.5255 12.1347L7.28937 16.5522L0 12.1347Z" fill="white"/>
<path d="M7.28937 17.9122L0 13.4928L7.28937 23.7693L14.5255 13.4928L7.28937 17.9122Z" fill="white"/>
<path d="M5.73022 18.2463H8.80407V34.3459L5.73022 36V18.2463Z" fill="white"/>
<path d="M7.34576 26.3012H12.2927V28.9618H7.34576V26.3012Z" fill="white"/>
<path d="M7.34576 30.5582H12.2927V33.2188H7.34576V30.5582Z" fill="white"/>
</svg>
