<svg width="385" height="105" viewBox="0 0 385 105" fill="none" xmlns="http://www.w3.org/2000/svg">
<g clip-path="url(#clip0_2077_6657)">
<path fill-rule="evenodd" clip-rule="evenodd" d="M29.7508 0.447909C15.8348 1.46191 4.47184 11.4999 1.39084 25.4999L0.931843 27.5829L0.872843 51.0829C0.808843 76.3949 0.820843 76.8399 1.66884 80.3109C4.73584 92.8649 14.7398 102.05 27.5008 104.03C29.5748 104.352 76.0938 104.352 78.1678 104.03C91.3248 101.988 101.371 92.4869 104.279 79.3329L104.74 77.2499L104.794 53.2499C104.832 36.4759 104.794 28.8229 104.666 27.8329C102.873 13.9719 92.6548 3.30991 78.7508 0.790909C76.8958 0.454909 33.7978 0.152909 29.7508 0.447909ZM81.8338 44.2459V63.6589L78.9588 63.7039L76.0838 63.7499L76.0378 65.7919L75.9908 67.8329H73.1628H70.3338V69.8329V71.8329H67.5058H64.6778L64.6308 73.7919L64.5838 75.7499L61.7088 75.7959L58.8338 75.8409V77.8369V79.8329H56.0008H53.1678V82.7509V85.6679L37.3758 85.6259L21.5838 85.5829V66.1669V46.7499L24.4588 46.7039L27.3338 46.6589V43.8289V40.9999H30.1628H32.9908L33.0378 38.9579L33.0838 36.9169L35.9588 36.8709L38.8338 36.8249V34.8289V32.8329H41.6678H44.5008V30.8329V28.8329H47.3338H50.1678V26.8329V24.8329H66.0008H81.8338V44.2459ZM52.1678 27.7499V28.8329H64.0838H76.0008V45.3389V61.8439L77.9588 61.7969L79.9178 61.7499L79.9598 44.2079L80.0028 26.6669H66.0848H52.1678V27.7499ZM46.3338 31.7499V32.8329H58.3338H70.3338V49.3329V65.8329H72.2508H74.1678V48.2499V30.6669H60.2508H46.3338V31.7499ZM40.6678 35.7479V36.8309L52.6258 36.8739L64.5838 36.9169L64.6268 53.4639L64.6688 70.0109L66.5428 69.9639L68.4178 69.9169V52.3329V34.7499L54.5428 34.7069L40.6678 34.6649V35.7479ZM34.8678 39.8749L34.9178 40.9169L46.8758 40.9589L58.8338 41.0019V57.5009V73.9999H60.7508H62.6678V56.4169V38.8329H48.7428H34.8178L34.8678 39.8749ZM29.1678 44.7499V46.6669H41.1678H53.1678V62.3329V77.9999H55.0838H57.0008V60.4169V42.8329H43.0838H29.1678V44.7499ZM23.4448 48.6109C23.3838 48.6719 23.3338 56.5849 23.3338 66.1939V83.6669H37.2508H51.1678V66.0829V48.4999H37.3618C29.7688 48.4999 23.5068 48.5499 23.4448 48.6109ZM32.0858 58.2399C34.0438 59.0579 33.4548 61.9999 31.3338 61.9999C29.2448 61.9999 28.5878 59.4219 30.3948 58.3199C31.0218 57.9379 31.3278 57.9229 32.0858 58.2399ZM40.9408 58.2719C41.9748 58.7629 42.3088 60.0759 41.6668 61.1289C40.4238 63.1679 37.2258 61.3629 38.2748 59.2159C38.7938 58.1539 39.8818 57.7699 40.9408 58.2719ZM43.3698 66.0919C43.7658 66.4869 42.5668 69.1159 41.5088 70.1749C37.8858 73.7969 31.2168 71.6629 30.5458 66.6659L30.4568 65.9999H36.8678C40.3938 65.9999 43.3198 66.0409 43.3698 66.0919Z" fill="#FBDB07"/>
<path fill-rule="evenodd" clip-rule="evenodd" d="M135 52.166V65.333H138.75H142.5V59.666V54H150.083H157.666V52.166V50.333H150.083H142.5V46.5V42.666H151.916H161.333V40.833V39H148.166H135V52.166ZM169.166 40.833V42.666H172.833H176.5V40.833V39H172.833H169.166V40.833ZM191.833 40.833V42.666H193.751H195.669L195.626 52.208L195.583 61.75L191.875 61.795L188.166 61.839V63.586V65.333H199.416H210.666V63.583V61.833H206.833H203V50.416V39H197.416H191.833V40.833ZM165.333 48.5V50.333H167.252H169.171L169.127 56.041L169.083 61.75L165.375 61.795L161.666 61.839V63.586V65.333H172.916H184.166V63.586V61.839L180.375 61.794L176.583 61.75L176.54 54.208L176.496 46.666H170.915H165.333V48.5ZM218.333 48.5V50.333H216.416H214.5V55.916V61.5H216.416H218.333V63.416V65.333H227.75H237.166V63.583V61.833H229.583H222V59.833V57.833H231.487H240.974L240.986 54.083L240.998 50.333H239.082H237.166V48.5V46.666H227.75H218.333V48.5ZM244.833 52.25V57.833H246.75H248.666V59.666V61.5H250.583H252.5V63.416V65.333H256.166H259.833V63.416V61.5H261.75H263.666V59.666V57.833H265.5H267.333V52.25V46.666H263.666H260V52.336V58.006L256.125 57.961L252.25 57.916L252.206 52.291L252.162 46.666H248.497H244.833V52.25ZM275.166 48.5V50.333H273.25H271.333V55.916V61.5H273.25H275.166V63.416V65.333H284.5H293.833V63.583V61.833H286.333H278.833V59.833V57.833H288.25H297.666V54.083V50.333H295.75H293.833V48.5V46.666H284.5H275.166V48.5ZM301.666 56V65.333H305.333H309V59.666V54H310.916H312.833V52.166V50.333H310.916H309V48.5V46.666H305.333H301.666V56ZM313 48.5V50.333H318.583H324.166V48.5V46.666H318.583H313V48.5ZM332 48.5V50.333H330.083H328.166V52.166V54H330.083H332V55.916V57.833H339.588H347.177L347.13 59.791L347.083 61.75L337.625 61.793L328.166 61.836V63.584V65.333H339.411H350.655L350.703 63.458L350.75 61.583L352.625 61.536L354.5 61.489V59.744V58H352.583H350.666V56.085V54.17L343.125 54.126L335.583 54.083L335.536 52.208L335.489 50.333H343.078H350.666V48.5V46.666H341.333H332V48.5ZM362.166 48.5V50.333H360.333H358.5V55.916V61.5H360.333H362.166V63.416V65.333H371.583H381V63.583V61.833H373.416H365.833V59.833V57.833H375.333H384.833V54.083V50.333H382.916H381V48.5V46.666H371.583H362.166V48.5ZM233.5 52.25V54.166H227.75H222V52.25V50.333H227.75H233.5V52.25ZM290.333 52.25V54.166H284.583H278.833V52.25V50.333H284.583H290.333V52.25ZM377.333 52.25V54.166H371.583H365.833V52.25V50.333H371.583H377.333V52.25Z" fill="white"/>
</g>
<defs>
<clipPath id="clip0_2077_6657">
<rect width="385" height="105" fill="white"/>
</clipPath>
</defs>
</svg>
