<svg width="116" height="30" fill="none" xmlns="http://www.w3.org/2000/svg"><path fill-rule="evenodd" clip-rule="evenodd" d="m20.993 19.666 2.986 5.456c.31.515 0 .875-.721.875l-2.625.103c-.566 0-1.288.515-1.493.978l-1.39 2.575a.555.555 0 0 1-1.03 0s-1.853-3.398-2.985-5.612c.292-.083.516-.2.7-.297l.123-.064 6.435-4.014Zm-20.9 5.456 2.985-5.457 6.383 4.015c.096.039.185.084.277.131.155.08.32.165.547.23C9.153 26.255 7.3 29.653 7.3 29.653a.555.555 0 0 1-1.03 0l-1.39-2.575c-.206-.515-.927-.978-1.494-.978l-2.625-.103c-.772 0-.874-.412-.669-.875Zm22.599-10.245c0 1.442-.876 2.935-2.162 3.656l-6.332 3.501a4.956 4.956 0 0 1-2.163.515c-.72 0-1.493-.104-2.162-.515l-6.332-3.552c-1.287-.72-2.162-2.214-2.162-3.655V7.722c0-1.44.875-2.934 2.162-3.655L9.873.514A4.963 4.963 0 0 1 12.035 0c.721 0 1.39.103 2.163.514l6.332 3.553c1.39.72 2.162 2.11 2.162 3.654v7.156ZM10.439 19.1c.515.308 1.03.36 1.595.36.567 0 1.133-.103 1.596-.36l4.582-2.574c.978-.566 1.596-1.596 1.596-2.677V8.7c0-1.184-.566-2.162-1.596-2.677L13.63 3.449c-.566-.31-1.03-.36-1.596-.36-.566 0-1.132.155-1.595.36L5.857 6.023C4.878 6.589 4.26 7.619 4.26 8.7v5.148c0 1.08.669 2.162 1.596 2.677l4.582 2.574ZM9.53 9.05a.644.644 0 0 0-1.104-.44l-1.852 1.905a.644.644 0 0 0-.005.892l1.852 1.956a.643.643 0 0 0 .934-.886l-1.428-1.507L9.35 9.508a.644.644 0 0 0 .182-.457Zm5.387-.585a.642.642 0 0 0-.208 1.05l1.454 1.455-1.46 1.5a.643.643 0 0 0 .921.9l1.903-1.957a.643.643 0 0 0-.005-.904l-1.904-1.905a.643.643 0 0 0-.7-.14Zm-1.36.084a.642.642 0 0 0-1.047.217l-1.647 4.067a.643.643 0 0 0 1.193.483l1.646-4.066a.644.644 0 0 0-.145-.7ZM51.976 5.57c-.752.117-1.21.642-1.21 1.382-.002.532.203.962.683 1.206a2.007 2.007 0 0 0 1.69.07 1.237 1.237 0 0 0 .836-1.083c.062-.565-.108-1.051-.619-1.36-.426-.257-.903-.29-1.38-.215Zm29.393 7.235c.003.357.006.715.006 1.072h-.04c.008.401.011.803.014 1.205.007.91.014 1.822.09 2.727.119 1.397.863 2.445 2.147 3.048 1.236.58 2.534.611 3.838.282.843-.214 1.574-.65 2.115-1.356a4.11 4.11 0 0 0 .848-2.553c.004-1.373.002-2.746.001-4.119v-2.063a9.844 9.844 0 0 0-.048-.993c-.157-1.503-1.069-2.773-2.573-3.297a5.769 5.769 0 0 0-3.283-.147c-1.928.457-3.035 1.88-3.1 3.788-.029.8-.022 1.603-.015 2.405Zm2.439 1.072h.018v-.003c0-.347-.002-.693-.004-1.04-.004-.8-.009-1.599.01-2.396.017-.665.28-1.236.9-1.578.66-.365 2.033-.354 2.623.238.391.393.527.873.57 1.399.008.105.008.211.008.318v6.162c.001.407-.037.809-.21 1.182-.305.658-.861.956-1.55.998a3.54 3.54 0 0 1-1.062-.088c-.716-.18-1.104-.695-1.238-1.401a4.517 4.517 0 0 1-.065-.81c-.004-.662-.003-1.325-.001-1.987v-.994Zm-40.71-3.16h2.453a1.45 1.45 0 0 0 .012-.156 22.796 22.796 0 0 1-.007-.116v-.001c-.008-.126-.016-.252-.03-.377-.132-1.057-.583-1.943-1.415-2.62a4.353 4.353 0 0 0-2.26-.934c-1.102-.136-2.178-.056-3.199.421a3.732 3.732 0 0 0-1.956 2.04c-.257.626-.319 1.281-.319 1.946a818.245 818.245 0 0 0 0 5.605c-.006.417.014.834.06 1.249.185 1.435.923 2.488 2.248 3.092 1.207.55 2.472.591 3.744.298a3.937 3.937 0 0 0 2.265-1.411c.598-.759.862-1.644.866-2.606V13.63c0-.04-.004-.081-.008-.122a2.86 2.86 0 0 1-.005-.05h-4.905v2.125h2.417c0 .201.004.4.007.6.007.448.014.89-.016 1.328-.045.648-.384 1.151-.97 1.45-.446.23-.933.26-1.43.218-1.052-.088-1.78-.828-1.802-1.881-.022-1-.022-2-.022-3.001v-.537c0-1.1 0-2.2.025-3.299.016-.726.343-1.299 1.015-1.629.447-.218.931-.25 1.416-.207.942.085 1.626.637 1.755 1.562.016.114.028.228.04.343l.02.188Zm59.78 10.42h-2.505l-.239-1.01-.084-.376h-.001v-.002c-.148-.654-.295-1.309-.437-1.964-.03-.138-.09-.177-.228-.177a355.22 355.22 0 0 1-3.516 0c-.143 0-.19.048-.22.181-.179.813-.362 1.62-.547 2.434l-.206.906h-2.503c.053-.203.103-.404.152-.606l.075-.303 3.377-13.407L96 6.79c.02-.08.036-.149.16-.149.669.004 1.337.003 2.014.002l1.033-.002 3.67 14.495Zm-6.157-8.094-.002.006-.565 2.558h2.951l-.932-4.27-.535-2.445-.9 4.07-.009.042-.008.04ZM70.067 6.645h-.204v14.48h2.455V15.57l.755.002c.495.001.983.003 1.47-.002.705-.008 1.401-.071 2.068-.318 1.34-.49 2.244-1.403 2.66-2.783.216-.74.254-1.52.11-2.277-.211-1.205-.821-2.15-1.863-2.8-.902-.562-1.901-.747-2.942-.747h-4.51Zm2.255 6.678v-4.46l.584-.002c.47-.002.933-.003 1.396.004.323-.002.646.023.965.075.963.181 1.6.891 1.684 1.87.06.694-.06 1.34-.566 1.874-.355.374-.795.605-1.29.628-.647.028-1.296.022-1.95.016a89.497 89.497 0 0 0-.823-.005Zm35.591 2.256v5.552h-2.44V6.645h4.697c1.034.004 2.027.18 2.924.731 1.06.652 1.679 1.605 1.89 2.824.159.918.103 1.82-.254 2.69a4.065 4.065 0 0 1-2.03 2.164c-.795.397-1.647.51-2.52.52-.451.004-.902.002-1.352.001h-.001l-.674-.001-.24.005Zm.005-2.235a.684.684 0 0 0 .098.015l.699.003c.535.003 1.07.005 1.607-.007.636-.015 1.221-.189 1.68-.676.493-.524.61-1.156.561-1.839-.079-1.067-.884-1.888-1.952-1.938-.605-.03-1.213-.03-1.82-.03-.253 0-.505-.001-.758-.003a.493.493 0 0 0-.112.025l-.003 4.45ZM62.69 10.221V7.164a3.503 3.503 0 0 1-.106-.008 1.486 1.486 0 0 0-.099-.006l-.682.002c-.455.003-.91.005-1.364-.002-.174-.003-.224.046-.224.222.003.578.002 1.157 0 1.736v.868c0 .055-.007.11-.014.168a3.86 3.86 0 0 0-.009.086h-2.925v2.212h2.95v.275l-.002 1.606v.004c-.002 1.073-.003 2.147.001 3.22-.004.344.016.687.062 1.028.13.864.525 1.574 1.28 2.052.627.397 1.328.505 2.05.512.636.005 1.272.003 1.908.002l.954-.002h.196l.006-.072c.004-.044.008-.80.008-.114v-.758c-.001-.357-.002-.714.003-1.07.004-.175-.06-.206-.22-.206-.88.008-1.76.013-2.642 0a1.65 1.65 0 0 1-.659-.114c-.39-.184-.477-.557-.477-.954v-5.208c0-.038.003-.077.007-.122a4.72 4.72 0 0 0 .007-.076h.238c.416 0 .832 0 1.247-.002.83 0 1.66-.002 2.49.002.157 0 .204-.043.204-.202v-1.829c0-.035-.004-.70-.01-.111a2.56 2.56 0 0 1-.008-.082h-4.17Zm-8.947 8.667h3.364v2.24h-9.512v-2.226h3.783v-6.456h-3.29v-2.21h5.653l.002 8.652Z" fill="#fff"></path></svg>