<svg width="587" height="75" viewBox="0 0 587 75" fill="none" xmlns="http://www.w3.org/2000/svg">
<g clip-path="url(#clip0_2601_4864)">
<path d="M37.7402 4.71777C55.978 4.71786 70.7627 19.5024 70.7627 37.7402C70.7626 55.978 55.978 70.7626 37.7402 70.7627C19.5024 70.7627 4.71786 55.978 4.71777 37.7402V4.71777H37.7402Z" stroke="white" stroke-width="9.43502"/>
<line x1="3.14502" y1="36.1677" x2="72.3351" y2="36.1677" stroke="white" stroke-width="9.43502"/>
<line x1="37.74" y1="34.5952" x2="37.74" y2="72.3353" stroke="white" stroke-width="9.43502"/>
<path d="M152.758 37.5476C152.758 42.6721 151.799 47.0611 149.879 50.7148C147.975 54.353 145.374 57.1397 142.076 59.0749C138.794 61.0101 135.071 61.9777 130.906 61.9777C126.742 61.9777 123.01 61.0101 119.713 59.0749C116.431 57.1242 113.83 54.3298 111.91 50.6916C110.006 47.0379 109.054 42.6566 109.054 37.5476C109.054 32.4232 110.006 28.0419 111.91 24.4037C113.83 20.75 116.431 17.9556 119.713 16.0204C123.01 14.0852 126.742 13.1175 130.906 13.1175C135.071 13.1175 138.794 14.0852 142.076 16.0204C145.374 17.9556 147.975 20.75 149.879 24.4037C151.799 28.0419 152.758 32.4232 152.758 37.5476ZM144.096 37.5476C144.096 33.9404 143.531 30.8983 142.401 28.4212C141.287 25.9286 139.738 24.0476 137.757 22.7781C135.775 21.4931 133.492 20.8506 130.906 20.8506C128.321 20.8506 126.037 21.4931 124.055 22.7781C122.074 24.0476 120.518 25.9286 119.388 28.4212C118.273 30.8983 117.716 33.9404 117.716 37.5476C117.716 41.1549 118.273 44.2048 119.388 46.6973C120.518 49.1744 122.074 51.0554 124.055 52.3404C126.037 53.6099 128.321 54.2446 130.906 54.2446C133.492 54.2446 135.775 53.6099 137.757 52.3404C139.738 51.0554 141.287 49.1744 142.401 46.6973C143.531 44.2048 144.096 41.1549 144.096 37.5476Z" fill="white"/>
<path d="M160.532 74.7037V25.6577H168.799V31.5562H169.287C169.721 30.6893 170.332 29.7681 171.122 28.7927C171.911 27.8019 172.979 26.9582 174.326 26.2615C175.673 25.5493 177.392 25.1933 179.482 25.1933C182.238 25.1933 184.722 25.8977 186.936 27.3065C189.166 28.6999 190.93 30.7667 192.231 33.5069C193.547 36.2317 194.205 39.5757 194.205 43.539C194.205 47.4559 193.562 50.7845 192.277 53.5247C190.992 56.265 189.243 58.355 187.029 59.7948C184.815 61.2346 182.307 61.9545 179.505 61.9545C177.461 61.9545 175.766 61.6139 174.419 60.9327C173.072 60.2515 171.989 59.431 171.168 58.4711C170.363 57.4958 169.736 56.5746 169.287 55.7076H168.939V74.7037H160.532ZM168.776 43.4926C168.776 45.7994 169.101 47.8197 169.752 49.5537C170.417 51.2876 171.369 52.6423 172.608 53.6176C173.862 54.5775 175.379 55.0574 177.16 55.0574C179.017 55.0574 180.573 54.562 181.827 53.5712C183.081 52.5649 184.026 51.1947 184.66 49.4608C185.311 47.7114 185.636 45.722 185.636 43.4926C185.636 41.2787 185.318 39.3125 184.684 37.5941C184.049 35.8756 183.105 34.5287 181.85 33.5534C180.596 32.578 179.033 32.0903 177.16 32.0903C175.364 32.0903 173.839 32.5625 172.585 33.5069C171.331 34.4513 170.379 35.775 169.728 37.478C169.094 39.181 168.776 41.1858 168.776 43.4926Z" fill="white"/>
<path d="M217.195 62.0242C213.619 62.0242 210.53 61.281 207.929 59.7948C205.344 58.2931 203.355 56.1721 201.961 53.4318C200.568 50.6761 199.871 47.4327 199.871 43.7016C199.871 40.0324 200.568 36.8123 201.961 34.041C203.37 31.2543 205.336 29.0869 207.86 27.5387C210.383 25.9751 213.348 25.1933 216.754 25.1933C218.952 25.1933 221.027 25.5493 222.978 26.2615C224.944 26.9582 226.678 28.0419 228.179 29.5126C229.697 30.9834 230.889 32.8567 231.756 35.1325C232.623 37.3928 233.056 40.0866 233.056 43.2139V45.7916H203.819V40.1253H224.998C224.982 38.5152 224.634 37.0832 223.953 35.8292C223.272 34.5597 222.32 33.5611 221.097 32.8335C219.889 32.1058 218.48 31.742 216.87 31.742C215.152 31.742 213.642 32.16 212.342 32.996C211.041 33.8166 210.027 34.9003 209.3 36.2472C208.587 37.5786 208.224 39.0416 208.208 40.6362V45.5826C208.208 47.6572 208.587 49.4376 209.346 50.9238C210.105 52.3946 211.165 53.5247 212.527 54.3143C213.89 55.0884 215.484 55.4754 217.311 55.4754C218.534 55.4754 219.641 55.3051 220.632 54.9645C221.623 54.6084 222.482 54.0898 223.21 53.4086C223.937 52.7274 224.487 51.8837 224.859 50.8774L232.708 51.7598C232.212 53.8344 231.268 55.6457 229.875 57.1939C228.497 58.7266 226.732 59.9187 224.58 60.7702C222.428 61.6062 219.966 62.0242 217.195 62.0242Z" fill="white"/>
<path d="M240.168 74.7037V25.6577H248.435V31.5562H248.923C249.356 30.6893 249.968 29.7681 250.757 28.7927C251.547 27.8019 252.615 26.9582 253.962 26.2615C255.309 25.5493 257.028 25.1933 259.118 25.1933C261.873 25.1933 264.358 25.8977 266.572 27.3065C268.801 28.6999 270.566 30.7667 271.867 33.5069C273.183 36.2317 273.841 39.5757 273.841 43.539C273.841 47.4559 273.198 50.7845 271.913 53.5247C270.628 56.265 268.879 58.355 266.665 59.7948C264.451 61.2346 261.943 61.9545 259.141 61.9545C257.097 61.9545 255.402 61.6139 254.055 60.9327C252.708 60.2515 251.624 59.431 250.804 58.4711C249.999 57.4958 249.372 56.5746 248.923 55.7076H248.575V74.7037H240.168ZM248.412 43.4926C248.412 45.7994 248.737 47.8197 249.387 49.5537C250.053 51.2876 251.005 52.6423 252.244 53.6176C253.498 54.5775 255.015 55.0574 256.795 55.0574C258.653 55.0574 260.209 54.562 261.463 53.5712C262.717 52.5649 263.661 51.1947 264.296 49.4608C264.946 47.7114 265.272 45.722 265.272 43.4926C265.272 41.2787 264.954 39.3125 264.319 37.5941C263.685 35.8756 262.74 34.5287 261.486 33.5534C260.232 32.578 258.669 32.0903 256.795 32.0903C254.999 32.0903 253.475 32.5625 252.221 33.5069C250.966 34.4513 250.014 35.775 249.364 37.478C248.729 39.181 248.412 41.1858 248.412 43.4926Z" fill="white"/>
<path d="M296.831 62.0242C293.255 62.0242 290.166 61.281 287.565 59.7948C284.98 58.2931 282.99 56.1721 281.597 53.4318C280.204 50.6761 279.507 47.4327 279.507 43.7016C279.507 40.0324 280.204 36.8123 281.597 34.041C283.006 31.2543 284.972 29.0869 287.496 27.5387C290.019 25.9751 292.984 25.1933 296.39 25.1933C298.588 25.1933 300.663 25.5493 302.613 26.2615C304.58 26.9582 306.313 28.0419 307.815 29.5126C309.332 30.9834 310.524 32.8567 311.391 35.1325C312.258 37.3928 312.692 40.0866 312.692 43.2139V45.7916H283.455V40.1253H304.634C304.618 38.5152 304.27 37.0832 303.589 35.8292C302.908 34.5597 301.955 33.5611 300.732 32.8335C299.525 32.1058 298.116 31.742 296.506 31.742C294.787 31.742 293.278 32.16 291.977 32.996C290.677 33.8166 289.663 34.9003 288.935 36.2472C288.223 37.5786 287.859 39.0416 287.844 40.6362V45.5826C287.844 47.6572 288.223 49.4376 288.982 50.9238C289.74 52.3946 290.801 53.5247 292.163 54.3143C293.526 55.0884 295.12 55.4754 296.947 55.4754C298.17 55.4754 299.277 55.3051 300.268 54.9645C301.259 54.6084 302.118 54.0898 302.846 53.4086C303.573 52.7274 304.123 51.8837 304.494 50.8774L312.344 51.7598C311.848 53.8344 310.904 55.6457 309.51 57.1939C308.133 58.7266 306.368 59.9187 304.216 60.7702C302.064 61.6062 299.602 62.0242 296.831 62.0242Z" fill="white"/>
<path d="M328.21 40.4272V61.3275H319.804V25.6577H327.839V31.7188H328.257C329.077 29.7216 330.386 28.1348 332.181 26.9582C333.993 25.7816 336.23 25.1933 338.893 25.1933C341.354 25.1933 343.499 25.7196 345.325 26.7724C347.168 27.8251 348.592 29.3501 349.598 31.3472C350.62 33.3444 351.123 35.7672 351.108 38.6159V61.3275H342.701V39.9163C342.701 37.5322 342.082 35.6666 340.843 34.3197C339.62 32.9728 337.925 32.2993 335.758 32.2993C334.287 32.2993 332.979 32.6245 331.833 33.2747C330.703 33.9094 329.813 34.8306 329.163 36.0382C328.528 37.2457 328.21 38.7088 328.21 40.4272Z" fill="white"/>
<path d="M376.246 61.3275V13.7678H407.179V20.99H384.862V33.9017H405.576V41.1239H384.862V54.1053H407.364V61.3275H376.246Z" fill="white"/>
<path d="M428.834 61.9545C426.031 61.9545 423.523 61.2346 421.309 59.7948C419.096 58.355 417.346 56.265 416.061 53.5247C414.776 50.7845 414.134 47.4559 414.134 43.539C414.134 39.5757 414.784 36.2317 416.084 33.5069C417.4 30.7667 419.173 28.6999 421.402 27.3065C423.632 25.8977 426.116 25.1933 428.857 25.1933C430.947 25.1933 432.665 25.5493 434.012 26.2615C435.359 26.9582 436.427 27.8019 437.217 28.7927C438.006 29.7681 438.618 30.6893 439.051 31.5562H439.4V13.7678H447.83V61.3275H439.562V55.7076H439.051C438.618 56.5746 437.991 57.4958 437.17 58.4711C436.35 59.431 435.266 60.2515 433.919 60.9327C432.572 61.6139 430.877 61.9545 428.834 61.9545ZM431.179 55.0574C432.959 55.0574 434.477 54.5775 435.731 53.6176C436.985 52.6423 437.937 51.2876 438.587 49.5537C439.237 47.8197 439.562 45.7994 439.562 43.4926C439.562 41.1858 439.237 39.181 438.587 37.478C437.952 35.775 437.008 34.4513 435.754 33.5069C434.515 32.5625 432.99 32.0903 431.179 32.0903C429.306 32.0903 427.742 32.578 426.488 33.5534C425.234 34.5287 424.29 35.8756 423.655 37.5941C423.02 39.3125 422.703 41.2787 422.703 43.4926C422.703 45.722 423.02 47.7114 423.655 49.4608C424.305 51.1947 425.257 52.5649 426.511 53.5712C427.781 54.562 429.337 55.0574 431.179 55.0574Z" fill="white"/>
<path d="M456.788 61.3275V25.6577H465.194V61.3275H456.788ZM461.014 20.5952C459.683 20.5952 458.537 20.154 457.577 19.2715C456.617 18.3736 456.137 17.2976 456.137 16.0436C456.137 14.7741 456.617 13.6981 457.577 12.8157C458.537 11.9177 459.683 11.4688 461.014 11.4688C462.361 11.4688 463.507 11.9177 464.451 12.8157C465.411 13.6981 465.891 14.7741 465.891 16.0436C465.891 17.2976 465.411 18.3736 464.451 19.2715C463.507 20.154 462.361 20.5952 461.014 20.5952Z" fill="white"/>
<path d="M491.65 25.6577V32.16H471.145V25.6577H491.65ZM476.207 17.1118H484.614V50.5987C484.614 51.7289 484.784 52.5958 485.125 53.1996C485.481 53.7879 485.945 54.1904 486.518 54.4072C487.091 54.6239 487.726 54.7323 488.423 54.7323C488.949 54.7323 489.429 54.6936 489.862 54.6162C490.311 54.5388 490.652 54.4691 490.884 54.4072L492.301 60.9792C491.852 61.134 491.209 61.3043 490.373 61.49C489.553 61.6758 488.546 61.7842 487.354 61.8152C485.249 61.8771 483.352 61.5597 481.665 60.863C479.977 60.1509 478.638 59.0517 477.647 57.5654C476.672 56.0792 476.192 54.2214 476.207 51.992V17.1118Z" fill="white"/>
<path d="M498.681 61.3275V25.6577H507.088V61.3275H498.681ZM502.908 20.5952C501.576 20.5952 500.43 20.154 499.471 19.2715C498.511 18.3736 498.031 17.2976 498.031 16.0436C498.031 14.7741 498.511 13.6981 499.471 12.8157C500.43 11.9177 501.576 11.4688 502.908 11.4688C504.254 11.4688 505.4 11.9177 506.345 12.8157C507.304 13.6981 507.784 14.7741 507.784 16.0436C507.784 17.2976 507.304 18.3736 506.345 19.2715C505.4 20.154 504.254 20.5952 502.908 20.5952Z" fill="white"/>
<path d="M531.291 62.0242C527.808 62.0242 524.789 61.2578 522.235 59.7251C519.68 58.1925 517.698 56.0482 516.29 53.2925C514.896 50.5368 514.2 47.3166 514.2 43.6319C514.2 39.9473 514.896 36.7194 516.29 33.9481C517.698 31.1769 519.68 29.025 522.235 27.4923C524.789 25.9596 527.808 25.1933 531.291 25.1933C534.775 25.1933 537.794 25.9596 540.348 27.4923C542.903 29.025 544.876 31.1769 546.27 33.9481C547.679 36.7194 548.383 39.9473 548.383 43.6319C548.383 47.3166 547.679 50.5368 546.27 53.2925C544.876 56.0482 542.903 58.1925 540.348 59.7251C537.794 61.2578 534.775 62.0242 531.291 62.0242ZM531.338 55.2896C533.227 55.2896 534.806 54.771 536.075 53.7337C537.345 52.681 538.289 51.2721 538.908 49.5072C539.543 47.7423 539.86 45.7761 539.86 43.6087C539.86 41.4258 539.543 39.4519 538.908 37.687C538.289 35.9066 537.345 34.49 536.075 33.4372C534.806 32.3845 533.227 31.8581 531.338 31.8581C529.403 31.8581 527.792 32.3845 526.507 33.4372C525.238 34.49 524.286 35.9066 523.651 37.687C523.032 39.4519 522.722 41.4258 522.722 43.6087C522.722 45.7761 523.032 47.7423 523.651 49.5072C524.286 51.2721 525.238 52.681 526.507 53.7337C527.792 54.771 529.403 55.2896 531.338 55.2896Z" fill="white"/>
<path d="M563.925 40.4272V61.3275H555.518V25.6577H563.553V31.7188H563.971C564.792 29.7216 566.1 28.1348 567.896 26.9582C569.707 25.7816 571.944 25.1933 574.607 25.1933C577.069 25.1933 579.213 25.7196 581.04 26.7724C582.882 27.8251 584.306 29.3501 585.313 31.3472C586.334 33.3444 586.838 35.7672 586.822 38.6159V61.3275H578.416V39.9163C578.416 37.5322 577.796 35.6666 576.558 34.3197C575.335 32.9728 573.639 32.2993 571.472 32.2993C570.001 32.2993 568.693 32.6245 567.547 33.2747C566.417 33.9094 565.527 34.8306 564.877 36.0382C564.242 37.2457 563.925 38.7088 563.925 40.4272Z" fill="white"/>
</g>
<defs>
<clipPath id="clip0_2601_4864">
<rect width="587" height="75" fill="white"/>
</clipPath>
</defs>
</svg>
