<svg width="3320" height="567" viewBox="0 0 3320 567" fill="none" xmlns="http://www.w3.org/2000/svg">
<path d="M27.3994 19.5225V408.516H410.597" stroke="white" stroke-width="54.4573" stroke-miterlimit="10"/>
<path d="M172.538 46.6133L27.3994 408.515L385.419 259.495" stroke="white" stroke-width="54.4573" stroke-linejoin="round"/>
<path d="M27.3994 408.517L298.347 129.833" stroke="white" stroke-width="54.4573" stroke-miterlimit="10"/>
<path d="M1014.92 132.419C1014.92 150.764 1011.97 167.206 1006.09 181.743C1000.21 196.281 990.859 208.569 978.052 218.607C965.591 228.645 949.15 236.433 928.728 241.971C908.652 247.509 884.076 250.278 855.001 250.278H808.272V350.485C808.272 363.292 808.965 373.849 810.349 382.156C812.08 390.117 815.368 396.348 820.214 400.848C825.406 405.347 832.675 408.463 842.021 410.193C851.713 411.578 864.347 412.27 879.923 412.27V432H696.643V412.27C708.758 411.924 718.45 410.886 725.719 409.155C733.334 407.424 739.218 404.482 743.372 400.329C747.525 396.175 750.295 390.291 751.679 382.676C753.064 375.061 753.756 365.196 753.756 353.081V111.132C753.756 99.0168 753.064 89.3249 751.679 82.0561C750.641 74.4411 748.218 68.5568 744.41 64.4031C740.949 59.9034 735.757 56.9612 728.834 55.5767C721.911 53.846 712.912 52.6345 701.835 51.9422V32.2124H864.866C912.633 32.2124 949.496 41.0389 975.456 58.6919C1001.76 76.3448 1014.92 100.921 1014.92 132.419ZM808.272 224.318H845.136C879.75 224.318 905.364 217.742 921.978 204.588C938.939 191.089 947.419 169.109 947.419 138.649C947.419 109.228 940.67 88.2865 927.17 75.8256C914.017 63.0186 893.249 56.6151 864.866 56.6151H817.099C811.215 56.6151 808.272 59.5572 808.272 65.4415V224.318ZM1194.46 278.315C1174.73 285.93 1157.94 293.372 1144.1 300.641C1130.6 307.91 1119.69 315.179 1111.39 322.448C1103.08 329.717 1097.02 336.986 1093.21 344.254C1089.75 351.523 1088.02 358.965 1088.02 366.58C1088.02 378.003 1091.83 387.348 1099.44 394.617C1107.06 401.886 1117.1 405.521 1129.56 405.521C1138.56 405.521 1146.87 403.271 1154.48 398.771C1162.44 394.271 1169.36 388.214 1175.25 380.599C1181.13 372.638 1185.81 363.465 1189.27 353.081C1192.73 342.351 1194.46 331.101 1194.46 319.333V278.315ZM1194.46 255.99V234.702C1194.46 192.474 1176.46 171.359 1140.46 171.359C1134.58 171.359 1129.56 171.878 1125.41 172.917C1121.25 173.955 1117.79 175.686 1115.02 178.109C1112.25 180.532 1109.66 183.993 1107.23 188.493C1105.16 192.993 1103.08 198.531 1101 205.108C1097.19 215.146 1093.39 221.895 1089.58 225.357C1086.12 228.472 1080.93 230.029 1074 230.029C1056.7 230.029 1048.04 221.376 1048.04 204.069C1048.04 187.455 1056.87 174.648 1074.52 165.648C1092.18 156.302 1117.27 151.63 1149.81 151.63C1184.42 151.63 1209 157.86 1223.53 170.321C1238.07 182.436 1245.34 203.204 1245.34 232.625V348.927C1245.34 388.387 1253.13 408.117 1268.71 408.117C1273.55 408.117 1278.22 407.597 1282.72 406.559C1287.22 405.174 1291.03 401.886 1294.15 396.694L1301.42 409.155C1297.26 417.116 1289.65 423.866 1278.57 429.404C1267.49 434.596 1255.9 437.192 1243.78 437.192C1228.55 437.192 1217.13 432.346 1209.52 422.654C1202.25 412.962 1198.61 399.29 1198.61 381.637H1196.02C1187.02 398.598 1174.56 412.097 1158.63 422.135C1142.71 431.827 1125.06 436.673 1105.68 436.673C1083.87 436.673 1066.73 431.135 1054.27 420.058C1041.81 408.982 1035.58 394.098 1035.58 375.407C1035.58 367.099 1036.97 359.138 1039.74 351.523C1042.85 343.908 1047.7 336.639 1054.27 329.717C1060.85 322.794 1069.5 316.044 1080.23 309.468C1090.96 302.545 1104.12 295.622 1119.69 288.7L1194.46 255.99ZM1405.63 349.446C1405.63 363.638 1405.97 374.887 1406.66 383.195C1407.36 391.502 1409.09 397.906 1411.86 402.405C1414.97 406.559 1419.3 409.328 1424.84 410.713C1430.37 412.097 1438.16 413.136 1448.2 413.828V432H1310.09V413.828C1320.13 413.482 1328.09 412.616 1333.98 411.232C1339.86 409.501 1344.36 406.559 1347.47 402.405C1350.59 398.252 1352.49 392.367 1353.19 384.752C1354.22 376.791 1354.74 366.234 1354.74 353.081V292.334C1354.74 268.797 1354.4 250.451 1353.7 237.298C1353.36 224.145 1351.63 214.453 1348.51 208.223C1345.74 201.992 1341.24 198.358 1335.01 197.32C1328.78 195.935 1320.13 195.243 1309.05 195.243V177.071L1399.91 157.341L1407.18 221.722H1409.26C1413.76 211.338 1419.3 201.819 1425.87 193.166C1432.8 184.512 1440.24 177.244 1448.2 171.359C1456.16 165.129 1464.47 160.283 1473.12 156.822C1481.78 153.36 1490.6 151.63 1499.6 151.63C1510.68 151.63 1519.33 154.399 1525.56 159.937C1532.14 165.129 1535.43 172.225 1535.43 181.224C1535.43 189.531 1532.83 196.108 1527.64 200.954C1522.45 205.454 1515 207.704 1505.31 207.704C1499.77 207.704 1495.1 207.011 1491.29 205.627C1487.49 204.242 1484.03 202.858 1480.91 201.473C1478.14 199.742 1475.37 198.185 1472.6 196.8C1470.18 195.416 1467.41 194.723 1464.3 194.723C1454.95 194.723 1445.6 200.781 1436.26 212.896C1426.91 224.664 1419.64 239.721 1414.45 258.066C1411.68 268.104 1409.43 279.527 1407.7 292.334C1406.32 304.795 1405.63 317.948 1405.63 331.794V349.446ZM1708.61 278.315C1688.88 285.93 1672.1 293.372 1658.25 300.641C1644.75 307.91 1633.85 315.179 1625.54 322.448C1617.23 329.717 1611.18 336.986 1607.37 344.254C1603.91 351.523 1602.18 358.965 1602.18 366.58C1602.18 378.003 1605.98 387.348 1613.6 394.617C1621.21 401.886 1631.25 405.521 1643.71 405.521C1652.71 405.521 1661.02 403.271 1668.64 398.771C1676.6 394.271 1683.52 388.214 1689.4 380.599C1695.29 372.638 1699.96 363.465 1703.42 353.081C1706.88 342.351 1708.61 331.101 1708.61 319.333V278.315ZM1708.61 255.99V234.702C1708.61 192.474 1690.61 171.359 1654.62 171.359C1648.73 171.359 1643.71 171.878 1639.56 172.917C1635.41 173.955 1631.94 175.686 1629.18 178.109C1626.41 180.532 1623.81 183.993 1621.39 188.493C1619.31 192.993 1617.23 198.531 1615.16 205.108C1611.35 215.146 1607.54 221.895 1603.73 225.357C1600.27 228.472 1595.08 230.029 1588.16 230.029C1570.85 230.029 1562.2 221.376 1562.2 204.069C1562.2 187.455 1571.02 174.648 1588.68 165.648C1606.33 156.302 1631.43 151.63 1663.96 151.63C1698.58 151.63 1723.15 157.86 1737.69 170.321C1752.23 182.436 1759.5 203.204 1759.5 232.625V348.927C1759.5 388.387 1767.28 408.117 1782.86 408.117C1787.71 408.117 1792.38 407.597 1796.88 406.559C1801.38 405.174 1805.19 401.886 1808.3 396.694L1815.57 409.155C1811.42 417.116 1803.8 423.866 1792.72 429.404C1781.65 434.596 1770.05 437.192 1757.94 437.192C1742.71 437.192 1731.29 432.346 1723.67 422.654C1716.4 412.962 1712.77 399.29 1712.77 381.637H1710.17C1701.17 398.598 1688.71 412.097 1672.79 422.135C1656.87 431.827 1639.21 436.673 1619.83 436.673C1598.02 436.673 1580.89 431.135 1568.43 420.058C1555.97 408.982 1549.74 394.098 1549.74 375.407C1549.74 367.099 1551.12 359.138 1553.89 351.523C1557.01 343.908 1561.85 336.639 1568.43 329.717C1575.01 322.794 1583.66 316.044 1594.39 309.468C1605.12 302.545 1618.27 295.622 1633.85 288.7L1708.61 255.99ZM1946.78 320.371C1961.32 320.371 1972.57 313.794 1980.53 300.641C1988.83 287.488 1992.99 268.97 1992.99 245.086C1992.99 221.549 1988.83 203.377 1980.53 190.57C1972.57 177.417 1961.14 170.84 1946.26 170.84C1931.38 170.84 1919.43 177.417 1910.43 190.57C1901.78 203.723 1897.45 221.722 1897.45 244.567C1897.45 267.412 1901.95 285.757 1910.95 299.603C1919.95 313.448 1931.89 320.371 1946.78 320.371ZM1918.22 381.118C1926.53 381.81 1934.14 382.502 1941.07 383.195C1947.99 383.887 1954.74 384.579 1961.32 385.272C1968.24 385.964 1974.99 386.829 1981.57 387.868C1988.49 388.906 1995.93 389.944 2003.89 390.983C2028.81 394.79 2048.72 404.482 2063.6 420.058C2078.83 435.288 2086.44 454.499 2086.44 477.69C2086.44 506.765 2074.85 528.918 2051.66 544.148C2028.81 559.378 1995.58 566.993 1951.97 566.993C1932.59 566.993 1914.76 565.263 1898.49 561.801C1882.57 558.34 1868.9 553.321 1857.48 546.744C1846.05 540.514 1837.05 532.899 1830.48 523.899C1824.25 514.9 1821.13 505.035 1821.13 494.305C1821.13 487.036 1822.34 480.286 1824.77 474.056C1827.19 467.825 1830.48 462.287 1834.63 457.441C1838.78 452.941 1843.63 449.307 1849.17 446.538C1855.05 443.769 1861.11 442.384 1867.34 442.384C1879.11 442.384 1889.67 446.019 1899.01 453.287C1889.67 455.364 1882.05 460.383 1876.17 468.344C1870.28 476.652 1867.34 485.997 1867.34 496.381C1867.34 511.611 1874.78 523.38 1889.67 531.687C1904.9 539.995 1926.36 544.148 1954.05 544.148C2013.24 544.148 2042.83 525.976 2042.83 489.632C2042.83 475.786 2038.16 464.191 2028.81 454.845C2019.47 445.845 2008.39 440.48 1995.58 438.75C1987.28 437.711 1978.62 436.5 1969.62 435.115C1960.97 434.077 1952.32 433.038 1943.66 432C1935.36 430.962 1927.57 430.096 1920.3 429.404C1913.03 428.712 1907.15 428.019 1902.65 427.327C1883.26 425.25 1868.55 420.058 1858.51 411.751C1848.48 403.444 1843.46 392.021 1843.46 377.484C1843.46 365.369 1848.48 354.639 1858.51 345.293C1868.55 335.947 1881.19 330.063 1896.42 327.64V325.563C1888.8 322.448 1881.7 318.121 1875.13 312.583C1868.55 306.699 1862.84 300.122 1857.99 292.853C1853.49 285.584 1849.86 277.796 1847.09 269.489C1844.32 260.836 1842.94 252.009 1842.94 243.01C1842.94 229.856 1845.36 217.742 1850.21 206.665C1855.4 195.589 1862.49 186.07 1871.49 178.109C1880.84 169.802 1891.74 163.398 1904.2 158.898C1916.66 154.052 1930.34 151.63 1945.22 151.63C1960.45 151.63 1974.82 154.052 1988.31 158.898C2001.81 163.398 2013.41 170.148 2023.1 179.147C2034.87 169.456 2045.25 162.533 2054.25 158.379C2063.25 153.879 2071.73 151.63 2079.69 151.63C2092.16 151.63 2102.02 154.572 2109.29 160.456C2116.9 165.994 2120.71 173.609 2120.71 183.301C2120.71 189.185 2118.64 193.858 2114.48 197.32C2110.67 200.781 2105.83 202.512 2099.94 202.512C2095.1 202.512 2091.12 201.646 2088 199.916C2084.89 198.185 2081.94 196.454 2079.18 194.723C2076.75 192.647 2074.16 190.743 2071.39 189.012C2068.62 187.282 2065.16 186.416 2061 186.416C2052.7 186.416 2044.22 189.358 2035.56 195.243C2043.87 208.05 2048.02 224.145 2048.02 243.529C2048.02 272.95 2038.85 296.141 2020.51 313.102C2002.16 329.717 1974.64 339.409 1937.95 342.178C1916.84 343.908 1902.13 346.158 1893.82 348.927C1885.51 351.696 1881.36 356.715 1881.36 363.984C1881.36 369.522 1884.47 373.676 1890.7 376.445C1896.93 378.868 1906.11 380.426 1918.22 381.118ZM2220.21 349.446C2220.21 363.638 2220.55 374.887 2221.25 383.195C2221.94 391.502 2223.67 397.906 2226.44 402.405C2229.55 406.559 2233.88 409.328 2239.42 410.713C2244.96 412.097 2252.75 413.136 2262.78 413.828V432H2124.68V413.828C2134.71 413.482 2142.67 412.616 2148.56 411.232C2154.44 409.501 2158.94 406.559 2162.06 402.405C2165.17 398.252 2167.08 392.367 2167.77 384.752C2168.81 376.791 2169.33 366.234 2169.33 353.081V292.334C2169.33 268.797 2168.98 250.451 2168.29 237.298C2167.94 224.145 2166.21 214.453 2163.1 208.223C2160.33 201.992 2155.83 198.358 2149.6 197.32C2143.37 195.935 2134.71 195.243 2123.64 195.243V177.071L2214.5 157.341L2221.77 221.722H2223.84C2228.34 211.338 2233.88 201.819 2240.46 193.166C2247.38 184.512 2254.82 177.244 2262.78 171.359C2270.74 165.129 2279.05 160.283 2287.71 156.822C2296.36 153.36 2305.19 151.63 2314.18 151.63C2325.26 151.63 2333.91 154.399 2340.15 159.937C2346.72 165.129 2350.01 172.225 2350.01 181.224C2350.01 189.531 2347.41 196.108 2342.22 200.954C2337.03 205.454 2329.59 207.704 2319.9 207.704C2314.36 207.704 2309.69 207.011 2305.88 205.627C2302.07 204.242 2298.61 202.858 2295.49 201.473C2292.72 199.742 2289.96 198.185 2287.19 196.8C2284.76 195.416 2281.99 194.723 2278.88 194.723C2269.53 194.723 2260.19 200.781 2250.84 212.896C2241.5 224.664 2234.23 239.721 2229.04 258.066C2226.27 268.104 2224.02 279.527 2222.29 292.334C2220.9 304.795 2220.21 317.948 2220.21 331.794V349.446ZM2523.2 278.315C2503.47 285.93 2486.68 293.372 2472.83 300.641C2459.33 307.91 2448.43 315.179 2440.12 322.448C2431.82 329.717 2425.76 336.986 2421.95 344.254C2418.49 351.523 2416.76 358.965 2416.76 366.58C2416.76 378.003 2420.57 387.348 2428.18 394.617C2435.8 401.886 2445.84 405.521 2458.3 405.521C2467.3 405.521 2475.6 403.271 2483.22 398.771C2491.18 394.271 2498.1 388.214 2503.99 380.599C2509.87 372.638 2514.54 363.465 2518.01 353.081C2521.47 342.351 2523.2 331.101 2523.2 319.333V278.315ZM2523.2 255.99V234.702C2523.2 192.474 2505.2 171.359 2469.2 171.359C2463.32 171.359 2458.3 171.878 2454.14 172.917C2449.99 173.955 2446.53 175.686 2443.76 178.109C2440.99 180.532 2438.39 183.993 2435.97 188.493C2433.89 192.993 2431.82 198.531 2429.74 205.108C2425.93 215.146 2422.13 221.895 2418.32 225.357C2414.86 228.472 2409.66 230.029 2402.74 230.029C2385.43 230.029 2376.78 221.376 2376.78 204.069C2376.78 187.455 2385.61 174.648 2403.26 165.648C2420.91 156.302 2446.01 151.63 2478.55 151.63C2513.16 151.63 2537.73 157.86 2552.27 170.321C2566.81 182.436 2574.08 203.204 2574.08 232.625V348.927C2574.08 388.387 2581.87 408.117 2597.44 408.117C2602.29 408.117 2606.96 407.597 2611.46 406.559C2615.96 405.174 2619.77 401.886 2622.88 396.694L2630.15 409.155C2626 417.116 2618.38 423.866 2607.31 429.404C2596.23 434.596 2584.64 437.192 2572.52 437.192C2557.29 437.192 2545.87 432.346 2538.25 422.654C2530.99 412.962 2527.35 399.29 2527.35 381.637H2524.75C2515.76 398.598 2503.29 412.097 2487.37 422.135C2471.45 431.827 2453.8 436.673 2434.41 436.673C2412.61 436.673 2395.47 431.135 2383.01 420.058C2370.55 408.982 2364.32 394.098 2364.32 375.407C2364.32 367.099 2365.71 359.138 2368.47 351.523C2371.59 343.908 2376.44 336.639 2383.01 329.717C2389.59 322.794 2398.24 316.044 2408.97 309.468C2419.7 302.545 2432.86 295.622 2448.43 288.7L2523.2 255.99ZM2728.13 194.204H2730.21C2741.29 181.051 2753.23 170.667 2766.03 163.052C2778.84 155.437 2793.73 151.63 2810.69 151.63C2830.42 151.63 2848.42 155.264 2864.68 162.533C2881.3 169.456 2895.66 179.32 2907.78 192.127C2919.89 204.935 2929.24 220.165 2935.81 237.817C2942.74 255.124 2946.2 274.162 2946.2 294.93C2946.2 316.044 2942.74 335.428 2935.81 353.081C2928.89 370.388 2919.37 385.272 2907.26 397.732C2895.14 410.193 2880.78 419.885 2864.16 426.808C2847.55 433.731 2829.55 437.192 2810.17 437.192C2794.24 437.192 2779.71 434.596 2766.55 429.404C2753.75 423.866 2741.63 415.039 2730.21 402.925V478.728C2730.21 492.574 2730.9 503.65 2732.29 511.958C2733.67 520.265 2736.44 526.668 2740.59 531.168C2744.75 535.668 2750.63 538.783 2758.25 540.514C2766.21 542.244 2776.59 543.283 2789.4 543.629V561.801H2629.48V543.629C2639.87 543.283 2648.18 542.244 2654.41 540.514C2660.98 538.783 2666 535.668 2669.46 531.168C2673.27 526.668 2675.87 520.438 2677.25 512.477C2678.64 504.862 2679.33 494.824 2679.33 482.363V288.18C2679.33 268.104 2678.98 251.663 2678.29 238.856C2677.94 226.049 2677.08 217.222 2675.69 212.376C2673.96 204.069 2669.98 198.531 2663.75 195.762C2657.52 192.647 2645.75 191.089 2628.45 191.089V173.436L2728.13 153.706V194.204ZM2743.71 209.261C2739.21 216.184 2735.75 224.491 2733.32 234.183C2731.25 243.529 2730.21 255.817 2730.21 271.047V311.545C2730.21 320.89 2730.38 329.024 2730.73 335.947C2731.42 342.524 2732.29 348.235 2733.32 353.081C2734.36 357.927 2735.75 362.254 2737.48 366.061C2739.21 369.869 2741.46 373.503 2744.23 376.964C2752.19 388.041 2761.71 396.694 2772.78 402.925C2783.86 408.809 2795.46 411.751 2807.57 411.751C2831.45 411.751 2850.67 401.713 2865.2 381.637C2880.09 361.561 2887.53 333.351 2887.53 297.007C2887.53 279.008 2885.45 262.739 2881.3 248.202C2877.49 233.318 2871.95 220.684 2864.68 210.3C2857.41 199.569 2848.59 191.262 2838.2 185.378C2828.17 179.493 2816.92 176.551 2804.46 176.551C2791.99 176.551 2780.4 179.493 2769.67 185.378C2759.29 190.916 2750.63 198.877 2743.71 209.261ZM3069.1 349.446C3069.1 363.638 3069.45 374.887 3070.14 383.195C3070.83 391.502 3072.56 397.906 3075.33 402.405C3078.45 406.559 3082.77 409.328 3088.31 410.713C3093.85 412.097 3101.64 413.136 3111.67 413.828V432H2973.57V413.828C2983.6 413.136 2991.57 412.097 2997.45 410.713C3003.33 409.328 3007.83 406.559 3010.95 402.405C3014.06 398.252 3015.97 392.367 3016.66 384.752C3017.7 376.791 3018.22 366.234 3018.22 353.081V135.534C3018.22 115.112 3017.87 98.8437 3017.18 86.7289C3016.83 74.6142 3015.97 65.4415 3014.58 59.2111C3013.89 55.0575 3012.68 51.7692 3010.95 49.3462C3009.56 46.5771 3007.31 44.5003 3004.2 43.1158C3001.08 41.3851 2996.93 40.1736 2991.74 39.4813C2986.55 38.789 2980.14 38.4429 2972.53 38.4429V20.7899L3068.06 1.06017V198.877H3070.14C3075.33 191.954 3081.73 185.724 3089.35 180.186C3097.31 174.301 3105.79 169.282 3114.79 165.129C3123.79 160.975 3133.14 157.687 3142.83 155.264C3152.87 152.841 3162.56 151.63 3171.9 151.63C3187.83 151.63 3202.36 154.399 3215.52 159.937C3229.02 165.475 3239.4 172.917 3246.67 182.263C3252.55 190.224 3256.88 200.781 3259.65 213.934C3262.42 226.741 3263.8 244.221 3263.8 266.374V349.446C3263.8 363.638 3264.15 374.887 3264.84 383.195C3265.53 391.156 3267.26 397.386 3270.03 401.886C3273.15 406.386 3277.47 409.328 3283.01 410.713C3288.55 412.097 3296.34 413.136 3306.38 413.828V432H3168.79V413.828C3178.48 413.482 3186.27 412.616 3192.15 411.232C3198.04 409.501 3202.36 406.559 3205.13 402.405C3208.25 398.252 3210.15 392.367 3210.84 384.752C3211.88 376.791 3212.4 366.234 3212.4 353.081V287.661C3212.4 248.894 3207.9 221.376 3198.9 205.108C3189.9 188.493 3174.84 180.186 3153.73 180.186C3137.46 180.186 3122.58 184.339 3109.08 192.647C3095.93 200.954 3085.54 212.376 3077.93 226.914C3076.2 230.722 3074.64 234.356 3073.25 237.817C3072.22 240.933 3071.35 244.567 3070.66 248.721C3069.97 252.874 3069.45 257.72 3069.1 263.258C3069.1 268.451 3069.1 275.027 3069.1 282.988V349.446Z" fill="white"/>
</svg>
