<svg width="616" height="195" viewBox="0 0 616 195" fill="none" xmlns="http://www.w3.org/2000/svg">
<path d="M144.512 179.858C144.512 187.945 113.8 194.5 75.9146 194.5C38.0292 194.5 7.31707 187.945 7.31707 179.858C7.31707 171.772 38.0292 165.217 75.9146 165.217C113.8 165.217 144.512 171.772 144.512 179.858Z" fill="#F4FAFC"/>
<path fill-rule="evenodd" clip-rule="evenodd" d="M2.17565 116.274C2.17565 139.91 23.9675 150.509 45.2744 150.575C95.1278 150.575 150.286 119.931 149.999 68.6482C149.792 31.6753 115.819 0.199685 75.6185 0.502162C37.3648 0.502162 0.00252639 25.4789 0 59.5056C0 68.6435 5.24224 77.4836 18.9457 78.4789C7.5199 89.7931 2.17565 103.349 2.17565 116.274ZM75.75 82.8585C83.7413 82.8585 90.2196 75.0741 90.2196 65.4717C90.2196 55.8692 83.7413 48.0849 75.75 48.0849C67.7587 48.0849 61.2805 55.8692 61.2805 65.4717C61.2805 75.0741 67.7587 82.8585 75.75 82.8585ZM117.238 82.8585C125.229 82.8585 131.707 75.0742 131.707 65.4717C131.707 55.8693 125.229 48.0849 117.238 48.0849C109.246 48.0849 102.768 55.8693 102.768 65.4717C102.768 75.0742 109.246 82.8585 117.238 82.8585Z" fill="#F4FAFC"/>
<path d="M216.577 158.833C219.009 158.833 220.998 156.828 220.998 154.379C220.998 141.457 220.998 128.535 220.998 115.614C228.734 115.614 236.47 115.614 244.206 115.614C270.951 115.614 290.623 95.7925 290.623 68.8449C290.623 41.8973 270.951 22.0763 244.206 22.0763H204.421C201.989 22.0763 200 24.0807 200 26.5305V154.379C200 156.828 201.989 158.833 204.421 158.833H216.577ZM220.998 94.4563C220.998 77.382 220.998 60.3078 220.998 43.2335C228.734 43.2335 236.47 43.2335 244.206 43.2335C258.794 43.2335 268.962 53.7008 268.962 68.8449C268.962 83.989 258.794 94.4563 244.206 94.4563C236.47 94.4563 228.734 94.4563 220.998 94.4563Z" fill="#F4FAFC"/>
<path d="M319.274 158.833C321.705 158.833 323.694 156.828 323.694 154.379V100.929C323.694 77.3217 339.388 68.4134 356.849 68.4134H361.27C363.701 68.4134 365.69 66.409 365.69 63.9593V51.933C365.69 49.4833 363.701 47.4789 361.27 47.4789H356.849C330.321 47.4789 321.158 65.8891 321.158 65.8891C321.158 65.8891 321.158 54.4085 321.158 51.933C321.158 48.4187 319.169 47.4789 316.737 47.4789H308.222C305.791 47.4789 303.802 49.4833 303.802 51.933V154.379C303.802 156.828 305.791 158.833 308.222 158.833H319.274Z" fill="#F4FAFC"/>
<path d="M394.185 158.833C396.616 158.833 398.605 156.828 398.605 154.379V51.933C398.605 49.4833 396.616 47.4789 394.185 47.4789H382.691C380.259 47.4789 378.27 49.4833 378.27 51.933V154.379C378.27 156.828 380.259 158.833 382.691 158.833H394.185Z" fill="#F4FAFC"/>
<path d="M467.358 158.833C469.347 158.833 470.674 157.719 471.558 155.492L509.796 54.3828C510.238 53.2693 510.68 51.933 510.68 50.5968C510.68 49.0378 508.912 47.4789 506.26 47.4789H492.556C490.566 47.4789 489.24 48.3697 488.356 50.8195C479.409 76.6971 461.141 126.786 461.141 126.786C461.141 126.786 442.95 76.7572 433.982 50.8195C433.098 48.3697 431.772 47.4789 429.783 47.4789H416.079C413.426 47.4789 411.658 49.0378 411.658 50.8195C411.658 51.933 412.1 53.2693 412.542 54.3828L451.002 155.492C451.886 157.719 453.212 158.833 455.201 158.833H467.358Z" fill="#F4FAFC"/>
<path d="M559.097 194.5C561.086 194.5 562.413 193.609 563.297 191.159L615.116 54.3828C615.558 53.2693 616 51.933 616 50.8195C616 49.0378 614.232 47.4789 611.579 47.4789H598.097C596.107 47.4789 594.781 48.3697 593.897 50.8195C585.604 74.6401 567.815 126.786 567.815 126.786C567.815 126.786 548.784 74.8853 539.744 50.8195C538.86 48.3697 537.534 47.4789 535.545 47.4789H522.062C519.409 47.4789 517.641 49.0378 517.641 50.8195C517.641 51.933 518.083 53.2693 518.525 54.3828L555.437 148.811C555.879 149.924 556.1 150.593 556.1 151.038C556.1 151.706 555.879 152.151 555.437 153.488L543.404 188.041C542.962 189.155 542.741 190.046 542.741 190.937C542.741 192.718 544.288 194.5 547.161 194.5H559.097Z" fill="#F4FAFC"/>
<path d="M144.512 180.358C144.512 188.445 113.8 195 75.9146 195C38.0292 195 7.31707 188.445 7.31707 180.358C7.31707 172.272 38.0292 165.717 75.9146 165.717C113.8 165.717 144.512 172.272 144.512 180.358Z" fill="#FF8271"/>
<path fill-rule="evenodd" clip-rule="evenodd" d="M2.17565 116.774C2.17565 140.41 23.9675 151.009 45.2744 151.075C95.1278 151.075 150.286 120.431 149.999 69.1482C149.792 32.1753 115.819 0.699685 75.6185 1.00216C37.3648 1.00216 0.00252639 25.9789 0 60.0056C0 69.1435 5.24224 77.9836 18.9457 78.9789C7.5199 90.2931 2.17565 103.849 2.17565 116.774ZM75.75 83.3585C83.7413 83.3585 90.2196 75.5741 90.2196 65.9717C90.2196 56.3692 83.7413 48.5849 75.75 48.5849C67.7587 48.5849 61.2805 56.3692 61.2805 65.9717C61.2805 75.5741 67.7587 83.3585 75.75 83.3585ZM117.238 83.3585C125.229 83.3585 131.707 75.5742 131.707 65.9717C131.707 56.3693 125.229 48.5849 117.238 48.5849C109.246 48.5849 102.768 56.3693 102.768 65.9717C102.768 75.5742 109.246 83.3585 117.238 83.3585Z" fill="#FF8271"/>
</svg>
