<svg width="470" height="91" viewBox="0 0 470 91" fill="none" xmlns="http://www.w3.org/2000/svg">
  <g shape-rendering="crispEdges">
    <path d="M21 14H14V21H21V14Z" fill="#5555FF"/>
    <path d="M63 14H56V21H63V14Z" fill="#5555FF"/>
    <path d="M28 21L21 21L21 28H28V21Z" fill="#5555FF"/>
    <path d="M56 21L49 21V28H56L56 21Z" fill="#5555FF"/>
    <path d="M28 28H21V35H28V28Z" fill="#5555FF"/>
    <path d="M35 28L28 28V35H35V28Z" fill="#3333DD"/>
    <path d="M42 28H35V35H42V28Z" fill="#5555FF"/>
    <path d="M49 28L42 28V35H49L49 28Z" fill="#3333DD"/>
    <path d="M56 28H49L49 35H56V28Z" fill="#5555FF"/>
    <path d="M21 35L14 35.0001V42.0001H21L21 35Z" fill="#5555FF"/>
    <path d="M28 35H21L21 42.0001H28V35Z" fill="#5555FF"/>
    <path d="M35 35H28V42.0001H35V35Z" fill="#5555FF"/>
    <path d="M42 35H35V42.0001H42V35Z" fill="#5555FF"/>
    <path d="M49 35H42V42.0001H49V35Z" fill="#5555FF"/>
    <path d="M56 35H49V42.0001H56V35Z" fill="#5555FF"/>
    <path d="M63 35.0001L56 35V42.0001H63V35.0001Z" fill="#5555FF"/>
    <path d="M14 42.0001L7.00002 42.0001V49.0001H14L14 42.0001Z" fill="#5555FF"/>
    <path d="M21 42.0001H14L14 49.0001H21V42.0001Z" fill="#5555FF"/>
    <path d="M28 42.0001H21V49.0001H28V42.0001Z" fill="#F4F4F4"/>
    <path d="M35 42.0001H28V49.0001H35V42.0001Z" fill="#F4F4F4"/>
    <path d="M42 42.0001H35V49.0001H42V42.0001Z" fill="#5555FF"/>
    <path d="M49 42.0001H42V49.0001H49V42.0001Z" fill="#5555FF"/>
    <path d="M56 42.0001H49V49.0001H56V42.0001Z" fill="#F4F4F4"/>
    <path d="M63 42.0001H56V49.0001H63V42.0001Z" fill="#F4F4F4"/>
    <path d="M70 42.0001L63 42.0001V49.0001H70V42.0001Z" fill="#5555FF"/>
    <path d="M14 49.0001H7.00002V56.0001H14V49.0001Z" fill="#5555FF"/>
    <path d="M21 49.0001H14V56.0001H21V49.0001Z" fill="#5555FF"/>
    <path d="M28 49.0001H21V56.0001H28V49.0001Z" fill="#F4F4F4"/>
    <path d="M35 49.0001H28V56.0001H35V49.0001Z" fill="#FF55FF"/>
    <path d="M42 49.0001H35V56.0001H42V49.0001Z" fill="#5555FF"/>
    <path d="M49 49.0001H42V56.0001H49V49.0001Z" fill="#5555FF"/>
    <path d="M56 49.0001H49V56.0001H56V49.0001Z" fill="#F4F4F4"/>
    <path d="M63 49.0001H56V56.0001H63V49.0001Z" fill="#FF55FF"/>
    <path d="M70 49.0001H63V56.0001H70V49.0001Z" fill="#5555FF"/>
    <path d="M7.00002 56.0001L0 55.9999V62.9999H7L7.00002 56.0001Z" fill="#3333DD"/>
    <path d="M14 56.0001H7.00002L7 62.9999H14V56.0001Z" fill="#3333DD"/>
    <path d="M21 56.0001H14V62.9999H21V56.0001Z" fill="#3333DD"/>
    <path d="M28 56.0001H21V62.9999H28V56.0001Z" fill="#3333DD"/>
    <path d="M35 56.0001H28V62.9999H35V56.0001Z" fill="#3333DD"/>
    <path d="M42 56.0001H35V62.9999H42V56.0001Z" fill="#3333DD"/>
    <path d="M49 56.0001H42V62.9999H49V56.0001Z" fill="#3333DD"/>
    <path d="M56 56.0001H49V62.9999H56V56.0001Z" fill="#3333DD"/>
    <path d="M63 56.0001H56V62.9999H63V56.0001Z" fill="#3333DD"/>
    <path d="M70 56.0001H63V62.9999H70V56.0001Z" fill="#3333DD"/>
    <path d="M77 55.9999L70 56.0001V62.9999H77V55.9999Z" fill="#3333DD"/>
    <path d="M21 62.9999H14L14 69.9999H21V62.9999Z" fill="#3333DD"/>
    <path d="M35 62.9999H28L28 69.9999H35V62.9999Z" fill="#5555FF"/>
    <path d="M49 62.9999H42L42 69.9999H49V62.9999Z" fill="#5555FF"/>
    <path d="M63 62.9999H56L56 69.9999H63V62.9999Z" fill="#3333DD"/>
    <path d="M21 69.9999H14V77H21V69.9999Z" fill="#3333DD"/>
    <path d="M35 69.9999H28V77H35V69.9999Z" fill="#5555FF"/>
    <path d="M49 69.9999H42V77H49V69.9999Z" fill="#5555FF"/>
    <path d="M63 69.9999H56V77H63V69.9999Z" fill="#3333DD"/>
    <path d="M35 77H28V84H35V77Z" fill="#5555FF"/>
    <path d="M49 77H42V84H49V77Z" fill="#5555FF"/>
    <path d="M28 84L21 84V91H28L28 84Z" fill="#5555FF"/>
    <path d="M35 84H28L28 91H35V84Z" fill="#5555FF"/>
    <path d="M49 84H42V91H49V84Z" fill="#5555FF"/>
    <path d="M56 84L49 84V91H56V84Z" fill="#5555FF"/>
    <path d="M260 0H253V7H260V0Z" fill="#F9F9FB"/>
    <path d="M267 0H260V7H267V0Z" fill="#F9F9FB"/>
    <path d="M295 0H288V7H295V0Z" fill="#F9F9FB"/>
    <path d="M302 0H295V7H302V0Z" fill="#F9F9FB"/>
    <path d="M379 0H372V7H379V0Z" fill="#F9F9FB"/>
    <path d="M386 0H379V7H386V0Z" fill="#F9F9FB"/>
    <path d="M393 0H386V7H393V0Z" fill="#F9F9FB"/>
    <path d="M400 0H393V7H400V0Z" fill="#F9F9FB"/>
    <path d="M260 7H253V14H260V7Z" fill="#F9F9FB"/>
    <path d="M267 7H260V14H267V7Z" fill="#F9F9FB"/>
    <path d="M295 7H288V14H295V7Z" fill="#F9F9FB"/>
    <path d="M302 7H295V14H302V7Z" fill="#F9F9FB"/>
    <path d="M393 7H386V14H393V7Z" fill="#F9F9FB"/>
    <path d="M400 7H393V14H400V7Z" fill="#F9F9FB"/>
    <path d="M260 14H253V21H260V14Z" fill="#F9F9FB"/>
    <path d="M267 14H260V21H267V14Z" fill="#F9F9FB"/>
    <path d="M393 14H386V21H393V14Z" fill="#F9F9FB"/>
    <path d="M400 14H393V21H400V14Z" fill="#F9F9FB"/>
    <path d="M260 21H253V28H260V21Z" fill="#F9F9FB"/>
    <path d="M267 21H260V28H267V21Z" fill="#F9F9FB"/>
    <path d="M393 21H386V28H393V21Z" fill="#F9F9FB"/>
    <path d="M400 21H393V28H400V21Z" fill="#F9F9FB"/>
    <path d="M260 28H253V35H260V28Z" fill="#F9F9FB"/>
    <path d="M267 28H260V35H267V28Z" fill="#F9F9FB"/>
    <path d="M393 28H386V35H393V28Z" fill="#F9F9FB"/>
    <path d="M400 28H393V35H400V28Z" fill="#F9F9FB"/>
    <path d="M120 35H113V42H120V35Z" fill="#F9F9FB"/>
    <path d="M127 35H120V42H127V35Z" fill="#F9F9FB"/>
    <path d="M141 35H134V42H141V35Z" fill="#F9F9FB"/>
    <path d="M148 35H141V42H148V35Z" fill="#F9F9FB"/>
    <path d="M176 35H169V42H176V35Z" fill="#F9F9FB"/>
    <path d="M183 35H176V42H183V35Z" fill="#F9F9FB"/>
    <path d="M190 35H183V42H190V35Z" fill="#F9F9FB"/>
    <path d="M197 35H190V42H197V35Z" fill="#F9F9FB"/>
    <path d="M232 35H225V42H232V35Z" fill="#F9F9FB"/>
    <path d="M239 35H232V42H239V35Z" fill="#F9F9FB"/>
    <path d="M246 35H239V42H246V35Z" fill="#F9F9FB"/>
    <path d="M260 35H253V42H260V35Z" fill="#F9F9FB"/>
    <path d="M267 35H260V42H267V35Z" fill="#F9F9FB"/>
    <path d="M281 35H274V42H281V35Z" fill="#F9F9FB"/>
    <path d="M288 35H281V42H288V35Z" fill="#F9F9FB"/>
    <path d="M295 35H288V42H295V35Z" fill="#F9F9FB"/>
    <path d="M302 35H295V42H302V35Z" fill="#F9F9FB"/>
    <path d="M337 35H330V42H337V35Z" fill="#F9F9FB"/>
    <path d="M344 35H337V42H344V35Z" fill="#F9F9FB"/>
    <path d="M351 35H344V42H351V35Z" fill="#F9F9FB"/>
    <path d="M358 35H351V42H358V35Z" fill="#F9F9FB"/>
    <path d="M393 35H386V42H393V35Z" fill="#F9F9FB"/>
    <path d="M400 35H393V42H400V35Z" fill="#F9F9FB"/>
    <path d="M435 35H428V42H435V35Z" fill="#F9F9FB"/>
    <path d="M442 35H435V42H442V35Z" fill="#F9F9FB"/>
    <path d="M449 35H442V42H449V35Z" fill="#F9F9FB"/>
    <path d="M456 35H449V42H456V35Z" fill="#F9F9FB"/>
    <path d="M463 35H456V42H463V35Z" fill="#F9F9FB"/>
    <path d="M120 42H113V49H120V42Z" fill="#F9F9FB"/>
    <path d="M127 42H120V49H127V42Z" fill="#F9F9FB"/>
    <path d="M134 42H127V49H134V42Z" fill="#F9F9FB"/>
    <path d="M155 42H148V49H155V42Z" fill="#F9F9FB"/>
    <path d="M169 42H162V49H169V42Z" fill="#F9F9FB"/>
    <path d="M176 42H169V49H176V42Z" fill="#F9F9FB"/>
    <path d="M197 42H190V49H197V42Z" fill="#F9F9FB"/>
    <path d="M204 42H197V49H204V42Z" fill="#F9F9FB"/>
    <path d="M218 42H211V49H218V42Z" fill="#F9F9FB"/>
    <path d="M225 42H218V49H225V42Z" fill="#F9F9FB"/>
    <path d="M253 42H246V49H253V42Z" fill="#F9F9FB"/>
    <path d="M260 42H253V49H260V42Z" fill="#F9F9FB"/>
    <path d="M267 42H260V49H267V42Z" fill="#F9F9FB"/>
    <path d="M295 42H288V49H295V42Z" fill="#F9F9FB"/>
    <path d="M302 42H295V49H302V42Z" fill="#F9F9FB"/>
    <path d="M330 42H323V49H330V42Z" fill="#F9F9FB"/>
    <path d="M337 42H330V49H337V42Z" fill="#F9F9FB"/>
    <path d="M365 42H358V49H365V42Z" fill="#F9F9FB"/>
    <path d="M393 42H386V49H393V42Z" fill="#F9F9FB"/>
    <path d="M400 42H393V49H400V42Z" fill="#F9F9FB"/>
    <path d="M428 42H421V49H428V42Z" fill="#F9F9FB"/>
    <path d="M435 42H428V49H435V42Z" fill="#F9F9FB"/>
    <path d="M463 42H456V49H463V42Z" fill="#F9F9FB"/>
    <path d="M470 42H463V49H470V42Z" fill="#F9F9FB"/>
    <path d="M120 49H113V56H120V49Z" fill="#F9F9FB"/>
    <path d="M127 49H120V56H127V49Z" fill="#F9F9FB"/>
    <path d="M197 49H190V56H197V49Z" fill="#F9F9FB"/>
    <path d="M204 49H197V56H204V49Z" fill="#F9F9FB"/>
    <path d="M218 49H211V56H218V49Z" fill="#F9F9FB"/>
    <path d="M225 49H218V56H225V49Z" fill="#F9F9FB"/>
    <path d="M260 49H253V56H260V49Z" fill="#F9F9FB"/>
    <path d="M267 49H260V56H267V49Z" fill="#F9F9FB"/>
    <path d="M295 49H288V56H295V49Z" fill="#F9F9FB"/>
    <path d="M302 49H295V56H302V49Z" fill="#F9F9FB"/>
    <path d="M330 49H323V56H330V49Z" fill="#F9F9FB"/>
    <path d="M337 49H330V56H337V49Z" fill="#F9F9FB"/>
    <path d="M393 49H386V56H393V49Z" fill="#F9F9FB"/>
    <path d="M400 49H393V56H400V49Z" fill="#F9F9FB"/>
    <path d="M428 49H421V56H428V49Z" fill="#F9F9FB"/>
    <path d="M435 49H428V56H435V49Z" fill="#F9F9FB"/>
    <path d="M463 49H456V56H463V49Z" fill="#F9F9FB"/>
    <path d="M470 49H463V56H470V49Z" fill="#F9F9FB"/>
    <path d="M120 56H113V63H120V56Z" fill="#F9F9FB"/>
    <path d="M127 56H120V63H127V56Z" fill="#F9F9FB"/>
    <path d="M169 56H162V63H169V56Z" fill="#F9F9FB"/>
    <path d="M176 56H169V63H176V56Z" fill="#F9F9FB"/>
    <path d="M183 56H176V63H183V56Z" fill="#F9F9FB"/>
    <path d="M197 56H190V63H197V56Z" fill="#F9F9FB"/>
    <path d="M204 56H197V63H204V56Z" fill="#F9F9FB"/>
    <path d="M218 56H211V63H218V56Z" fill="#F9F9FB"/>
    <path d="M225 56H218V63H225V56Z" fill="#F9F9FB"/>
    <path d="M260 56H253V63H260V56Z" fill="#F9F9FB"/>
    <path d="M267 56H260V63H267V56Z" fill="#F9F9FB"/>
    <path d="M295 56H288V63H295V56Z" fill="#F9F9FB"/>
    <path d="M302 56H295V63H302V56Z" fill="#F9F9FB"/>
    <path d="M330 56H323V63H330V56Z" fill="#F9F9FB"/>
    <path d="M337 56H330V63H337V56Z" fill="#F9F9FB"/>
    <path d="M393 56H386V63H393V56Z" fill="#F9F9FB"/>
    <path d="M400 56H393V63H400V56Z" fill="#F9F9FB"/>
    <path d="M428 56H421V63H428V56Z" fill="#F9F9FB"/>
    <path d="M435 56H428V63H435V56Z" fill="#F9F9FB"/>
    <path d="M442 56H435V63H442V56Z" fill="#F9F9FB"/>
    <path d="M449 56H442V63H449V56Z" fill="#F9F9FB"/>
    <path d="M456 56H449V63H456V56Z" fill="#F9F9FB"/>
    <path d="M463 56H456V63H463V56Z" fill="#F9F9FB"/>
    <path d="M470 56H463V63H470V56Z" fill="#F9F9FB"/>
    <path d="M120 63H113V70H120V63Z" fill="#F9F9FB"/>
    <path d="M127 63H120V70H127V63Z" fill="#F9F9FB"/>
    <path d="M162 63H155V70H162V63Z" fill="#F9F9FB"/>
    <path d="M169 63H162V70H169V63Z" fill="#F9F9FB"/>
    <path d="M190 63H183V70H190V63Z" fill="#F9F9FB"/>
    <path d="M197 63H190V70H197V63Z" fill="#F9F9FB"/>
    <path d="M204 63H197V70H204V63Z" fill="#F9F9FB"/>
    <path d="M218 63H211V70H218V63Z" fill="#F9F9FB"/>
    <path d="M225 63H218V70H225V63Z" fill="#F9F9FB"/>
    <path d="M260 63H253V70H260V63Z" fill="#F9F9FB"/>
    <path d="M267 63H260V70H267V63Z" fill="#F9F9FB"/>
    <path d="M295 63H288V70H295V63Z" fill="#F9F9FB"/>
    <path d="M302 63H295V70H302V63Z" fill="#F9F9FB"/>
    <path d="M330 63H323V70H330V63Z" fill="#F9F9FB"/>
    <path d="M337 63H330V70H337V63Z" fill="#F9F9FB"/>
    <path d="M393 63H386V70H393V63Z" fill="#F9F9FB"/>
    <path d="M400 63H393V70H400V63Z" fill="#F9F9FB"/>
    <path d="M428 63H421V70H428V63Z" fill="#F9F9FB"/>
    <path d="M435 63H428V70H435V63Z" fill="#F9F9FB"/>
    <path d="M120 70H113V77H120V70Z" fill="#F9F9FB"/>
    <path d="M127 70H120V77H127V70Z" fill="#F9F9FB"/>
    <path d="M162 70H155V77H162V70Z" fill="#F9F9FB"/>
    <path d="M169 70H162V77H169V70Z" fill="#F9F9FB"/>
    <path d="M197 70H190V77H197V70Z" fill="#F9F9FB"/>
    <path d="M204 70H197V77H204V70Z" fill="#F9F9FB"/>
    <path d="M218 70H211V77H218V70Z" fill="#F9F9FB"/>
    <path d="M225 70H218V77H225V70Z" fill="#F9F9FB"/>
    <path d="M260 70H253V77H260V70Z" fill="#F9F9FB"/>
    <path d="M267 70H260V77H267V70Z" fill="#F9F9FB"/>
    <path d="M295 70H288V77H295V70Z" fill="#F9F9FB"/>
    <path d="M302 70H295V77H302V70Z" fill="#F9F9FB"/>
    <path d="M330 70H323V77H330V70Z" fill="#F9F9FB"/>
    <path d="M337 70H330V77H337V70Z" fill="#F9F9FB"/>
    <path d="M393 70H386V77H393V70Z" fill="#F9F9FB"/>
    <path d="M400 70H393V77H400V70Z" fill="#F9F9FB"/>
    <path d="M428 70H421V77H428V70Z" fill="#F9F9FB"/>
    <path d="M435 70H428V77H435V70Z" fill="#F9F9FB"/>
    <path d="M120 77H113V84H120V77Z" fill="#F9F9FB"/>
    <path d="M127 77H120V84H127V77Z" fill="#F9F9FB"/>
    <path d="M162 77H155V84H162V77Z" fill="#F9F9FB"/>
    <path d="M169 77H162V84H169V77Z" fill="#F9F9FB"/>
    <path d="M197 77H190V84H197V77Z" fill="#F9F9FB"/>
    <path d="M204 77H197V84H204V77Z" fill="#F9F9FB"/>
    <path d="M218 77H211V84H218V77Z" fill="#F9F9FB"/>
    <path d="M225 77H218V84H225V77Z" fill="#F9F9FB"/>
    <path d="M260 77H253V84H260V77Z" fill="#F9F9FB"/>
    <path d="M267 77H260V84H267V77Z" fill="#F9F9FB"/>
    <path d="M295 77H288V84H295V77Z" fill="#F9F9FB"/>
    <path d="M302 77H295V84H302V77Z" fill="#F9F9FB"/>
    <path d="M330 77H323V84H330V77Z" fill="#F9F9FB"/>
    <path d="M337 77H330V84H337V77Z" fill="#F9F9FB"/>
    <path d="M365 77H358V84H365V77Z" fill="#F9F9FB"/>
    <path d="M393 77H386V84H393V77Z" fill="#F9F9FB"/>
    <path d="M400 77H393V84H400V77Z" fill="#F9F9FB"/>
    <path d="M428 77H421V84H428V77Z" fill="#F9F9FB"/>
    <path d="M435 77H428V84H435V77Z" fill="#F9F9FB"/>
    <path d="M470 77H463V84H470V77Z" fill="#F9F9FB"/>
    <path d="M120 84H113V91H120V84Z" fill="#F9F9FB"/>
    <path d="M127 84H120V91H127V84Z" fill="#F9F9FB"/>
    <path d="M169 84H162V91H169V84Z" fill="#F9F9FB"/>
    <path d="M176 84H169V91H176V84Z" fill="#F9F9FB"/>
    <path d="M183 84H176V91H183V84Z" fill="#F9F9FB"/>
    <path d="M190 84H183V91H190V84Z" fill="#F9F9FB"/>
    <path d="M204 84H197V91H204V84Z" fill="#F9F9FB"/>
    <path d="M225 84H218V91H225V84Z" fill="#F9F9FB"/>
    <path d="M232 84H225V91H232V84Z" fill="#F9F9FB"/>
    <path d="M239 84H232V91H239V84Z" fill="#F9F9FB"/>
    <path d="M246 84H239V91H246V84Z" fill="#F9F9FB"/>
    <path d="M253 84H246V91H253V84Z" fill="#F9F9FB"/>
    <path d="M267 84H260V91H267V84Z" fill="#F9F9FB"/>
    <path d="M281 84H274V91H281V84Z" fill="#F9F9FB"/>
    <path d="M288 84H281V91H288V84Z" fill="#F9F9FB"/>
    <path d="M295 84H288V91H295V84Z" fill="#F9F9FB"/>
    <path d="M302 84H295V91H302V84Z" fill="#F9F9FB"/>
    <path d="M309 84H302V91H309V84Z" fill="#F9F9FB"/>
    <path d="M316 84H309V91H316V84Z" fill="#F9F9FB"/>
    <path d="M337 84H330V91H337V84Z" fill="#F9F9FB"/>
    <path d="M344 84H337V91H344V84Z" fill="#F9F9FB"/>
    <path d="M351 84H344V91H351V84Z" fill="#F9F9FB"/>
    <path d="M358 84H351V91H358V84Z" fill="#F9F9FB"/>
    <path d="M379 84H372V91H379V84Z" fill="#F9F9FB"/>
    <path d="M386 84H379V91H386V84Z" fill="#F9F9FB"/>
    <path d="M393 84H386V91H393V84Z" fill="#F9F9FB"/>
    <path d="M400 84H393V91H400V84Z" fill="#F9F9FB"/>
    <path d="M407 84H400V91H407V84Z" fill="#F9F9FB"/>
    <path d="M414 84H407V91H414V84Z" fill="#F9F9FB"/>
    <path d="M421 84H414V91H421V84Z" fill="#F9F9FB"/>
    <path d="M435 84H428V91H435V84Z" fill="#F9F9FB"/>
    <path d="M442 84H435V91H442V84Z" fill="#F9F9FB"/>
    <path d="M449 84H442V91H449V84Z" fill="#F9F9FB"/>
    <path d="M456 84H449V91H456V84Z" fill="#F9F9FB"/>
    <path d="M463 84H456V91H463V84Z" fill="#F9F9FB"/>
  </g>
</svg>
