<svg width="42" height="46" viewBox="0 0 42 46" fill="none" xmlns="http://www.w3.org/2000/svg">
<path d="M21.7665 45.7954C23.4597 44.738 25.1579 43.6854 26.8511 42.628C27.6176 42.1509 28.3941 41.6788 29.1405 41.1673C30.8788 39.977 32.5069 38.6196 33.9497 37.0949C36.8151 34.0751 38.9993 30.4896 40.3819 26.5943C41.5191 23.3827 42 20.0087 42 16.6151C42 14.4904 42 12.3657 42 10.241C42 10.182 42 10.1279 42 10.0689C42 9.4098 41.5291 8.83436 40.8979 8.64747C40.2867 8.46549 39.6806 8.27859 39.0945 8.0376C39.2147 8.08678 39.3349 8.13596 39.4552 8.18514C38.854 7.93431 38.2679 7.64413 37.7118 7.30969C37.4363 7.14246 37.1658 6.97032 36.9003 6.78343C36.8302 6.73425 36.765 6.68506 36.6949 6.63588C36.6648 6.61621 36.6398 6.59161 36.6097 6.57194C36.4845 6.47849 36.7901 6.71457 36.77 6.6949C36.6498 6.58178 36.5045 6.48833 36.3793 6.38505C35.8833 5.97683 35.4225 5.52926 34.9916 5.05711C34.8864 4.94398 34.7863 4.82595 34.6861 4.70791C34.631 4.64397 34.5809 4.58003 34.5258 4.51609C34.3805 4.33903 34.7462 4.80627 34.5608 4.56036C34.3655 4.30461 34.1801 4.04394 34.0048 3.77343C33.599 3.15372 33.2483 2.49959 32.9578 1.82086C33.0079 1.9389 33.058 2.05694 33.1081 2.17498C32.9578 1.82086 32.8175 1.45691 32.6973 1.09296C32.4919 0.47325 31.9308 0.0109296 31.2495 0.0109296C30.5682 0.0109296 29.8869 0.0109296 29.2056 0.0109296C27.5725 0.0109296 25.9344 0.0109296 24.3013 0.0109296C22.3325 0.0109296 20.3638 0.0109296 18.395 0.0109296C16.6868 0.0109296 14.9785 0.0109296 13.2703 0.0109296C12.4437 0.0109296 11.6121 -0.0136619 10.7855 0.0109296C10.7755 0.0109296 10.7605 0.0109296 10.7505 0.0109296C10.0692 0.0109296 9.5031 0.47325 9.30272 1.09296C9.18249 1.46183 9.04723 1.82086 8.89194 2.17498C8.94203 2.05694 8.99213 1.9389 9.04222 1.82086C8.78674 2.41106 8.48616 2.9865 8.14551 3.53243C7.97519 3.80294 7.79485 4.06853 7.60448 4.3292C7.55439 4.39805 7.50429 4.46199 7.4542 4.53085C7.43416 4.56036 7.40911 4.58495 7.38907 4.61446C7.29389 4.73742 7.53435 4.4374 7.51431 4.45707C7.39909 4.57019 7.30391 4.71774 7.19871 4.8407C6.78292 5.32761 6.32705 5.7801 5.84113 6.19815C5.72591 6.30144 5.60568 6.3998 5.48545 6.49325C5.42032 6.54735 5.3552 6.59653 5.29008 6.64572C5.10973 6.78835 5.58564 6.42931 5.33516 6.60637C5.07467 6.79818 4.80916 6.98016 4.53364 7.1523C3.90243 7.55068 3.23616 7.89005 2.54485 8.18023C2.66508 8.13104 2.78531 8.08186 2.90553 8.03268C2.31441 8.27367 1.71326 8.46057 1.1021 8.64255C0.465887 8.82944 0 9.40488 0 10.0639C0 12.0411 0 14.0182 0 15.9954C0 17.0381 0 18.0808 0.0751431 19.1234C0.230439 21.199 0.591126 23.2696 1.18726 25.2664C2.36951 29.2306 4.40339 32.8947 7.10854 36.0522C9.22758 38.5212 11.7774 40.523 14.5477 42.2493C16.3962 43.4002 18.2448 44.5511 20.0933 45.7019C20.1384 45.7314 20.1885 45.761 20.2335 45.7905C20.8998 46.2036 21.9218 45.9478 22.2875 45.2593C22.6782 44.5314 22.4578 43.6805 21.7464 43.2428C19.8829 42.0821 18.0193 40.9213 16.1558 39.7606C15.9103 39.6082 15.6648 39.4557 15.4194 39.3032C15.0336 39.0622 14.6479 38.8114 14.2722 38.5507C14.0468 38.3933 13.8213 38.231 13.5959 38.0687C13.4957 37.995 13.3955 37.9163 13.2953 37.8425C13.7111 38.1523 13.2853 37.8327 13.1851 37.754C12.3135 37.0703 11.4869 36.3375 10.7054 35.5604C9.93893 34.7931 9.16245 33.9865 8.52123 33.116C8.52624 33.1209 8.76169 33.4259 8.62142 33.239C8.56131 33.1603 8.50119 33.0865 8.44108 33.0078C8.35091 32.8898 8.26574 32.7717 8.17557 32.6537C8.00024 32.4176 7.82991 32.1815 7.6646 31.9405C7.31894 31.4389 6.98831 30.9274 6.67772 30.4011C6.05153 29.3535 5.50048 28.2666 5.01956 27.1501C5.06966 27.2681 5.11975 27.3862 5.16985 27.5042C4.19299 25.2271 3.52672 22.8368 3.19108 20.3874C3.21112 20.5202 3.22614 20.6481 3.24618 20.7809C3.03077 19.1874 2.99571 17.5939 2.99571 15.9954C2.99571 14.4412 2.99571 12.887 2.99571 11.3329C2.99571 10.9099 2.99571 10.4918 2.99571 10.0689C2.63001 10.541 2.2593 11.0181 1.89361 11.4902C3.58182 10.9935 5.20491 10.3246 6.64265 9.31144C8.31083 8.13596 9.72853 6.66539 10.7855 4.93415C11.3717 3.97508 11.8375 2.93732 12.1832 1.87497C11.7023 2.234 11.2164 2.59796 10.7354 2.95699C11.4167 2.95699 12.098 2.95699 12.7793 2.95699C14.4125 2.95699 16.0506 2.95699 17.6837 2.95699C19.6524 2.95699 21.6212 2.95699 23.5899 2.95699C25.2982 2.95699 27.0064 2.95699 28.7147 2.95699C29.5413 2.95699 30.3729 2.98158 31.1994 2.95699C31.2094 2.95699 31.2245 2.95699 31.2345 2.95699C30.7536 2.59796 30.2677 2.234 29.7867 1.87497C31.0291 5.61779 33.8094 8.83928 37.4413 10.5164C38.303 10.9148 39.1947 11.2247 40.1064 11.4902C39.7407 11.0181 39.37 10.541 39.0043 10.0689C39.0043 11.1706 39.0043 12.2723 39.0043 13.374C39.0043 14.5986 39.0043 15.8233 39.0043 17.043C39.0043 18.2923 38.9191 19.5415 38.7538 20.7809C38.7739 20.6481 38.7889 20.5202 38.8089 20.3874C38.4683 22.8318 37.802 25.2271 36.8302 27.5042C36.8802 27.3862 36.9303 27.2681 36.9804 27.1501C36.1238 29.1371 35.0367 31.0257 33.7343 32.7717C33.6591 32.8701 33.589 32.9685 33.5138 33.0619C33.4437 33.1554 33.1531 33.5046 33.4788 33.1111C33.2934 33.3373 33.1081 33.5685 32.9227 33.7947C32.572 34.2079 32.2114 34.6112 31.8406 35.0046C31.0942 35.7916 30.2977 36.5391 29.4611 37.2375C29.2507 37.4146 29.0353 37.5867 28.8199 37.754C28.7197 37.8327 28.6195 37.9064 28.5243 37.9851C28.9351 37.6605 28.5043 37.9999 28.4091 38.0687C27.9633 38.3983 27.5074 38.713 27.0415 39.013C26.7409 39.2049 26.4404 39.3967 26.1348 39.5836C25.0427 40.2623 23.9506 40.941 22.8585 41.6247C21.9919 42.1657 21.1252 42.7018 20.2586 43.2428C19.5973 43.6559 19.2667 44.5756 19.7176 45.2593C20.1384 45.9183 21.0601 46.238 21.7665 45.7954Z" fill="#00BECC"/>
<path d="M11.1569 22.5531C12.8702 24.2352 14.5834 25.9172 16.3017 27.6042C16.5472 27.8452 16.7927 28.0862 17.0331 28.3223C17.6092 28.8879 18.5811 28.8879 19.1572 28.3223C20.4797 27.0238 21.8072 25.7205 23.1297 24.4221C25.2237 22.3662 27.3227 20.3054 29.4167 18.2496C29.8976 17.7774 30.3835 17.3004 30.8644 16.8282C31.4205 16.2823 31.4606 15.2789 30.8644 14.7428C30.2633 14.2018 29.3315 14.1576 28.7404 14.7428C27.4179 16.0413 26.0904 17.3446 24.7678 18.643C22.6739 20.6989 20.5749 22.7597 18.4809 24.8155C18 25.2877 17.514 25.7648 17.0331 26.2369C17.7395 26.2369 18.4508 26.2369 19.1572 26.2369C17.4439 24.5548 15.7306 22.8728 14.0124 21.1858C13.7669 20.9448 13.5214 20.7038 13.281 20.4677C12.7249 19.9218 11.703 19.8825 11.1569 20.4677C10.6059 21.053 10.5608 21.9678 11.1569 22.5531Z" fill="#00BECC"/>
</svg>
