<svg width="44" height="44" viewBox="0 0 44 44" fill="none" xmlns="http://www.w3.org/2000/svg">
<path fill-rule="evenodd" clip-rule="evenodd" d="M26.7219 2.68713H41.2194V17.1847H26.7219V2.68713ZM10.7084 25.9896L15.3697 34.0644L20.031 42.1393H1.38574L6.04707 34.0644L10.7084 25.9896ZM10.7084 1.29492C15.4811 1.29492 19.3504 5.16423 19.3504 9.93694C19.3504 14.7096 15.4811 18.5789 10.7084 18.5789C5.93569 18.5789 2.06638 14.7096 2.06638 9.93694C2.06638 5.16423 5.93569 1.29492 10.7084 1.29492ZM33.9696 25.4224C38.7423 25.4224 42.6116 29.2917 42.6116 34.0644C42.6116 38.8371 38.7423 42.7065 33.9696 42.7065C29.1969 42.7065 25.3276 38.8371 25.3276 34.0644C25.3276 29.2917 29.1969 25.4224 33.9696 25.4224Z" fill="#00BECC"/>
</svg>
