<svg width="36" height="36" viewBox="0 0 36 36" fill="none" xmlns="http://www.w3.org/2000/svg">
<path d="M18.1098 5.20001C25.1103 5.20001 30.7999 11.0507 30.7999 17.9968C30.7999 24.9408 25.1146 30.7861 18.1066 30.7861L5.19995 30.8V17.776C5.19995 10.832 11.1008 5.20001 18.1098 5.20001ZM18.2336 10.0672C16.8742 10.0657 15.5376 10.4155 14.3533 11.0827C13.169 11.7499 12.1772 12.7119 11.4741 13.8752C10.7768 15.0331 10.3953 16.3535 10.3676 17.7048C10.3399 19.0561 10.667 20.3911 11.3162 21.5765L9.89328 26.1173L15.0069 24.9717C16.4378 25.6111 18.0262 25.8115 19.5711 25.5476C21.116 25.2837 22.5478 24.5673 23.6853 23.4891C24.8164 22.4187 25.5984 21.032 25.929 19.5101C26.2595 17.9883 26.1233 16.4021 25.5381 14.9589C24.9462 13.5106 23.9359 12.2717 22.6362 11.4005C21.3366 10.5293 19.8067 10.0655 18.2421 10.0683L18.2336 10.0672Z" fill="#00BECC"/>
</svg>
