<svg width="59" height="58" viewBox="0 0 59 58" fill="none" xmlns="http://www.w3.org/2000/svg">
<g clip-path="url(#clip0_1898_9838)">
<path d="M53.9858 0H4.57992C2.0505 0 0 2.03069 0 4.53568V53.4643C0 55.9693 2.0505 58 4.57992 58H53.9858C56.5153 58 58.5658 55.9693 58.5658 53.4643V4.53568C58.5658 2.03069 56.5153 0 53.9858 0Z" fill="#00BECC"/>
<path d="M9.33203 29.2658L16.1409 18.0859L22.9 29.2658L16.1409 33.3356L9.33203 29.2658Z" fill="#222222"/>
<path d="M16.1409 34.5621L9.33203 30.4922L16.1409 39.9558L22.9 30.4922L16.1409 34.5621Z" fill="#222222"/>
<path d="M26.6631 35.8315V33.4304H29.4883V24.6H26.6631V22.2188H35.6598V24.6H32.8345V33.4304H35.6598V35.8315H26.6631ZM38.2367 35.8315V22.2188H43.4864C44.2746 22.2188 45.0026 22.3246 45.6705 22.5362C46.3518 22.7479 46.9395 23.0654 47.4338 23.4887C47.928 23.9121 48.3154 24.4412 48.5959 25.0762C48.8764 25.698 49.0167 26.419 49.0167 27.2392V30.811C49.0167 31.618 48.8764 32.339 48.5959 32.974C48.3154 33.5958 47.928 34.1183 47.4338 34.5416C46.9395 34.965 46.3518 35.2891 45.6705 35.514C45.0026 35.7256 44.2746 35.8315 43.4864 35.8315H38.2367ZM41.603 33.2915H43.2059C43.7002 33.2915 44.1276 33.2187 44.4883 33.0732C44.849 32.9277 45.1228 32.6895 45.3098 32.3588C45.5102 32.0281 45.6104 31.5717 45.6104 30.9896V27.0407C45.6104 26.4586 45.5102 26.0022 45.3098 25.6715C45.1228 25.3276 44.849 25.0829 44.4883 24.9373C44.1276 24.7918 43.7002 24.719 43.2059 24.719H41.603V33.2915Z" fill="#222222"/>
</g>
<defs>
<clipPath id="clip0_1898_9838">
<rect width="59" height="58" fill="white"/>
</clipPath>
</defs>
</svg>
