<svg width="206" height="77" viewBox="0 0 206 77" fill="none" xmlns="http://www.w3.org/2000/svg">
<path d="M15.4996 23.2352C15.0996 23.2352 14.9996 23.0352 15.1996 22.7352L17.2996 20.0352C17.4996 19.7352 17.9996 19.5352 18.3996 19.5352H54.0996C54.4996 19.5352 54.5996 19.8352 54.3996 20.1352L52.6996 22.7352C52.4996 23.0352 51.9996 23.3352 51.6996 23.3352L15.4996 23.2352Z" fill="#00BECC"/>
<path d="M0.400001 32.4344C8.34465e-07 32.4344 -0.1 32.2344 0.0999997 31.9344L2.2 29.2344C2.4 28.9344 2.9 28.7344 3.3 28.7344H48.9C49.3 28.7344 49.5 29.0344 49.4 29.3344L48.6 31.7344C48.5 32.1344 48.1 32.3344 47.7 32.3344L0.400001 32.4344Z" fill="#00BECC"/>
<path d="M24.5992 41.6336C24.1992 41.6336 24.0992 41.3336 24.2992 41.0336L25.6992 38.5336C25.8992 38.2336 26.2992 37.9336 26.6992 37.9336H46.6992C47.0992 37.9336 47.2992 38.2336 47.2992 38.6336L47.0992 41.0336C47.0992 41.4336 46.6992 41.7336 46.3992 41.7336L24.5992 41.6336Z" fill="#00BECC"/>
<path d="M128.401 21.4343C122.101 23.0343 117.801 24.2343 111.601 25.8343C110.101 26.2343 110.001 26.3343 108.701 24.8343C107.201 23.1343 106.101 22.0343 104.001 21.0343C97.7007 17.9343 91.6007 18.8343 85.9007 22.5343C79.1007 26.9343 75.6007 33.4343 75.7007 41.5343C75.8007 49.5343 81.3007 56.1343 89.2007 57.2343C96.0007 58.1343 101.701 55.7343 106.201 50.6343C107.101 49.5343 107.901 48.3343 108.901 46.9343C105.301 46.9343 100.801 46.9343 89.6007 46.9343C87.5007 46.9343 87.0007 45.6343 87.7007 43.9343C89.0007 40.8343 91.4007 35.6343 92.8007 33.0343C93.1007 32.4343 93.8007 31.4343 95.3007 31.4343C100.401 31.4343 119.201 31.4343 131.701 31.4343C131.501 34.1343 131.501 36.8343 131.101 39.5343C130.001 46.7343 127.301 53.3343 122.901 59.1343C115.701 68.6343 106.301 74.5343 94.4007 76.1343C84.6007 77.4343 75.5007 75.5343 67.5007 69.5343C60.1007 63.9343 55.9007 56.5343 54.8007 47.3343C53.5007 36.4343 56.7007 26.6343 63.3007 18.0343C70.4007 8.73433 79.8007 2.83433 91.3007 0.734326C100.701 -0.965674 109.701 0.134328 117.801 5.63433C123.101 9.13433 126.901 13.9343 129.401 19.7343C130.001 20.6343 129.601 21.1343 128.401 21.4343Z" fill="#00BECC"/>
<path d="M161.5 76.7341C152.4 76.5341 144.1 73.9341 137.1 67.9341C131.2 62.8341 127.5 56.3341 126.3 48.6341C124.5 37.3341 127.6 27.3341 134.4 18.4341C141.7 8.83413 150.5 3.83412 162.4 1.73412C172.6 -0.0658752 182.2 0.934123 190.9 6.83412C198.8 12.2341 203.7 19.5341 205 29.1341C206.7 42.6341 202.8 53.6341 193.5 63.0341C186.9 69.7341 178.8 73.9341 169.5 75.8341C166.8 76.3341 164.1 76.4341 161.5 76.7341ZM185.3 36.3341C185.2 35.0341 185.2 34.0341 185 33.0341C183.2 23.1341 174.1 17.5341 164.6 19.7341C155.3 21.8341 149.3 27.7341 147.1 37.1341C145.3 44.9341 149.1 52.8341 156.3 56.0341C161.8 58.4341 167.3 58.1341 172.6 55.4341C180.5 51.3341 184.8 44.9341 185.3 36.3341Z" fill="#00BECC"/>
</svg>
