<svg width="36" height="36" viewBox="0 0 36 36" fill="none" xmlns="http://www.w3.org/2000/svg">
<path d="M17.0609 32.7688V6.12432L21.2591 3.23001V30.4551L17.0609 32.7688Z" fill="#00BECC"/>
<path d="M15.9021 11.918V15.538C15.9021 15.538 7.60332 16.19 7.07025 22.4904C7.07025 22.4904 5.90652 27.9912 15.9021 29.7293V32.77C15.9021 32.77 1.85473 31.3248 2.00114 22.3453C2.00114 22.3453 1.85598 13.2218 15.9021 11.918Z" fill="#00BECC"/>
<path d="M22.2715 11.918V15.299C22.2715 15.299 24.9518 15.2628 27.1942 17.1297L24.7366 18.1396L34.0001 20.4608V13.2206L30.838 15.01C30.838 15.01 28.1389 12.1732 22.2715 11.918Z" fill="#00BECC"/>
</svg>
