<svg width="36" height="36" viewBox="0 0 36 36" fill="none" xmlns="http://www.w3.org/2000/svg">
<path d="M12.1369 17.349C12.4953 17.2842 12.8588 17.2515 13.2231 17.2514L12.9304 17.25H22.6638C23.0859 17.25 23.4893 17.1921 23.8739 17.0855C25.6898 16.5827 27 14.9727 27 12.9921V4.81487C27 2.48687 25.0172 0.73824 22.6604 0.351802C21.1669 0.105802 18.98 -0.00697893 17.4958 0.000333574C16.0118 0.00839608 14.5913 0.131959 13.3448 0.351802C9.66966 0.991459 9 2.33696 9 4.81487V7.49996H18V8.99996H6.07688C2.73675 8.99996 0.0264379 12.991 0.000656605 17.9289C0.000469105 17.9526 0 17.9762 0 18C0 18.8927 0.0881248 19.755 0.251719 20.5691C0.99825 24.2878 3.32353 27 6.07688 27H7.5V22.6936C7.5 20.1785 9.38869 17.8436 12.1369 17.349ZM13.0928 5.9064C12.1935 5.9064 11.463 5.17655 11.463 4.27487C11.463 3.36887 12.1918 2.63237 13.0928 2.63237C13.9903 2.63237 14.7239 3.36877 14.7239 4.27487C14.724 5.17655 13.9918 5.9064 13.0928 5.9064Z" fill="#00BECC"/>
<path d="M35.6204 14.8634C34.7606 11.4395 32.5343 9 29.9231 9H28.5V12.813C28.5 15.9925 26.4107 18.2949 23.8604 18.6893C23.6029 18.7295 23.3428 18.7498 23.0822 18.7499H13.3454C12.9326 18.7495 12.5214 18.8022 12.1221 18.9067C10.3294 19.3771 9 20.8687 9 22.8034V30.9809C9 33.3089 11.3416 34.6771 13.6388 35.3451C16.3883 36.1448 19.3826 36.2889 22.6732 35.3451C24.8578 34.7207 27 33.4587 27 30.9809V28.5H18V27H29.9231C32.2894 27 34.3394 24.997 35.3432 22.0735C35.7632 20.8504 36 19.4663 36 18C36 16.8967 35.8657 15.8402 35.6204 14.8634ZM22.8625 29.8894C23.7616 29.8894 24.492 30.6192 24.492 31.5206C24.492 32.4253 23.7616 33.1632 22.8625 33.1632C21.9647 33.1632 21.2314 32.4253 21.2314 31.5206C21.2314 30.6178 21.9632 29.8894 22.8625 29.8894Z" fill="#00BECC"/>
</svg>
