<svg width="40" height="40" viewBox="0 0 40 40" fill="none" xmlns="http://www.w3.org/2000/svg">
<path d="M11.8194 34.0617L34.9994 37.2267L27.1619 24.1755L11.8194 34.0617ZM37.1931 9.63047C36.5081 10.6592 35.8219 11.6867 35.1381 12.7155C32.7894 16.2492 30.4406 19.783 28.0944 23.318C27.9631 23.5155 27.7944 23.6717 27.9781 23.9742C30.2456 27.718 32.4944 31.473 34.7494 35.2242C35.1056 35.8167 35.4644 36.4067 35.9256 36.9755L37.2931 9.66047L37.1931 9.63047ZM6.24313 21.303C6.34938 21.4042 6.61313 21.4617 6.73688 21.4017C8.91188 20.333 11.1006 19.288 13.2269 18.1305C13.9206 17.753 14.4544 17.078 15.0519 16.5292C17.0306 14.7142 19.0069 12.8955 20.9819 11.0767C21.1031 10.9655 21.2456 10.8567 21.3181 10.7167C22.0281 9.33047 22.7244 7.93672 23.4469 6.50297C22.5856 6.17922 21.7706 5.86297 20.9444 5.57547C20.8331 5.53672 20.6556 5.61422 20.5344 5.68172C18.6219 6.74922 16.6744 7.76047 14.8231 8.92547C13.8969 9.50797 13.1419 10.368 12.3219 11.1155C10.997 12.3193 9.68196 13.5339 8.37688 14.7592C8.02898 15.0884 7.71721 15.4538 7.44688 15.8492C6.55563 17.1467 5.69188 18.463 4.78813 19.8155C5.29313 20.3392 5.75313 20.8392 6.24438 21.3042L6.24313 21.303ZM14.1906 19.5305L10.9219 33.3392L26.2794 23.4442L14.1906 19.5317V19.5305ZM35.8644 9.67422L22.8119 11.8542L27.2419 22.6292L35.8656 9.67422H35.8644ZM14.3719 18.5955L26.2206 22.4417C24.7601 18.8841 23.2993 15.3266 21.8381 11.7692L14.3719 18.5955ZM6.40688 23.968L2.26063 33.8805L10.1581 33.6467L6.40688 23.968ZM10.2506 31.3492L10.3494 31.328C11.2969 27.3855 12.2594 23.4692 13.2281 19.3717L6.89188 22.6655C7.97188 25.473 9.12188 28.4342 10.2506 31.3492ZM34.2706 9.03547L30.4869 8.03422C28.6731 7.55797 26.8581 7.08672 25.0456 6.60547C24.8194 6.54547 24.6556 6.50547 24.5219 6.77922C23.8819 8.09172 23.2206 9.39422 22.5706 10.7017C22.5506 10.7417 22.5544 10.7942 22.5394 10.8955L34.2681 9.11797L34.2706 9.03547ZM26.9544 6.05047L37.2331 8.89422L35.5344 4.05422L26.9694 5.95297L26.9544 6.05047ZM11.1231 34.8192C9.84938 34.673 8.54313 34.808 7.25188 34.8292C6.19063 34.848 5.13063 34.888 4.07063 34.9205C4.00894 34.9189 3.94766 34.9308 3.89108 34.9554C3.8345 34.98 3.784 35.0167 3.74313 35.063L30.0481 37.4955L30.0656 37.378L21.6331 36.2267C18.1306 35.748 14.6344 35.2242 11.1231 34.8192ZM2.43313 30.8555C3.56313 28.2342 4.68813 25.6092 5.82313 22.9905C5.93688 22.728 5.92813 22.5492 5.70563 22.338C5.23063 21.8867 4.79063 21.3992 4.27188 20.8605L2.20312 31.0742L2.27938 31.1105C2.33188 31.0267 2.39562 30.9467 2.43437 30.8567L2.43313 30.8555ZM24.7031 5.35797C26.6081 4.86672 28.5419 4.48172 30.4631 4.05297C30.5869 4.02547 30.7094 3.98422 30.8319 3.94922L30.8131 3.85547L22.5556 4.96672C23.3306 5.30547 23.9281 5.55672 24.7031 5.35797Z" fill="#00BECC"/>
</svg>
