<svg width="36" height="36" viewBox="0 0 36 36" fill="none" xmlns="http://www.w3.org/2000/svg">
<g clip-path="url(#clip0_1906_10592)">
<path d="M0.248105 18.4373L1.76011 19.3748C1.77211 19.5218 1.78711 19.6703 1.80211 19.8158L0.503105 21.0278C0.438854 21.0882 0.391007 21.164 0.364056 21.2479C0.337105 21.3319 0.331935 21.4214 0.349029 21.5079C0.366123 21.5944 0.404922 21.6752 0.461784 21.7426C0.518646 21.81 0.591706 21.8619 0.674105 21.8933L0.677105 21.8948L2.33611 22.5158C2.37661 22.6598 2.42161 22.8023 2.46661 22.9448L1.43161 24.3833C1.37945 24.4552 1.3466 24.5392 1.3362 24.6274C1.3258 24.7156 1.3382 24.8049 1.37221 24.887C1.40623 24.969 1.46071 25.0409 1.53047 25.0959C1.60022 25.1508 1.6829 25.1869 1.77061 25.2008H1.77361L3.52261 25.4843C3.59011 25.6163 3.66061 25.7468 3.73411 25.8773L2.99761 27.4928C2.9614 27.5719 2.94565 27.6589 2.95183 27.7456C2.95801 27.8324 2.9859 27.9163 3.03295 27.9895C3.08 28.0626 3.14469 28.1228 3.22108 28.1645C3.29747 28.2061 3.3831 28.2279 3.47011 28.2278H3.49111L5.26411 28.1648C5.35711 28.2803 5.44861 28.3943 5.54461 28.5068L5.13961 30.2393C5.11893 30.3257 5.12087 30.4161 5.14524 30.5016C5.16961 30.587 5.21559 30.6648 5.27874 30.7273C5.3419 30.7899 5.4201 30.8351 5.50581 30.8587C5.59152 30.8822 5.68186 30.8833 5.76811 30.8618H5.76511L7.4946 30.4553C7.6071 30.5513 7.7211 30.6428 7.8366 30.7343L7.77511 32.5118V32.5343C7.77524 32.6214 7.7974 32.707 7.83953 32.7832C7.88165 32.8594 7.94237 32.9237 8.01603 32.9701C8.08969 33.0165 8.1739 33.0435 8.26081 33.0486C8.34772 33.0537 8.43451 33.0368 8.51311 32.9993L8.5101 33.0008L10.1241 32.2658C10.2546 32.3393 10.3851 32.4083 10.5171 32.4773L10.8021 34.2278C10.8167 34.3151 10.8533 34.3972 10.9084 34.4664C10.9635 34.5357 11.0352 34.5898 11.117 34.6237C11.1987 34.6576 11.2877 34.6702 11.3756 34.6602C11.4636 34.6502 11.5475 34.6181 11.6196 34.5668L11.6181 34.5683L13.0566 33.5318C13.1991 33.5768 13.3401 33.6218 13.4841 33.6623L14.1051 35.3228C14.1356 35.4062 14.187 35.4803 14.2545 35.5381C14.3219 35.5959 14.4031 35.6353 14.4901 35.6526C14.5772 35.6699 14.6673 35.6646 14.7517 35.637C14.8361 35.6095 14.912 35.5607 14.9721 35.4953L16.1841 34.1963C16.3296 34.2128 16.4766 34.2263 16.6251 34.2398L17.5611 35.7518C17.6541 35.9033 17.8161 35.9993 18.0021 35.9993C18.0901 35.9993 18.1767 35.977 18.2538 35.9345C18.3309 35.892 18.3961 35.8307 18.4431 35.7563L18.4446 35.7548L19.3806 34.2428C19.5276 34.2293 19.6746 34.2158 19.8216 34.1993L21.0321 35.4983C21.0929 35.5621 21.1688 35.6096 21.2528 35.6363C21.3367 35.663 21.4261 35.668 21.5126 35.651C21.599 35.6339 21.6798 35.5953 21.7474 35.5387C21.8149 35.4821 21.8671 35.4094 21.8991 35.3273L21.9006 35.3243L22.5216 33.6638C22.6656 33.6233 22.8081 33.5783 22.9491 33.5333L24.3876 34.5698C24.4594 34.6216 24.5434 34.6541 24.6313 34.6643C24.7193 34.6746 24.8084 34.6621 24.8902 34.6281C24.972 34.5941 25.0438 34.5398 25.0986 34.4702C25.1535 34.4007 25.1896 34.3183 25.2036 34.2308V34.2278L25.4886 32.4773C25.6206 32.4098 25.7511 32.3378 25.8816 32.2658L27.4956 33.0008C27.575 33.0363 27.662 33.0514 27.7487 33.0447C27.8355 33.038 27.9191 33.0098 27.9921 32.9625C28.0652 32.9153 28.1252 32.8505 28.1669 32.7742C28.2085 32.6978 28.2304 32.6123 28.2306 32.5253V32.5103L28.1676 30.7328C28.2831 30.6413 28.3971 30.5483 28.5081 30.4538L30.2376 30.8618C30.3239 30.8817 30.4139 30.8792 30.499 30.8547C30.5842 30.8302 30.6617 30.7845 30.7242 30.7218C30.7868 30.659 30.8324 30.5814 30.8567 30.4962C30.881 30.4111 30.8832 30.3211 30.8631 30.2348V30.2378L30.4566 28.5053C30.5511 28.3928 30.6456 28.2788 30.7356 28.1633L32.5116 28.2263H32.5356C32.6228 28.2264 32.7086 28.2044 32.785 28.1624C32.8614 28.1204 32.9259 28.0597 32.9725 27.986C33.0191 27.9123 33.0462 27.828 33.0514 27.741C33.0566 27.6539 33.0396 27.567 33.0021 27.4883L33.0036 27.4913L32.2686 25.8758C32.3406 25.7453 32.4111 25.6148 32.4801 25.4828L34.2291 25.1993C34.3163 25.1842 34.3982 25.1473 34.4672 25.092C34.5362 25.0366 34.5901 24.9647 34.6238 24.8829C34.6575 24.8011 34.67 24.7121 34.66 24.6242C34.65 24.5363 34.6178 24.4524 34.5666 24.3803L34.5681 24.3818L33.5331 22.9433L33.6636 22.5143L35.3226 21.8933C35.4055 21.8623 35.4792 21.8107 35.5366 21.7433C35.594 21.6759 35.6332 21.595 35.6507 21.5082C35.6681 21.4214 35.6631 21.3316 35.6361 21.2473C35.6092 21.1629 35.5611 21.0869 35.4966 21.0263L34.1976 19.8143C34.2126 19.6688 34.2276 19.5203 34.2396 19.3733L35.7501 18.4373C35.8256 18.3909 35.8879 18.3261 35.9312 18.2488C35.9745 18.1716 35.9973 18.0845 35.9974 17.996C35.9976 17.9074 35.9751 17.8203 35.932 17.7429C35.889 17.6655 35.8269 17.6004 35.7516 17.5538L35.7501 17.5523L35.7471 17.5568L34.2366 16.6208C34.2237 16.4732 34.2102 16.3257 34.1961 16.1783L35.4936 14.9693C35.5574 14.9085 35.6049 14.8326 35.6316 14.7486C35.6583 14.6647 35.6633 14.5753 35.6463 14.4888C35.6292 14.4024 35.5906 14.3216 35.534 14.254C35.4774 14.1865 35.4047 14.1343 35.3226 14.1023L35.3196 14.0993L33.6606 13.4783C33.6204 13.3335 33.5774 13.1894 33.5316 13.0463L34.5651 11.6108C34.6164 11.539 34.6487 11.4554 34.6588 11.3678C34.669 11.2801 34.6567 11.1913 34.6231 11.1097C34.5895 11.0282 34.5357 10.9564 34.4668 10.9014C34.3979 10.8463 34.3161 10.8096 34.2291 10.7948H34.2261L32.4771 10.5113C32.3901 10.3388 32.3271 10.2248 32.2671 10.1153L33.0006 8.5028C33.038 8.42244 33.0539 8.33379 33.0468 8.24546C33.0397 8.15714 33.0098 8.07215 32.9601 7.9988C32.9105 7.92529 32.843 7.86556 32.7641 7.82516C32.6851 7.78477 32.5972 7.76503 32.5086 7.7678L30.7326 7.8293C30.6383 7.70959 30.5413 7.59206 30.4416 7.4768L30.4521 7.4888L30.8601 5.7578C30.8805 5.67126 30.8784 5.58093 30.854 5.49543C30.8296 5.40993 30.7837 5.33211 30.7207 5.26939C30.6576 5.20667 30.5796 5.16114 30.494 5.13714C30.4084 5.11314 30.318 5.11147 30.2316 5.1323H30.2346L28.5051 5.5403L28.2036 5.2898L28.1646 5.2598L28.2276 3.4823V3.4583C28.2277 3.37111 28.2057 3.28531 28.1637 3.20892C28.1217 3.13252 28.061 3.06802 27.9873 3.02143C27.9136 2.97485 27.8293 2.94769 27.7423 2.94251C27.6552 2.93733 27.5683 2.95429 27.4896 2.9918L27.4926 2.9903L25.8786 3.7268C25.7484 3.65482 25.6174 3.58432 25.4856 3.5153L25.2006 1.7633C25.1855 1.67613 25.1486 1.59421 25.0933 1.52518C25.0379 1.45615 24.966 1.40227 24.8842 1.36856C24.8024 1.33486 24.7134 1.32243 24.6255 1.33244C24.5376 1.34245 24.4537 1.37457 24.3816 1.4258L24.3831 1.4243L22.9431 2.4608C22.8316 2.42071 22.7185 2.38518 22.6041 2.3543L22.5141 2.3318L21.8931 0.671297C21.861 0.589514 21.809 0.517085 21.7416 0.460645C21.6743 0.404205 21.5939 0.365558 21.5078 0.348244C21.4217 0.33093 21.3326 0.335503 21.2487 0.361544C21.1648 0.387585 21.0888 0.434261 21.0276 0.497297L19.8171 1.7993C19.6874 1.78373 19.5573 1.77073 19.4271 1.7603L19.3776 1.7573L18.4416 0.245297C18.3945 0.170876 18.3293 0.109558 18.2521 0.0670205C18.175 0.0244833 18.0884 0.00210345 18.0003 0.00195388C17.9122 0.00180431 17.8255 0.0238899 17.7482 0.0661649C17.6709 0.10844 17.6055 0.169537 17.5581 0.243797L17.5566 0.245297L16.6206 1.7573C16.4751 1.7693 16.3266 1.7843 16.1811 1.7993L14.9691 0.498797C14.9087 0.434545 14.8329 0.386698 14.749 0.359747C14.665 0.332797 14.5755 0.327626 14.489 0.34472C14.4025 0.361815 14.3217 0.400614 14.2543 0.457475C14.1869 0.514337 14.135 0.587397 14.1036 0.669797L14.1021 0.672797L13.4811 2.3333C13.3371 2.3738 13.1961 2.4188 13.0536 2.4623L11.6151 1.4258C11.5432 1.37487 11.4597 1.34296 11.3721 1.33303C11.2846 1.32311 11.196 1.33549 11.1146 1.36903C11.0331 1.40256 10.9615 1.45616 10.9063 1.52484C10.8512 1.59352 10.8143 1.67503 10.7991 1.7618V1.7648L10.5141 3.5168C10.3416 3.6038 10.2276 3.6668 10.1181 3.7268L8.50561 2.9903C8.42649 2.95409 8.33955 2.93835 8.25276 2.94452C8.16598 2.9507 8.08214 2.97859 8.00895 3.02564C7.93577 3.07269 7.87558 3.13738 7.83393 3.21377C7.79228 3.29016 7.77051 3.37579 7.7706 3.4628V3.4823L7.83361 5.2598C7.7179 5.35171 7.60388 5.44573 7.4916 5.5418L5.76211 5.1323C5.67562 5.11233 5.58548 5.11474 5.50018 5.1393C5.41489 5.16387 5.33727 5.20977 5.27466 5.27269C5.21205 5.3356 5.16651 5.41344 5.14236 5.49884C5.1182 5.58425 5.11622 5.67441 5.13661 5.7608V5.7593L5.54311 7.4903C5.44861 7.6013 5.35411 7.7153 5.26411 7.8293L3.48661 7.7678H3.46711C3.37983 7.76772 3.29395 7.78965 3.21739 7.83156C3.14084 7.87347 3.0761 7.93401 3.02914 8.00758C2.98219 8.08115 2.95455 8.16537 2.94877 8.25246C2.943 8.33954 2.95928 8.42667 2.99611 8.5058L2.99461 8.5028L3.73111 10.1183C3.69511 10.1783 3.62461 10.3073 3.55711 10.4363L3.52111 10.5113L1.77061 10.7948C1.68344 10.8099 1.60151 10.8468 1.53249 10.9021C1.46346 10.9575 1.40958 11.0294 1.37587 11.1112C1.34217 11.193 1.32974 11.282 1.33975 11.3699C1.34975 11.4578 1.38187 11.5417 1.43311 11.6138L2.46811 13.0508C2.42311 13.1933 2.37961 13.3343 2.33761 13.4798L0.678605 14.1008C0.596823 14.1329 0.524394 14.1849 0.467954 14.2523C0.411514 14.3196 0.372867 14.4 0.355553 14.4861C0.338239 14.5722 0.342812 14.6613 0.368853 14.7452C0.394893 14.8291 0.44157 14.9051 0.504605 14.9663L1.80361 16.1768C1.78804 16.3065 1.77504 16.4366 1.76461 16.5668L1.76161 16.6163L0.251105 17.5523C0.174527 17.5979 0.111058 17.6625 0.0668821 17.7399C0.0227061 17.8173 -0.000671505 17.9048 -0.000973597 17.9939C-0.00127569 18.0831 0.021508 18.1707 0.0651583 18.2484C0.108809 18.3261 0.171837 18.3912 0.248105 18.4373ZM10.2606 30.0413L10.2531 30.0428C10.1156 30.0727 9.97357 30.0753 9.83508 30.0504C9.69659 30.0254 9.56438 29.9734 9.44598 29.8974C9.20688 29.7438 9.03857 29.5015 8.97811 29.2238C8.91764 28.9461 8.96995 28.6558 9.12354 28.4167C9.27714 28.1776 9.51942 28.0093 9.79711 27.9488L9.8046 27.9473C9.9421 27.9174 10.0841 27.9148 10.2226 27.9397C10.3611 27.9647 10.4933 28.0167 10.6117 28.0927C10.7301 28.1688 10.8324 28.2674 10.9127 28.383C10.9929 28.4986 11.0497 28.6288 11.0796 28.7663C11.1095 28.9038 11.1121 29.0458 11.0872 29.1843C11.0622 29.3228 11.0102 29.455 10.9342 29.5734C10.8581 29.6918 10.7595 29.7941 10.6439 29.8743C10.5283 29.9546 10.3981 30.0114 10.2606 30.0413ZM25.8591 30.1163C25.7077 30.1178 25.5576 30.0873 25.4188 30.0267C25.2801 29.966 25.1557 29.8767 25.0539 29.7645C24.9522 29.6524 24.8753 29.5199 24.8284 29.3759C24.7815 29.2319 24.7657 29.0796 24.7819 28.9291C24.7981 28.7785 24.846 28.6331 24.9225 28.5023C24.9989 28.3716 25.1022 28.2586 25.2255 28.1706C25.3488 28.0827 25.4893 28.0219 25.6379 27.9922C25.7864 27.9625 25.9395 27.9646 26.0871 27.9983C26.3432 28.0568 26.5689 28.2073 26.7214 28.4212C26.8739 28.635 26.9427 28.8975 26.9145 29.1586C26.8864 29.4198 26.7634 29.6616 26.5689 29.8381C26.3743 30.0146 26.1218 30.1136 25.8591 30.1163ZM28.6011 25.6763C28.2111 26.2043 27.8121 26.6708 27.3831 27.1058L25.1226 26.6198L25.1241 26.6213C24.8721 26.5669 24.6088 26.6147 24.392 26.7542C24.1752 26.8936 24.0226 27.1134 23.9676 27.3653L23.9661 27.3713L23.4306 29.8748C21.7256 30.6485 19.8745 31.0475 18.0021 31.0448H17.9826C16.0739 31.0458 14.1882 30.6285 12.4581 29.8223L11.9226 27.3203C11.8958 27.1945 11.8443 27.0752 11.7711 26.9694C11.698 26.8636 11.6046 26.7733 11.4964 26.7037C11.3882 26.6342 11.2673 26.5867 11.1407 26.564C11.0141 26.5414 10.8842 26.544 10.7586 26.5718L10.7646 26.5703L8.55511 27.0443C8.15446 26.6316 7.78116 26.1931 7.43761 25.7318L7.4136 25.6973H18.1641C18.2856 25.6973 18.3681 25.6763 18.3681 25.5653V21.7598C18.3681 21.6488 18.2871 21.6278 18.1641 21.6278H15.0186V19.2158H18.4206C18.7296 19.2158 20.0796 19.3043 20.5116 21.0293C20.6466 21.5588 20.9421 23.2868 21.1461 23.8403C21.3486 24.4598 22.1706 25.6988 23.0481 25.6988H28.4061C28.4741 25.6979 28.5419 25.6909 28.6086 25.6778L28.6011 25.6763ZM15.0231 15.6518V13.1738H19.4631C19.6926 13.1738 21.0816 13.4393 21.0816 14.4788C21.0816 15.3413 20.0151 15.6518 19.1391 15.6518H15.0231ZM29.7141 13.5473C29.7617 13.4056 29.8384 13.2755 29.9393 13.1652C30.0402 13.055 30.163 12.967 30.2998 12.907C30.4367 12.8469 30.5846 12.8162 30.734 12.8166C30.8835 12.8171 31.0312 12.8488 31.1676 12.9097C31.3041 12.9706 31.4264 13.0593 31.5265 13.1702C31.6267 13.2811 31.7026 13.4117 31.7494 13.5537C31.7961 13.6956 31.8127 13.8458 31.798 13.9945C31.7833 14.1432 31.7377 14.2872 31.6641 14.4173C31.5327 14.6495 31.3195 14.8244 31.0661 14.9078C30.8127 14.9913 30.5373 14.9773 30.2937 14.8686C30.0501 14.7599 29.8557 14.5643 29.7485 14.32C29.6413 14.0757 29.6291 13.8002 29.7141 13.5473ZM17.2086 3.4733V3.4763C17.3595 3.3305 17.5501 3.23246 17.7564 3.19446C17.9628 3.15645 18.1758 3.18016 18.3688 3.26263C18.5617 3.34509 18.726 3.48264 18.8412 3.65806C18.9563 3.83348 19.0172 4.03897 19.0161 4.2488C19.0162 4.39354 18.9868 4.53679 18.9299 4.66984C18.8729 4.8029 18.7894 4.92298 18.6846 5.0228C18.4767 5.20431 18.2067 5.29855 17.931 5.28586C17.6553 5.27317 17.3951 5.15454 17.2048 4.95469C17.0144 4.75485 16.9085 4.48923 16.9093 4.21322C16.91 3.93722 17.0172 3.67215 17.2086 3.4733ZM15.4776 4.9583L15.5616 4.9448L17.2071 6.6728C17.2954 6.76548 17.4012 6.83985 17.5183 6.89167C17.6354 6.94349 17.7615 6.97174 17.8895 6.9748C18.0175 6.97787 18.1449 6.95569 18.2643 6.90953C18.3838 6.86338 18.4929 6.79415 18.5856 6.7058L20.4261 4.9433C22.2905 5.29547 24.057 6.04534 25.6055 7.14183C27.1539 8.23831 28.4478 9.65565 29.3991 11.2973L29.4321 11.3618L28.1721 14.2103C28.0684 14.4456 28.0616 14.7123 28.1532 14.9526C28.2447 15.1929 28.4272 15.3875 28.6611 15.4943L28.6671 15.4973L31.0941 16.5758C31.1361 17.0078 31.1586 17.4413 31.1586 17.8838H31.1616C31.1616 18.2123 31.1496 18.5378 31.1256 18.8603H29.7756C29.6406 18.8603 29.5851 18.9488 29.5851 19.0823V19.7018C29.5851 21.1613 28.7616 21.4793 28.0416 21.5603C27.3546 21.6383 26.5941 21.2738 26.4996 20.8523C26.0946 18.5738 25.4196 18.0863 24.3546 17.2463C25.6776 16.4063 27.0531 15.1658 27.0531 13.5068C27.0531 11.7158 25.8246 10.5863 24.9876 10.0328C23.8131 9.2573 22.5141 9.1028 22.1631 9.1028H8.2011C10.109 6.96384 12.6646 5.50822 15.4776 4.9583ZM7.7181 14.1488L7.7211 14.1548L7.2471 13.0838H9.1116V21.4913H5.34961C4.88438 19.8595 4.74071 18.1529 4.92661 16.4663L7.2246 15.4448C7.34247 15.3925 7.44881 15.3175 7.53751 15.2239C7.6262 15.1303 7.69548 15.0201 7.74136 14.8996C7.78724 14.7791 7.80881 14.6507 7.80482 14.5219C7.80083 14.393 7.77136 14.2662 7.7181 14.1488ZM5.21011 12.8873C5.63161 12.8873 5.9961 13.1318 6.1716 13.4873L6.17461 13.4933C6.23959 13.6226 6.27771 13.7652 6.28666 13.9096C6.29561 14.054 6.27521 14.1987 6.22669 14.335C6.17816 14.4713 6.10253 14.5964 6.00434 14.7026C5.90615 14.8089 5.78745 14.8942 5.6554 14.9533C5.52335 15.0124 5.38069 15.0442 5.23602 15.0467C5.09136 15.0491 4.94769 15.0223 4.8137 14.9677C4.6797 14.9131 4.55816 14.832 4.45639 14.7291C4.35463 14.6263 4.27476 14.5039 4.22161 14.3693L4.21861 14.3618C4.15249 14.1992 4.12733 14.0229 4.14535 13.8483C4.16337 13.6738 4.22401 13.5063 4.32193 13.3607C4.41986 13.215 4.55208 13.0957 4.70695 13.0132C4.86182 12.9306 5.03461 12.8874 5.21011 12.8873Z" fill="#00BECC"/>
</g>
<defs>
<clipPath id="clip0_1906_10592">
<rect width="36" height="36" fill="white"/>
</clipPath>
</defs>
</svg>
