<svg width="52" height="53" viewBox="0 0 52 53" fill="none" xmlns="http://www.w3.org/2000/svg">
<g clip-path="url(#clip0_1898_9742)">
<path d="M50.1695 24.4294L48.4794 22.7393C47.6551 21.915 46.3072 21.915 45.4829 22.7393L43.2588 24.9634L30.6299 37.5975L30.1892 38.0382L30.0544 38.4425L27.8926 45.0214L34.4714 42.8595L34.8758 42.7247L35.3165 42.2841L47.9506 29.65L50.1747 27.4259C50.999 26.6016 50.999 25.2589 50.1695 24.4294ZM32.0711 42.59C31.9104 41.0191 30.7388 40.9362 30.2877 40.9621L30.858 39.2357L33.6834 42.0612L32.0711 42.59ZM34.6114 41.5738L31.3401 38.3025L43.9691 25.6736L47.2404 28.9449L34.6114 41.5738ZM49.4644 26.7209L47.9506 28.2347L44.6793 24.9634L46.1931 23.4496C46.6286 23.0141 47.3389 23.0141 47.7743 23.4496L49.4644 25.1396C49.8999 25.5751 49.8999 26.2854 49.4644 26.7209Z" fill="#00BECC"/>
<path d="M23.9524 21.0924C28.0477 20.4281 30.829 16.5698 30.1648 12.4745C29.5006 8.37928 25.6422 5.59789 21.547 6.26213C17.4517 6.92637 14.6703 10.7847 15.3346 14.88C15.9988 18.9752 19.8571 21.7566 23.9524 21.0924Z" fill="#00BECC"/>
<path d="M37.3694 25.6787C37.3694 25.4091 37.1517 25.1914 36.8821 25.1914H6.75618C6.4866 25.1914 6.26886 25.4091 6.26886 25.6787C6.26886 25.9483 6.4866 26.1661 6.75618 26.1661H36.8873C37.1517 26.1661 37.3694 25.9483 37.3694 25.6787ZM29.6863 29.7225C29.6863 29.4529 29.4686 29.2352 29.199 29.2352H6.751C6.48141 29.2352 6.26367 29.4529 6.26367 29.7225C6.26367 29.9921 6.48141 30.2098 6.751 30.2098H29.199C29.4686 30.2098 29.6863 29.9921 29.6863 29.7225ZM26.7209 36.405C26.7209 36.1354 26.5032 35.9177 26.2336 35.9177H6.75618C6.4866 35.9177 6.26886 36.1354 6.26886 36.405C6.26886 36.6746 6.4866 36.8924 6.75618 36.8924H26.2388C26.5032 36.8924 26.7209 36.6746 26.7209 36.405ZM26.4824 40.4384C26.4824 40.1688 26.2647 39.9511 25.9951 39.9511H6.75618C6.4866 39.9511 6.26886 40.1688 6.26886 40.4384C6.26886 40.708 6.4866 40.9257 6.75618 40.9257H25.9951C26.2647 40.9257 26.4824 40.708 26.4824 40.4384ZM6.99466 44.5288C6.72507 44.5288 6.50733 44.7465 6.50733 45.0161C6.50733 45.2857 6.72507 45.5035 6.99466 45.5035H25.6892C25.9588 45.5035 26.1765 45.2857 26.1765 45.0161C26.1765 44.7465 25.9588 44.5288 25.6892 44.5288H6.99466Z" fill="#00BECC"/>
<path d="M42.0927 51.2742H2.19437V10.2301L2.27732 10.1576L10.821 12.4335L11.1321 2.59885L11.3343 2.42777H42.0979V24.7565L43.0725 23.8596V1.94045C43.0725 1.67087 42.8548 1.45312 42.5852 1.45312H11.1528C11.0388 1.45312 10.9247 1.4946 10.8366 1.56718L1.39081 9.63394C1.28194 9.72726 1.21973 9.86205 1.21973 10.002V51.7563C1.21973 52.0259 1.43747 52.2436 1.70705 52.2436H42.58C42.8496 52.2436 43.0673 52.0259 43.0673 51.7563V36.1516L42.0927 37.0848V51.2742Z" fill="#00BECC"/>
</g>
<defs>
<clipPath id="clip0_1898_9742">
<rect width="51.8429" height="51.8429" fill="white" transform="translate(0.0839844 0.929688)"/>
</clipPath>
</defs>
</svg>
