<svg width="36" height="36" viewBox="0 0 36 36" fill="none" xmlns="http://www.w3.org/2000/svg">
<g clip-path="url(#clip0_1898_9847)">
<path d="M0 18V36H36V0H0V18ZM21.8445 29.439C22.0065 29.3475 22.611 28.998 23.1825 28.6665L24.2175 28.0665L24.435 28.3875C24.738 28.8495 25.3995 29.484 25.8 29.6955C26.949 30.3015 28.5255 30.216 29.3025 29.5185C29.592 29.274 29.7735 28.911 29.7735 28.506C29.7735 28.482 29.7735 28.4595 29.772 28.4355V28.4385C29.772 28.0215 29.7195 27.8385 29.502 27.5235C29.223 27.1245 28.6515 26.7885 27.0285 26.0835C25.1715 25.284 24.372 24.7875 23.64 23.9985C23.199 23.4975 22.8585 22.8945 22.6605 22.2315L22.6515 22.1985C22.515 21.69 22.4805 20.415 22.5885 19.902C22.971 18.1065 24.3255 16.857 26.28 16.485C26.9145 16.365 28.389 16.41 29.0115 16.5645C29.9265 16.7925 30.6225 17.2005 31.263 17.8635C31.5945 18.2175 32.0865 18.8625 32.1255 19.0185C32.1375 19.0635 30.5715 20.1135 29.6235 20.703C29.589 20.7255 29.451 20.577 29.298 20.349C28.833 19.674 28.3485 19.383 27.606 19.332C26.514 19.257 25.812 19.8285 25.818 20.7825C25.818 20.799 25.8165 20.8185 25.8165 20.838C25.8165 21.0645 25.8735 21.2775 25.974 21.4635L25.971 21.456C26.211 21.9525 26.658 22.251 28.056 22.8555C30.6345 23.9655 31.737 24.696 32.4225 25.7355C33.1875 26.895 33.36 28.7475 32.8395 30.1245C32.2695 31.6215 30.852 32.6385 28.857 32.9745C28.2405 33.084 26.778 33.0675 26.115 32.9475C24.669 32.6895 23.298 31.9755 22.452 31.038C22.1205 30.6735 21.474 29.718 21.5145 29.6505C21.531 29.6265 21.6795 29.535 21.8445 29.439ZM7.887 18.0975C7.887 17.2965 7.9035 16.6275 7.926 16.6125C7.944 16.5885 10.7955 16.5765 14.2515 16.5825L20.544 16.6005L20.5605 18.069L20.5725 19.5435H15.885V32.8575H12.57V19.5435H7.887V18.0975Z" fill="#00BECC"/>
</g>
<defs>
<clipPath id="clip0_1898_9847">
<rect width="36" height="36" fill="white"/>
</clipPath>
</defs>
</svg>
