<svg width="55" height="47" viewBox="0 0 55 47" fill="none" xmlns="http://www.w3.org/2000/svg">
<path d="M48.6538 10.6818H45.4808V5.34091C45.4808 2.39593 43.1084 0 40.1923 0H6.34615C2.84625 0 0 2.87448 0 6.40909V41.6591C0 44.6041 2.3724 47 5.28846 47H49.7115C52.6276 47 55 44.6041 55 41.6591V37.3864V27.7727V17.0909C55 13.5563 52.1537 10.6818 48.6538 10.6818ZM52.8846 17.0909V26.7045H50.7819V18.6996C50.7819 16.638 49.1213 14.961 47.08 14.961H5.30115C3.93885 14.961 2.75846 14.2047 2.11538 13.0938V11.1732C3.23971 12.1922 4.71942 12.8182 6.34615 12.8182H38.0769H44.4231H48.6538C50.9871 12.8182 52.8846 14.7345 52.8846 17.0909ZM52.8846 36.3182H44.9519C42.9106 36.3182 41.25 34.6411 41.25 32.5795C41.25 30.518 42.9106 28.8409 44.9519 28.8409H52.8846V36.3182ZM2.11538 14.7687C2.96048 15.5442 4.07212 16.0291 5.30115 16.0291H47.08C48.5386 16.0291 49.7242 17.2276 49.7242 18.6996V26.7045H44.9519C41.745 26.7045 39.1346 29.3398 39.1346 32.5795C39.1346 35.8193 41.745 38.4545 44.9519 38.4545H49.6671L49.6587 40.0963C49.6587 40.9797 48.9468 41.6986 48.0732 41.6986L5.28846 41.6591C3.93462 41.6591 2.76058 40.9135 2.11538 39.8154V14.7687ZM40.1923 10.6818H38.0769H6.34615C5.97913 10.6818 5.62904 10.6199 5.28846 10.5301V6.94318C5.28846 6.0598 6.00029 5.34091 6.875 5.34091H38.6058C39.4805 5.34091 40.1923 6.0598 40.1923 6.94318V10.6818ZM6.34615 2.13636H40.1923C41.9417 2.13636 43.3654 3.57414 43.3654 5.34091V10.6818H41.25V6.94318C41.25 5.47123 40.0643 4.27273 38.6058 4.27273H6.875C5.41644 4.27273 4.23077 5.47123 4.23077 6.94318V10.0879C2.97212 9.34659 2.11538 7.98359 2.11538 6.40909C2.11538 4.05268 4.01288 2.13636 6.34615 2.13636ZM49.7115 44.8636H5.28846C3.53904 44.8636 2.11538 43.4259 2.11538 41.6591V41.4775C2.95942 42.2455 4.06471 42.7273 5.28846 42.7273L48.0711 42.7668C49.5296 42.7668 50.7153 41.5683 50.7153 40.0995L50.7248 38.4545H52.8846V41.6591C52.8846 43.4259 51.461 44.8636 49.7115 44.8636Z" fill="#00BECC"/>
<path d="M44.2334 32.4538C44.2334 33.3372 44.9452 34.0561 45.8199 34.0561C46.6946 34.0561 47.4065 33.3372 47.4065 32.4538C47.4065 31.5704 46.6946 30.8516 45.8199 30.8516C44.9452 30.8516 44.2334 31.5704 44.2334 32.4538ZM46.3488 32.4538C46.3488 32.7487 46.1108 32.9879 45.8199 32.9879C45.5291 32.9879 45.2911 32.7487 45.2911 32.4538C45.2911 32.159 45.5291 31.9197 45.8199 31.9197C46.1108 31.9197 46.3488 32.159 46.3488 32.4538Z" fill="#00BECC"/>
</svg>
