<svg width="31" height="9" viewBox="0 0 31 9" fill="none" xmlns="http://www.w3.org/2000/svg">
<rect x="26" y="8" width="5" height="1" fill="white"/>
<rect x="26" y="6" width="2" height="1" fill="white"/>
<rect x="26" y="4" width="4" height="1" fill="white"/>
<rect x="26" y="2" width="2" height="1" fill="white"/>
<rect x="26" width="5" height="1" fill="white"/>
<rect x="15" y="8" width="4" height="1" fill="white"/>
<rect x="15" y="6" width="2" height="1" fill="white"/>
<rect x="15" y="4" width="2" height="1" fill="white"/>
<rect x="15" y="2" width="2" height="1" fill="white"/>
<rect x="15" width="2" height="1" fill="white"/>
<rect x="18" y="6" width="3" height="1" fill="white"/>
<rect x="20" y="8" width="4" height="1" fill="white"/>
<rect x="22" y="6" width="2" height="1" fill="white"/>
<rect x="22" y="4" width="2" height="1" fill="white"/>
<rect x="22" y="2" width="2" height="1" fill="white"/>
<rect x="22" width="2" height="1" fill="white"/>
<rect x="9" y="8" width="4" height="1" fill="white"/>
<rect x="10" y="6" width="2" height="1" fill="white"/>
<rect x="10" y="4" width="2" height="1" fill="white"/>
<rect x="10" y="2" width="2" height="1" fill="white"/>
<rect x="9" width="4" height="1" fill="white"/>
<rect x="1" y="8" width="5" height="1" fill="white"/>
<rect x="4" y="6" width="3" height="1" fill="white"/>
<rect x="1" y="4" width="5" height="1" fill="white"/>
<rect y="2" width="3" height="1" fill="white"/>
<rect x="2" width="5" height="1" fill="white"/>
</svg>
