<svg width="90" height="87" viewBox="0 0 90 87" fill="none" xmlns="http://www.w3.org/2000/svg">
<mask id="mask0_2277_6888" style="mask-type:luminance" maskUnits="userSpaceOnUse" x="0" y="0" width="90" height="87">
<path d="M90 0H0V86.7537H90V0Z" fill="white"/>
</mask>
<g mask="url(#mask0_2277_6888)">
<path d="M84.0942 83.7836L64.7106 78.0122L50.0933 86.7505L39.8941 86.746L25.2678 78.0122L5.8931 83.7836L0 63.8879L5.89373 41.8069L0 23.1382L5.89373 0L36.168 18.0875H53.8194L84.0942 0L89.988 23.1382L84.0942 41.8069L89.988 63.8879L84.0942 83.7836Z" fill="#FF5C16"/>
<path d="M5.89844 0L36.1733 18.1001L34.9697 30.522L5.89844 0ZM25.2738 63.8962L38.5944 74.0433L25.2738 78.0116V63.8962ZM37.5296 47.12L34.9697 30.5309L18.5821 41.8119L18.5732 41.8075V41.8157L18.6239 53.4276L25.2694 47.1207L37.5296 47.12ZM84.0953 0L53.8203 18.1001L55.0201 30.522L84.0953 0ZM64.7206 63.8962L51.3992 74.0433L64.7206 78.0116V63.8962ZM71.4167 41.8151V41.8069L71.4129 41.8113L55.0245 30.5309L52.4646 47.12H64.72L71.3698 53.4264L71.4167 41.8151Z" fill="#FF5C16"/>
<path d="M25.2685 78.0132L5.89373 83.7846L0 63.8978H25.2685V78.0132ZM37.5243 47.1172L41.2251 71.1003L36.0957 57.7651L18.6148 53.428L25.264 47.1178L37.5243 47.1172ZM64.7189 78.0132L84.0942 83.7846L89.988 63.8972H64.7189V78.0132ZM52.4637 47.1172L48.7629 71.1003L53.8916 57.7651L71.3738 53.428L64.7202 47.1178L52.4637 47.1172Z" fill="#E34807"/>
<path d="M0 63.8864L5.89373 41.8054H18.5679L18.6142 53.4211L36.097 57.7582L41.2257 71.0927L38.5891 74.0291L25.2685 63.8819H0V63.8864ZM89.988 63.8864L84.0942 41.8054H71.4195L71.3732 53.4211L53.8916 57.7582L48.7623 71.0927L51.3983 74.0291L64.7195 63.8819H89.988V63.8864ZM53.8194 18.0859H36.168L34.9694 30.5078L41.2263 71.0794H48.7629L55.0236 30.5078L53.8194 18.0859Z" fill="#FF8D5D"/>
<path d="M5.89373 0L0 23.1382L5.89373 41.8069H18.5679L34.9644 30.5227L5.89373 0ZM33.8616 51.9325H28.1199L24.994 54.9969L36.1008 57.7502L33.8616 51.9281V51.9325ZM84.0942 0L89.988 23.1382L84.0942 41.8069H71.4195L55.0236 30.5227L84.0942 0ZM56.1347 51.9325H61.8845L65.0104 55.0007L53.891 57.7597L56.1347 51.9281V51.9325ZM50.0888 78.8355L51.3989 74.0395L48.7623 71.1031H41.22L38.584 74.0395L39.8935 78.8355" fill="#661800"/>
<path d="M50.0886 78.834V86.7534H39.8945V78.834H50.0886Z" fill="#C0C4CD"/>
<path d="M25.2686 78.0093L39.8986 86.7557V78.8364L38.5885 74.041L25.2686 78.0093ZM64.7152 78.0093L50.0845 86.7557V78.8364L51.3945 74.041L64.7152 78.0093Z" fill="#E7EBF6"/>
</g>
</svg>
