<svg width="70" height="71" viewBox="0 0 70 71" fill="none" xmlns="http://www.w3.org/2000/svg">
<mask id="mask0_2277_6897" style="mask-type:luminance" maskUnits="userSpaceOnUse" x="0" y="0" width="70" height="71">
<path d="M70 0.376953H0V70.377H70V0.376953Z" fill="white"/>
</mask>
<g mask="url(#mask0_2277_6897)">
<path d="M66.2831 33.2959C66.2831 50.7635 52.1229 64.9238 34.6552 64.9238C17.1876 64.9238 3.02734 50.7635 3.02734 33.2959C3.02734 15.8283 17.1876 1.66797 34.6552 1.66797C52.1229 1.66797 66.2831 15.8283 66.2831 33.2959Z" fill="white"/>
<path d="M35.3036 0.376248C15.7328 0.212914 -0.163062 16.1087 0.000270984 35.6796C0.163604 54.6845 15.6919 70.2128 34.691 70.3703C54.262 70.5396 70.1636 54.6379 69.9945 35.067C69.8369 16.0679 54.3087 0.53958 35.3036 0.376248ZM24.8387 17.7946C27.0787 20.6412 28.4203 24.2405 28.4203 28.1487C28.4203 31.5321 27.4168 34.6821 25.6903 37.3128H13.5569L24.8387 17.7946ZM61.8336 41.6354C61.8336 41.7987 61.7461 41.9387 61.5945 42.0028C60.772 42.3528 58.0594 43.6128 56.9278 45.1821C54.0168 49.2363 51.7945 55.6063 46.8245 55.6063H26.0868C18.7428 55.6063 12.6003 49.7787 12.6061 42.0145C12.6061 41.8221 12.7694 41.6645 12.9619 41.6645H22.7911C23.1294 41.6645 23.3978 41.9387 23.3978 42.2712V44.167C23.3978 45.1763 24.2145 45.9928 25.2236 45.9928H32.6787V41.6528H27.5861C30.5145 37.9428 32.2587 33.2587 32.2587 28.1603C32.2587 22.4729 30.0768 17.2871 26.5068 13.4079C28.6652 13.6587 30.7303 14.0904 32.6787 14.6621V13.4546C32.6787 12.2004 33.6936 11.1854 34.9478 11.1854C36.202 11.1854 37.2168 12.2004 37.2168 13.4546V16.3654C44.1761 19.6146 48.732 25.0045 48.732 31.1003C48.732 34.6763 47.1687 38.007 44.4678 40.807C43.9487 41.3438 43.231 41.647 42.4787 41.647H37.2168V45.9812H43.8203C45.2436 45.9812 47.7987 43.2803 49.012 41.6528C49.012 41.6528 49.0645 41.5712 49.2045 41.5303C49.3445 41.4896 61.332 38.7363 61.332 38.7363C61.5827 38.6663 61.8336 38.8587 61.8336 39.1154V41.6354Z" fill="#0086FF"/>
</g>
</svg>
