<svg width="11" height="14" viewBox="0 0 11 14" fill="none" xmlns="http://www.w3.org/2000/svg">
<path d="M10.8588 5.70609C10.8059 5.56352 10.6702 5.46875 10.5186 5.46875H6.13883L8.66516 0.531563C8.74453 0.37625 8.70359 0.186305 8.5668 0.0783828C8.50078 0.0258828 8.42141 0 8.34234 0C8.25781 0 8.17328 0.0298984 8.10547 0.0885937L5.44063 2.40188L0.125805 7.0157C0.0111877 7.11523 -0.0301638 7.27602 0.0227893 7.41852C0.0757502 7.56109 0.211039 7.65625 0.362656 7.65625H4.74242L2.21611 12.5934C2.13668 12.7487 2.17766 12.9387 2.31441 13.0466C2.38042 13.0991 2.45985 13.125 2.53892 13.125C2.62344 13.125 2.70795 13.0951 2.77577 13.0364L5.44063 10.7231L10.7555 6.1093C10.8704 6.00977 10.9114 5.84898 10.8588 5.70609Z" fill="#FF9500"/>
</svg>
