<svg width="80" height="81" viewBox="0 0 80 81" fill="none" xmlns="http://www.w3.org/2000/svg">
<mask id="mask0_2277_6908" style="mask-type:luminance" maskUnits="userSpaceOnUse" x="0" y="0" width="80" height="81">
<path d="M0 0.376953H80V80.377H0V0.376953Z" fill="white"/>
</mask>
<g mask="url(#mask0_2277_6908)">
<path d="M39.6726 79.4879C61.2731 79.4879 78.7838 61.9772 78.7838 40.3767C78.7838 18.7763 61.2731 1.26562 39.6726 1.26562C18.0722 1.26562 0.561523 18.7763 0.561523 40.3767C0.561523 61.9772 18.0722 79.4879 39.6726 79.4879Z" fill="#3396FF" stroke="#66B1FF"/>
<path d="M24.434 30.1715C32.9678 21.8257 46.8043 21.8257 55.3382 30.1715L56.3653 31.1759C56.792 31.5931 56.792 32.2697 56.3653 32.6869L52.8519 36.1229C52.6385 36.3315 52.2927 36.3315 52.0793 36.1229L50.6659 34.7407C44.7123 28.9185 35.0599 28.9185 29.1062 34.7407L27.5926 36.2209C27.3792 36.4295 27.0334 36.4295 26.82 36.2209L23.3066 32.7849C22.8798 32.3677 22.8798 31.6911 23.3066 31.2739L24.434 30.1715ZM62.6044 37.2773L65.7313 40.3353C66.1581 40.7525 66.1581 41.4291 65.7313 41.8463L51.6316 55.635C51.205 56.0524 50.5132 56.0524 50.0864 55.635L40.0793 45.8488C39.9726 45.7444 39.7997 45.7444 39.693 45.8488L29.686 55.635C29.2594 56.0524 28.5676 56.0524 28.1408 55.635L14.0407 41.846C13.614 41.4289 13.614 40.7523 14.0407 40.3351L17.1677 37.2771C17.5944 36.8599 18.2862 36.8599 18.7129 37.2771L28.7201 47.0634C28.8268 47.1678 28.9997 47.1678 29.1064 47.0634L39.1133 37.2771C39.5399 36.8597 40.2317 36.8597 40.6585 37.2771L50.6657 47.0634C50.7724 47.1678 50.9453 47.1678 51.052 47.0634L61.0593 37.2773C61.4858 36.8599 62.1777 36.8599 62.6044 37.2773Z" fill="white"/>
</g>
</svg>
