<svg width="405" height="102" viewBox="0 0 405 102" fill="none" xmlns="http://www.w3.org/2000/svg">
<rect width="102" height="102" rx="8" fill="#E4E4E4"/>
<path d="M16 51.4721L27.979 31.6113L39.8705 51.4721L27.979 58.7021L16 51.4721Z" fill="#333333"/>
<path d="M27.979 60.8799L16 53.6499L27.979 70.4619L39.8705 53.6499L27.979 60.8799Z" fill="#333333"/>
<path d="M46.4912 63.1368V58.8714H51.4617V43.1843H46.4912V38.9541H62.3193V43.1843H57.3488V58.8714H62.3193V63.1368H46.4912ZM66.853 63.1368V38.9541H76.0889C77.4755 38.9541 78.7563 39.1421 79.9314 39.5181C81.1299 39.8941 82.164 40.4581 83.0335 41.2102C83.903 41.9623 84.5846 42.9023 85.0781 44.0304C85.5717 45.135 85.8184 46.4157 85.8184 47.8728V54.2181C85.8184 55.6517 85.5717 56.9325 85.0781 58.0606C84.5846 59.1652 83.903 60.0934 83.0335 60.8455C82.164 61.5975 81.1299 62.1733 79.9314 62.5728C78.7563 62.9488 77.4755 63.1368 76.0889 63.1368H66.853ZM72.7753 58.6246H75.5954C76.4649 58.6246 77.217 58.4954 77.8515 58.2368C78.486 57.9783 78.9678 57.5553 79.2968 56.9678C79.6494 56.3803 79.8256 55.5695 79.8256 54.5354V47.5203C79.8256 46.4862 79.6494 45.6754 79.2968 45.0879C78.9678 44.4769 78.486 44.0421 77.8515 43.7836C77.217 43.5251 76.4649 43.3958 75.5954 43.3958H72.7753V58.6246Z" fill="#333333"/>
<path d="M119.84 41V13.56H138.88L138.16 18.64H126.4V24.48H137.4V29.44H126.4V35.72H138.28L138.96 41H119.84ZM156.744 41.4C153.998 41.4 151.851 40.8267 150.304 39.68C148.784 38.5333 148.024 36.5733 148.024 33.8V25.16H142.704V20.56H148.264L150.464 14.04H154.304V20.56H162.824V25.16H154.304V33.2C154.304 33.92 154.451 34.5467 154.744 35.08C155.038 35.5867 155.504 35.9867 156.144 36.28C156.811 36.5467 157.691 36.68 158.784 36.68C159.558 36.68 160.304 36.5867 161.024 36.4C161.744 36.2133 162.344 35.9867 162.824 35.72V40.24C162.104 40.6133 161.184 40.8933 160.064 41.08C158.944 41.2933 157.838 41.4 156.744 41.4ZM167.689 41V12.2H173.969V23.08C174.662 22.12 175.489 21.4 176.449 20.92C177.435 20.4133 178.569 20.16 179.849 20.16C181.155 20.16 182.302 20.4267 183.289 20.96C184.275 21.4933 185.035 22.2667 185.569 23.28C186.129 24.2667 186.409 25.48 186.409 26.92V41H180.129V28.12C180.129 27.0267 179.862 26.1867 179.329 25.6C178.795 25.0133 178.062 24.72 177.129 24.72C176.515 24.72 175.969 24.8667 175.489 25.16C175.009 25.4533 174.635 25.8533 174.369 26.36C174.102 26.8667 173.969 27.4533 173.969 28.12V41H167.689ZM201.073 41.4C198.7 41.4 196.74 41 195.193 40.2C193.673 39.3733 192.54 38.2 191.793 36.68C191.073 35.16 190.713 33.3733 190.713 31.32V30.24C190.713 28.1067 191.14 26.2933 191.993 24.8C192.873 23.28 194.1 22.1333 195.673 21.36C197.273 20.56 199.153 20.16 201.313 20.16C203.313 20.16 205.033 20.5333 206.473 21.28C207.94 22 209.06 23.0267 209.833 24.36C210.633 25.6667 211.033 27.24 211.033 29.08V31.96H197.393V33.04C197.393 34.5067 197.753 35.6 198.473 36.32C199.193 37.04 200.14 37.4 201.313 37.4C202.62 37.4 203.593 37.0933 204.233 36.48C204.873 35.84 205.193 34.8667 205.193 33.56H211.033C211.033 35.2133 210.62 36.6267 209.793 37.8C208.993 38.9733 207.846 39.8667 206.353 40.48C204.886 41.0933 203.126 41.4 201.073 41.4ZM197.393 28.48H204.873V27.96C204.873 27.2133 204.713 26.56 204.393 26C204.073 25.4133 203.633 24.96 203.073 24.64C202.54 24.32 201.913 24.16 201.193 24.16C200.42 24.16 199.753 24.3467 199.193 24.72C198.633 25.0667 198.193 25.5467 197.873 26.16C197.553 26.7733 197.393 27.44 197.393 28.16V28.48ZM219.098 41V25.16H214.858V20.56H224.218L224.498 23.16C224.924 22.3067 225.604 21.6 226.538 21.04C227.471 20.4533 228.631 20.16 230.018 20.16C231.858 20.16 233.284 20.6933 234.298 21.76C235.338 22.8267 235.858 24.24 235.858 26C235.858 26.4267 235.844 26.8533 235.818 27.28C235.818 27.68 235.778 28.1067 235.698 28.56H230.498V27.48C230.498 27 230.391 26.56 230.178 26.16C229.991 25.7333 229.698 25.4 229.298 25.16C228.924 24.92 228.458 24.8 227.898 24.8C227.338 24.8 226.858 24.9467 226.458 25.24C226.058 25.5333 225.751 25.92 225.538 26.4C225.324 26.8533 225.218 27.36 225.218 27.92V41H219.098ZM214.778 41V36.48H232.938V41H214.778ZM249.042 41.4C246.669 41.4 244.709 41 243.162 40.2C241.642 39.3733 240.509 38.2 239.762 36.68C239.042 35.16 238.682 33.3733 238.682 31.32V30.24C238.682 28.1067 239.109 26.2933 239.962 24.8C240.842 23.28 242.069 22.1333 243.642 21.36C245.242 20.56 247.122 20.16 249.282 20.16C251.282 20.16 253.002 20.5333 254.442 21.28C255.909 22 257.029 23.0267 257.802 24.36C258.602 25.6667 259.002 27.24 259.002 29.08V31.96H245.362V33.04C245.362 34.5067 245.722 35.6 246.442 36.32C247.162 37.04 248.109 37.4 249.282 37.4C250.589 37.4 251.562 37.0933 252.202 36.48C252.842 35.84 253.162 34.8667 253.162 33.56H259.002C259.002 35.2133 258.589 36.6267 257.762 37.8C256.962 38.9733 255.815 39.8667 254.322 40.48C252.855 41.0933 251.095 41.4 249.042 41.4ZM245.362 28.48H252.842V27.96C252.842 27.2133 252.682 26.56 252.362 26C252.042 25.4133 251.602 24.96 251.042 24.64C250.509 24.32 249.882 24.16 249.162 24.16C248.389 24.16 247.722 24.3467 247.162 24.72C246.602 25.0667 246.162 25.5467 245.842 26.16C245.522 26.7733 245.362 27.44 245.362 28.16V28.48ZM270.266 41.4C268.106 41.4 266.386 40.8133 265.106 39.64C263.853 38.4667 263.226 36.7067 263.226 34.36V20.56H269.546V33.4C269.546 34.5733 269.826 35.44 270.386 36C270.973 36.5333 271.72 36.8 272.626 36.8C273.266 36.8 273.826 36.6667 274.306 36.4C274.813 36.1067 275.2 35.6933 275.466 35.16C275.76 34.6267 275.906 34 275.906 33.28V20.56H282.186V36.24C282.186 36.64 282.266 36.9333 282.426 37.12C282.613 37.28 282.84 37.36 283.106 37.36C283.293 37.36 283.48 37.3467 283.666 37.32C283.853 37.2667 284.053 37.1733 284.266 37.04V40.6C283.92 40.84 283.4 41.0267 282.706 41.16C282.04 41.32 281.4 41.4 280.786 41.4C279.693 41.4 278.853 41.28 278.266 41.04C277.68 40.8 277.266 40.48 277.026 40.08C276.813 39.6533 276.653 39.1867 276.546 38.68C276.2 39.1867 275.76 39.64 275.226 40.04C274.72 40.44 274.066 40.76 273.266 41C272.466 41.2667 271.466 41.4 270.266 41.4ZM286.491 41V20.56H289.851L290.371 22.68C290.851 21.88 291.464 21.2667 292.211 20.84C292.957 20.3867 293.757 20.16 294.611 20.16C295.597 20.16 296.424 20.4 297.091 20.88C297.784 21.3333 298.277 21.9467 298.571 22.72C299.157 21.84 299.811 21.2 300.531 20.8C301.251 20.3733 302.077 20.16 303.011 20.16C304.504 20.16 305.611 20.64 306.331 21.6C307.051 22.5333 307.411 23.7867 307.411 25.36V41H302.371V26.72C302.371 25.52 301.904 24.92 300.971 24.92C300.544 24.92 300.184 25.08 299.891 25.4C299.597 25.72 299.451 26.16 299.451 26.72V41H294.491V26.72C294.491 25.52 294.011 24.92 293.051 24.92C292.597 24.92 292.224 25.08 291.931 25.4C291.664 25.72 291.531 26.16 291.531 26.72V41H286.491Z" fill="#E4E4E4"/>
<path d="M120.04 89V84.16H125.68V66.36H120.04V61.56H138V66.36H132.36V84.16H138V89H120.04ZM150.544 89.4C149.051 89.4 147.691 89.0533 146.464 88.36C145.238 87.64 144.264 86.5333 143.544 85.04C142.824 83.52 142.464 81.5867 142.464 79.24V78.8C142.464 76.4533 142.838 74.4933 143.584 72.92C144.331 71.32 145.331 70.1333 146.584 69.36C147.838 68.56 149.224 68.16 150.744 68.16C151.944 68.16 152.971 68.3333 153.824 68.68C154.704 69.0267 155.411 69.4933 155.944 70.08V60.2H162.224V89H157.104L156.584 86.68C155.998 87.5067 155.224 88.1733 154.264 88.68C153.304 89.16 152.064 89.4 150.544 89.4ZM152.384 85.32C153.398 85.32 154.238 84.9467 154.904 84.2C155.598 83.4533 155.944 82.36 155.944 80.92V76.6C155.944 75.16 155.598 74.0667 154.904 73.32C154.238 72.5733 153.398 72.2 152.384 72.2C151.371 72.2 150.518 72.5867 149.824 73.36C149.158 74.1067 148.824 75.1867 148.824 76.6V80.92C148.824 82.36 149.158 83.4533 149.824 84.2C150.518 84.9467 151.371 85.32 152.384 85.32ZM177.089 89.4C174.715 89.4 172.755 89 171.209 88.2C169.689 87.3733 168.555 86.2 167.809 84.68C167.089 83.16 166.729 81.3733 166.729 79.32V78.24C166.729 76.1067 167.155 74.2933 168.009 72.8C168.889 71.28 170.115 70.1333 171.689 69.36C173.289 68.56 175.169 68.16 177.329 68.16C179.329 68.16 181.049 68.5333 182.489 69.28C183.955 70 185.075 71.0267 185.849 72.36C186.649 73.6667 187.049 75.24 187.049 77.08V79.96H173.409V81.04C173.409 82.5067 173.769 83.6 174.489 84.32C175.209 85.04 176.155 85.4 177.329 85.4C178.635 85.4 179.609 85.0933 180.249 84.48C180.889 83.84 181.209 82.8667 181.209 81.56H187.049C187.049 83.2133 186.635 84.6267 185.809 85.8C185.009 86.9733 183.862 87.8667 182.369 88.48C180.902 89.0933 179.142 89.4 177.089 89.4ZM173.409 76.48H180.889V75.96C180.889 75.2133 180.729 74.56 180.409 74C180.089 73.4133 179.649 72.96 179.089 72.64C178.555 72.32 177.929 72.16 177.209 72.16C176.435 72.16 175.769 72.3467 175.209 72.72C174.649 73.0667 174.209 73.5467 173.889 74.16C173.569 74.7733 173.409 75.44 173.409 76.16V76.48ZM191.673 89V68.56H196.793L197.273 70.88C197.913 69.9467 198.74 69.2667 199.753 68.84C200.766 68.3867 201.953 68.16 203.313 68.16C205.5 68.16 207.22 68.76 208.473 69.96C209.753 71.16 210.393 72.84 210.393 75V89H204.113V76.32C204.113 75.12 203.846 74.2267 203.313 73.64C202.78 73.0267 202.046 72.72 201.113 72.72C200.473 72.72 199.913 72.88 199.433 73.2C198.953 73.52 198.58 73.96 198.313 74.52C198.073 75.0533 197.953 75.68 197.953 76.4V89H191.673ZM228.698 89.4C225.951 89.4 223.804 88.8267 222.258 87.68C220.738 86.5333 219.978 84.5733 219.978 81.8V73.16H214.658V68.56H220.218L222.418 62.04H226.258V68.56H234.778V73.16H226.258V81.2C226.258 81.92 226.404 82.5467 226.698 83.08C226.991 83.5867 227.458 83.9867 228.098 84.28C228.764 84.5467 229.644 84.68 230.738 84.68C231.511 84.68 232.258 84.5867 232.978 84.4C233.698 84.2133 234.297 83.9867 234.778 83.72V88.24C234.058 88.6133 233.138 88.8933 232.018 89.08C230.898 89.2933 229.791 89.4 228.698 89.4ZM247.082 89V73.16H240.282V68.56H253.322V89H247.082ZM240.282 89V84.48H259.482V89H240.282ZM247.362 64.68V59.8H252.322V64.68H247.362ZM276.666 89.4C273.92 89.4 271.773 88.8267 270.226 87.68C268.706 86.5333 267.946 84.5733 267.946 81.8V73.16H262.626V68.56H268.186L270.386 62.04H274.226V68.56H282.746V73.16H274.226V81.2C274.226 81.92 274.373 82.5467 274.666 83.08C274.96 83.5867 275.426 83.9867 276.066 84.28C276.733 84.5467 277.613 84.68 278.706 84.68C279.48 84.68 280.226 84.5867 280.946 84.4C281.666 84.2133 282.266 83.9867 282.746 83.72V88.24C282.026 88.6133 281.106 88.8933 279.986 89.08C278.866 89.2933 277.76 89.4 276.666 89.4ZM291.211 96.44C290.491 96.44 289.824 96.3867 289.211 96.28C288.624 96.2 288.104 96.0667 287.651 95.88V91.64C287.944 91.7733 288.357 91.8933 288.891 92C289.424 92.1333 289.944 92.2 290.451 92.2C291.224 92.2 291.824 92.0267 292.251 91.68C292.677 91.3333 293.011 90.88 293.251 90.32C293.491 89.76 293.731 89.1467 293.971 88.48L286.251 68.56H292.971L297.171 81.04H297.451L301.331 68.56H307.531L300.331 87.8C299.717 89.4267 298.997 90.8933 298.171 92.2C297.344 93.5067 296.357 94.5333 295.211 95.28C294.091 96.0533 292.757 96.44 291.211 96.44ZM335.019 89V61.56H341.419V75L349.419 61.56H356.139L348.699 74.92L356.619 89H349.419L343.579 78.88L341.419 82.28V89H335.019ZM367.004 89V73.16H360.204V68.56H373.244V89H367.004ZM360.204 89V84.48H379.404V89H360.204ZM367.284 64.68V59.8H372.244V64.68H367.284ZM396.588 89.4C393.841 89.4 391.695 88.8267 390.148 87.68C388.628 86.5333 387.868 84.5733 387.868 81.8V73.16H382.548V68.56H388.108L390.308 62.04H394.148V68.56H402.668V73.16H394.148V81.2C394.148 81.92 394.295 82.5467 394.588 83.08C394.881 83.5867 395.348 83.9867 395.988 84.28C396.655 84.5467 397.535 84.68 398.628 84.68C399.401 84.68 400.148 84.5867 400.868 84.4C401.588 84.2133 402.188 83.9867 402.668 83.72V88.24C401.948 88.6133 401.028 88.8933 399.908 89.08C398.788 89.2933 397.681 89.4 396.588 89.4Z" fill="#E4E4E4"/>
</svg>
