<svg width="1060" height="374" viewBox="0 0 1060 374" fill="none" xmlns="http://www.w3.org/2000/svg">
<path d="M460 112H500V272H540V72H500C478 72 460 90 460 112Z" fill="white"/>
<path d="M580 152V272H620V192C620 170 602 152 580 152Z" fill="white"/>
<path d="M740 152H660V272H700V192H740V232C740 254 758 272 780 272V192C780 170 762 152 740 152Z" fill="white"/>
<path d="M1020 152H980V112C980 90 962 72 940 72V232H860V192H900V152H860C838 152 820 170 820 192V232C820 254 838 272 860 272H980V192H1020V232C1020 254 1038 272 1060 272V192C1060 170 1042 152 1020 152Z" fill="white"/>
<path d="M580 72V112H620C620 90 602 72 580 72Z" fill="white"/>
<path d="M298.919 39.1153C298.919 39.1153 315.319 39.8152 332.319 41.7152C293.919 11.5152 257.519 2.71525 228.019 2.71525C187.319 2.71525 159.819 19.4152 158.219 20.4152L171.019 0.115251C171.019 0.115251 119.819 -4.78474 101.819 49.3153C97.2187 37.8153 92.9187 21.1153 92.9187 21.1153C92.9187 21.1153 66.3187 44.4153 78.8187 83.1153C48.3187 72.0153 4.71868 56.5152 3.11868 56.2152C0.818684 55.9152 0.118684 56.9152 0.118684 56.9152C0.118684 56.9152 -0.581313 57.9153 1.41869 59.5153C5.01869 62.5153 73.9187 113.315 88.9187 123.115C85.6187 134.915 85.6187 140.515 88.9187 146.115C93.5187 153.615 93.8187 157.615 93.2187 163.215C92.5187 168.815 86.6187 217.015 85.3187 222.915C84.0187 228.815 70.2187 249.815 70.9187 256.015C71.6187 262.215 80.1187 288.815 87.6187 291.715C93.2187 293.715 106.919 297.915 116.119 297.915C119.419 297.915 122.319 297.215 123.619 295.915C129.219 291.015 130.819 290.015 134.719 290.015H135.719C137.319 290.015 139.319 290.315 141.619 290.315C146.819 290.315 153.719 289.315 158.719 284.715C165.919 277.515 178.419 267.615 182.319 263.115C187.219 256.915 189.819 248.315 188.519 239.815C187.519 231.915 191.819 225.015 196.719 218.215C202.919 210.015 214.419 195.215 214.419 195.215C237.019 212.315 251.119 238.215 251.119 267.015C251.119 318.215 206.519 359.515 151.419 359.515C142.919 359.515 134.719 358.515 126.519 356.515C151.719 365.415 173.119 368.315 190.419 368.315C227.519 368.315 247.119 354.915 247.119 354.915C247.119 354.915 240.219 363.815 229.119 373.915H229.419C290.719 365.415 320.619 314.915 320.619 314.915C320.619 314.915 318.319 331.315 315.419 342.415C397.019 281.115 383.319 204.415 382.919 201.715C383.619 202.715 391.819 212.515 396.019 217.815C409.419 82.7152 298.919 39.1153 298.919 39.1153Z" fill="#1B314F"/>
<path d="M295.018 258.814C295.718 256.214 298.618 254.514 301.918 252.914C304.218 251.614 307.118 249.914 307.518 249.014C308.818 241.514 309.518 233.914 309.518 226.414C309.518 224.814 306.918 222.114 304.618 220.214C302.018 217.614 299.418 215.014 299.018 212.314C296.718 191.014 288.818 170.314 276.018 153.314C277.018 165.114 276.718 179.514 273.418 196.314C297.018 237.914 282.318 290.414 251.818 322.214C272.318 306.414 287.718 284.114 295.018 258.814Z" fill="white"/>
<path d="M176.92 240.115C173.32 226.015 159.22 218.515 154.62 218.815C149.42 219.515 142.12 220.415 139.82 222.115C144.12 215.515 150.02 212.315 155.92 210.615C160.82 196.515 171.32 167.615 173.62 165.715C174.92 164.715 178.22 163.715 183.82 162.115C187.12 161.415 191.72 160.115 192.32 159.515C193.62 157.515 206.72 126.115 207.72 123.815C207.42 121.515 200.82 104.815 193.92 88.7148C177.22 100.815 159.12 97.6149 159.12 97.6149C159.12 97.6149 171.92 94.0149 185.02 74.6149C197.82 55.3149 185.72 28.7148 185.72 28.7148C185.72 28.7148 140.82 96.2149 135.22 97.6149C129.62 98.9149 125.72 92.0148 125.72 92.0148C125.72 92.0148 113.92 122.815 110.62 134.015C107.32 145.115 111.32 155.615 114.22 160.915C117.52 166.115 124.42 179.315 114.92 192.715C116.22 186.815 110.32 177.615 106.02 172.015C104.42 186.415 100.12 220.915 98.8195 226.415C98.1195 230.315 95.8195 234.615 91.9195 242.115C89.9195 246.015 86.0195 252.915 85.0195 256.215C86.3195 262.115 91.2195 276.215 94.5195 280.515C99.1195 282.115 105.62 283.815 111.22 284.815C113.82 284.815 117.12 283.515 121.72 279.215C130.22 271.315 135.82 267.115 137.42 258.515C139.02 250.315 138.42 237.515 142.32 233.915C145.92 230.315 153.82 228.715 160.02 230.315C155.12 230.315 149.52 232.615 149.52 232.615C149.52 232.615 159.02 231.015 162.62 237.815C166.22 244.715 163.32 248.615 157.42 252.615C152.52 255.915 138.12 271.015 133.12 277.515H136.12H137.42H139.42H143.02C146.92 277.515 149.62 276.815 150.92 275.515C154.22 272.215 158.42 268.615 162.42 265.015C166.32 261.415 171.92 256.515 173.22 254.815C175.82 250.915 177.52 245.915 176.82 240.715V240.115H176.92ZM160.52 80.8148L182.52 48.3148C182.52 48.3148 185.52 61.4149 177.92 70.3148C168.42 81.1149 160.22 80.8148 160.52 80.8148ZM99.9195 264.115C95.6195 264.415 94.0195 259.215 95.0195 256.215C96.0195 253.615 106.82 234.615 106.82 234.615L104.22 247.715C104.22 247.715 109.42 247.015 109.42 252.915C109.42 257.515 104.12 263.715 99.9195 264.115ZM134.32 167.015C132.32 174.515 115.62 171.315 121.82 147.315C121.82 147.315 124.82 158.815 127.72 157.815C130.72 156.815 164.12 104.415 164.12 104.415C164.12 104.415 159.82 118.215 156.92 125.115C168.42 127.415 171.72 140.815 165.42 148.115C159.22 154.915 143.52 164.715 134.32 167.015Z" fill="white"/>
<path d="M209.42 70.6152C207.12 74.2152 204.82 77.5152 202.52 80.1152C207.42 92.2152 220.22 124.015 220.22 125.715C220.22 127.715 214.02 143.715 213.32 144.415C212.62 144.715 205.12 145.415 202.22 145.415C198.92 153.315 195.62 160.815 195.02 161.815C194.02 163.115 191.12 164.115 184.82 165.715C181.52 166.715 176.62 168.015 175.92 168.715C174.32 170.715 165.42 193.915 159.52 210.315C167.42 209.015 174.32 210.615 175.92 211.315C188.72 187.015 198.92 173.915 201.52 173.915C204.12 173.615 235.32 178.215 247.42 149.015C259.22 120.115 242.22 95.6152 241.52 94.6152C242.22 94.9152 268.42 107.115 274.92 146.415C289.72 165.115 299.22 187.715 301.82 211.715C301.82 213.315 304.42 215.615 306.12 217.615C309.12 220.615 312.02 223.515 312.02 226.515C312.02 234.415 311.32 242.215 310.02 249.815C309.32 252.415 306.12 254.415 302.82 256.015C300.82 257.315 297.92 259.015 297.62 259.915C290.42 285.815 274.02 308.815 252.72 325.215C297.92 303.615 329.12 257.315 329.12 204.215C329.12 134.915 276.62 77.8152 209.42 70.6152Z" fill="white"/>
<path d="M157.918 242.715C157.918 238.115 151.718 237.115 149.018 237.815C146.418 238.515 145.718 242.715 145.418 245.015C145.118 247.315 145.418 254.515 142.418 258.815C143.118 258.115 147.618 253.215 149.918 250.915C153.318 248.015 157.918 247.015 157.918 242.715Z" fill="white"/>
<path d="M104.819 112.614C107.119 108.314 105.119 105.414 103.219 103.714C102.919 103.414 102.519 103.014 102.519 103.014C98.6188 101.014 74.0187 91.9145 49.7188 83.3145C71.0187 97.4145 94.6188 111.214 98.6188 113.114C101.519 114.514 103.519 114.914 104.819 112.614Z" fill="white"/>
<path d="M197.719 97.6149C196.519 94.7149 195.219 91.7148 193.919 88.7148C177.619 100.515 160.119 97.7149 159.219 97.6149C160.119 97.7149 177.519 103.215 197.719 97.6149Z" fill="#94A6C3"/>
<path d="M231.92 75.0152C224.62 72.9152 217.12 71.4152 209.42 70.6152C207.12 74.2152 204.82 77.5152 202.52 80.1152C203.92 83.5152 205.92 88.4152 208.02 93.8152C216.12 89.9152 224.42 84.0152 231.92 75.0152Z" fill="#94A6C3"/>
<path d="M176.92 240.115C173.32 226.015 159.22 218.515 154.62 218.815C149.42 219.515 142.12 220.415 139.82 222.115C144.12 215.515 150.02 212.315 155.92 210.615C157.62 205.815 159.92 199.315 162.32 192.715C156.72 195.715 136.92 206.215 135.22 207.315C133.22 208.615 126.32 222.415 121.12 236.815C118.12 227.615 111.62 222.015 111.32 221.715C111.62 223.315 118.52 250.615 116.22 258.815C113.92 267.315 99.5195 274.915 99.5195 274.915L121.22 279.715C121.42 279.515 121.62 279.315 121.82 279.115C130.32 271.215 135.92 267.015 137.52 258.415C139.12 250.215 138.52 237.415 142.42 233.815C146.02 230.215 153.92 228.615 160.12 230.215C158.32 230.215 156.52 230.515 154.82 230.915C160.42 231.015 167.82 233.115 167.62 244.315C167.62 252.815 158.12 253.515 148.62 261.415C146.72 263.015 144.62 264.815 142.52 266.815C138.72 270.915 135.22 274.915 133.22 277.515H143.02C146.92 277.515 149.62 276.815 150.92 275.515C154.22 272.215 158.42 268.615 162.42 265.015C166.32 261.415 171.92 256.515 173.22 254.815C175.82 250.915 177.52 245.915 176.82 240.715V240.115H176.92Z" fill="#94A6C3"/>
<path d="M204.119 165.416C192.619 165.416 177.219 172.916 177.219 172.916L162.119 209.916C168.819 209.316 174.419 210.616 175.919 211.216C188.719 186.916 198.919 173.816 201.519 173.816C204.119 173.516 235.319 178.116 247.419 148.916C259.219 120.016 242.219 95.5156 241.519 94.5156C255.319 139.816 224.819 165.016 204.119 165.416Z" fill="#94A6C3"/>
<path d="M295.02 258.814C295.72 256.214 298.62 254.514 301.92 252.914C304.22 251.614 307.12 249.914 307.52 249.014C308.82 241.514 309.52 233.914 309.52 226.414C309.52 224.814 306.92 222.114 304.62 220.214C302.02 217.614 299.42 214.914 299.02 212.314C296.72 191.014 288.82 170.314 276.02 153.314C277.02 165.114 276.72 179.514 273.42 196.214C297.02 237.814 282.32 290.314 251.82 322.114C272.32 306.414 287.72 284.114 295.02 258.814Z" fill="#94A6C3"/>
<path d="M325.419 197.215C313.719 131.015 246.719 96.9152 241.619 94.6152C243.719 95.6152 267.519 107.715 274.519 144.015C290.819 163.015 301.019 186.815 303.819 211.915C303.819 213.515 306.119 215.815 308.419 217.815C311.419 220.815 314.319 223.715 314.319 226.715C314.319 234.615 313.619 242.415 312.319 250.015C311.619 252.615 308.419 254.315 305.119 256.215C303.119 257.515 300.219 259.215 299.919 260.115C293.219 283.815 279.219 304.915 260.619 320.915C259.119 322.215 257.619 323.415 256.019 324.715C291.319 304.715 316.219 274.315 324.319 239.715C327.419 226.015 328.019 211.715 325.419 197.215Z" fill="#94A6C3"/>
<path d="M136.918 160.815L154.018 131.615C154.018 131.615 163.818 136.515 158.918 144.415C152.618 153.615 136.918 160.815 136.918 160.815Z" fill="#FFD923"/>
<path d="M331.019 157.215C332.619 160.215 373.019 234.615 330.719 315.915C337.319 309.315 342.819 302.515 347.819 295.915C376.019 256.615 372.119 202.515 339.619 166.415C336.919 163.415 334.019 160.115 331.019 157.215Z" fill="#D82122"/>
<path d="M387.118 191.316C386.418 149.316 372.318 113.316 345.118 84.4155C344.818 84.1155 344.818 84.1155 344.418 83.7155C320.518 58.5155 285.418 46.6155 250.618 51.6155C237.518 53.2155 224.418 55.9155 214.218 59.1155C212.618 59.4155 210.918 59.8155 209.318 60.4155H210.018C212.618 60.1155 260.518 57.8155 305.118 87.3155C351.418 117.816 372.318 151.616 387.118 191.316Z" fill="#D82122"/>
<path d="M294.618 29.0145C273.018 18.2144 250.318 12.6145 227.718 12.3145C219.218 12.3145 211.318 13.0145 204.118 14.3145C178.518 18.9145 157.518 37.3145 150.318 61.8145C150.318 61.8145 155.518 53.6145 168.018 45.1145C172.618 38.9145 179.818 29.0145 186.718 20.8145C188.718 25.1145 191.018 30.3144 191.618 32.9144C214.318 24.4144 245.818 19.8145 294.618 29.0145Z" fill="#D82122"/>
<path d="M89.018 43.416C88.318 46.016 75.618 90.616 113.918 91.916C91.718 78.516 89.018 43.716 89.018 43.416Z" fill="#D82122"/>
<path d="M151.719 11.6152C149.419 12.6152 99.9189 28.7152 128.119 71.6152C128.119 71.6152 122.219 29.3152 151.719 11.6152Z" fill="#D82122"/>
</svg>
