<svg width="808" height="402" viewBox="0 0 808 402" fill="none" xmlns="http://www.w3.org/2000/svg">
<path d="M244.096 3.40946L156.411 156.266L61.4481 10.5857L0 13L129.488 210.485L132.317 324.587L186.978 322.439L184.149 208.338L305.544 0.995158L244.096 3.40946Z" fill="url(#paint0_linear)"/>
<path d="M301.988 3.1362L182.428 207.345L182.137 207.843L182.151 208.416L184.93 320.518L134.266 322.509L131.487 210.407L131.473 209.841L131.164 209.37L3.62579 14.8589L60.3774 12.6291L154.732 157.376L156.505 160.095L158.141 157.243L245.265 5.36486L301.988 3.1362Z" stroke="url(#paint1_linear)" stroke-opacity="0.15" stroke-width="4"/>
<path d="M678.429 79.7816C610.072 82.4673 558.863 137.067 560.558 205.455L565.412 401.283L619.378 399.162L617.041 304.858C636.618 316.469 659.826 322.839 684.309 321.877C752.665 319.192 803.871 264.471 802.179 196.204C800.602 127.69 746.664 77.1006 678.429 79.7816ZM683.086 267.671C644.545 269.186 615.572 242.011 614.616 203.452C613.66 164.893 641.256 136.497 679.797 134.983C718.338 133.468 747.287 159.643 748.242 198.202C749.195 236.64 721.506 266.162 683.086 267.671Z" fill="url(#paint2_linear)"/>
<path d="M615.042 304.936L617.33 397.241L567.361 399.205L562.557 205.376C560.889 138.092 611.225 84.4233 678.478 81.781C745.608 79.1435 798.629 128.87 800.181 196.279L800.181 196.283C801.846 263.447 751.51 317.236 684.259 319.878C660.175 320.824 637.342 314.558 618.078 303.132L614.952 301.278L615.042 304.936ZM612.618 203.531C613.601 243.194 643.491 271.228 683.136 269.671C722.66 268.118 751.221 237.666 750.241 198.123C749.257 158.42 719.352 131.427 679.747 132.983C640.143 134.539 611.633 163.827 612.618 203.531Z" stroke="url(#paint3_linear)" stroke-opacity="0.15" stroke-width="4"/>
<path d="M337.948 167.002C313.224 167.974 292.396 149.979 289.256 126.071C288.944 123.291 291.069 120.902 293.735 120.797L302.219 120.464C305.007 120.354 307.24 122.33 307.79 124.978C310.439 138.832 322.826 149.148 337.492 148.571C352.157 147.995 364.012 136.849 365.966 122.692C366.385 120.006 368.515 117.859 371.303 117.749L379.787 117.416C382.574 117.306 384.816 119.646 384.519 122.328C382.569 146.436 362.552 166.036 337.948 167.002Z" fill="url(#paint4_linear)"/>
<path d="M382.532 122.135L382.529 122.165L382.526 122.195C380.658 145.291 361.472 164.077 337.899 165.003C314.215 165.933 294.259 148.7 291.241 125.803C291.07 124.197 292.293 122.855 293.785 122.796L302.269 122.463C303.98 122.396 305.449 123.595 305.83 125.399C308.664 140.177 321.877 151.186 337.541 150.571C353.197 149.956 365.85 138.059 367.944 122.958C368.236 121.127 369.642 119.816 371.353 119.749L379.836 119.415C381.482 119.351 382.688 120.728 382.532 122.135Z" stroke="url(#paint5_linear)" stroke-opacity="0.15" stroke-width="4"/>
<path d="M495.034 151.485L486.55 151.818C483.762 151.927 481.53 149.952 480.979 147.303C478.33 133.449 465.943 123.134 451.278 123.71C436.613 124.286 424.757 135.433 422.803 149.589C422.384 152.276 420.254 154.423 417.466 154.532L408.982 154.866C406.195 154.975 403.953 152.636 404.251 149.954C406.201 125.845 426.096 106.251 450.821 105.279C475.546 104.308 496.373 122.302 499.513 146.211C499.822 148.869 497.7 151.38 495.034 151.485Z" fill="url(#paint6_linear)"/>
<path d="M406.237 150.146L406.241 150.116L406.243 150.087C408.112 126.987 427.18 108.209 450.871 107.278C474.556 106.348 494.513 123.584 497.529 146.483C497.696 147.991 496.45 149.428 494.984 149.485L486.5 149.819C484.789 149.886 483.321 148.687 482.939 146.882C480.105 132.105 466.892 121.095 451.228 121.711C435.572 122.326 422.92 134.223 420.826 149.324C420.534 151.154 419.128 152.466 417.417 152.533L408.933 152.866C407.287 152.931 406.081 151.553 406.237 150.146Z" stroke="url(#paint7_linear)" stroke-opacity="0.15" stroke-width="4"/>
<path d="M286.262 205.93C284.444 206.002 283.15 207.631 283.313 209.323C287.921 243.491 307.804 272.325 335.646 289.437L333.53 204.073L286.262 205.93Z" fill="#FF0B4A"/>
<path d="M333.53 204.073L335.646 289.437C353.018 300.164 373.547 306.154 395.499 305.898L392.917 201.74L333.53 204.073Z" fill="#FF9C00"/>
<path d="M395.5 305.899C396.469 305.861 397.563 305.939 398.533 305.901C419.015 305.096 438.151 298.882 454.396 288.656L452.184 199.412L392.796 201.745L395.378 305.903L395.5 305.899Z" fill="#F6C900"/>
<path d="M508.869 200.293C509.068 198.449 507.566 197.04 505.733 197.112L451.858 199.229L454.088 289.201C484.676 270.134 505.756 237.491 508.869 200.293Z" fill="#00E586"/>
<g filter="url(#filter0_i)">
<path d="M512.922 188.193L276.604 197.478L280.093 237.367L298.034 275.188L344.717 302.373L398.961 311.75L442.791 304.524L483.201 280.421L505.477 251.027L513.541 213.185L512.922 188.193Z" fill="white" fill-opacity="0.01"/>
</g>
<path d="M401.292 324.241C327.633 328.349 265.749 269.123 263.918 195.278L263.864 193.095C263.801 190.549 265.81 188.407 268.355 188.307L522.632 178.316C525.177 178.216 527.288 180.196 527.351 182.743L527.466 187.351C529.369 259.25 472.891 320.214 401.292 324.241ZM286.262 205.93C284.444 206.002 283.15 207.631 283.313 209.323C291.019 265.702 340.232 308.07 398.529 305.78C456.826 303.489 503.845 257.34 508.744 200.466C508.941 198.638 507.451 197.24 505.633 197.311L286.262 205.93Z" fill="url(#paint8_linear)"/>
<path d="M525.467 187.429L525.467 187.432C527.342 258.235 471.721 318.278 401.209 322.243C328.71 326.286 267.72 267.971 265.917 195.199L265.862 193.017C265.827 191.575 266.963 190.363 268.405 190.306L522.681 180.315C524.123 180.259 525.317 181.379 525.353 182.821L525.467 187.429ZM281.323 209.544L281.327 209.584L281.332 209.623C289.174 266.995 339.25 310.11 398.579 307.779C457.902 305.448 505.74 258.496 510.734 200.628C511.062 197.45 508.438 195.2 505.583 195.312L286.212 203.931C283.169 204.051 281.055 206.764 281.323 209.544Z" stroke="url(#paint9_linear)" stroke-opacity="0.15" stroke-width="4"/>
<defs>
<filter id="filter0_i" x="276.604" y="188.193" width="236.937" height="134.557" filterUnits="userSpaceOnUse" color-interpolation-filters="sRGB">
<feFlood flood-opacity="0" result="BackgroundImageFix"/>
<feBlend mode="normal" in="SourceGraphic" in2="BackgroundImageFix" result="shape"/>
<feColorMatrix in="SourceAlpha" type="matrix" values="0 0 0 0 0 0 0 0 0 0 0 0 0 0 0 0 0 0 127 0" result="hardAlpha"/>
<feOffset dy="28"/>
<feGaussianBlur stdDeviation="5.5"/>
<feComposite in2="hardAlpha" operator="arithmetic" k2="-1" k3="1"/>
<feColorMatrix type="matrix" values="0 0 0 0 0 0 0 0 0 0 0 0 0 0 0 0 0 0 0.03 0"/>
<feBlend mode="normal" in2="shape" result="effect1_innerShadow"/>
</filter>
<linearGradient id="paint0_linear" x1="152.772" y1="6.99758" x2="165.199" y2="323.295" gradientUnits="userSpaceOnUse">
<stop stop-color="#FBFBFB"/>
<stop offset="0.494792" stop-color="white"/>
<stop offset="1" stop-color="#FDFDFD"/>
</linearGradient>
<linearGradient id="paint1_linear" x1="152.772" y1="6.99758" x2="165.199" y2="323.295" gradientUnits="userSpaceOnUse">
<stop stop-color="#DADADA" stop-opacity="0.66"/>
<stop offset="1" stop-color="#DADADA" stop-opacity="0.35"/>
</linearGradient>
<linearGradient id="paint2_linear" x1="678.368" y1="79.784" x2="690.806" y2="396.356" gradientUnits="userSpaceOnUse">
<stop stop-color="#FBFBFB"/>
<stop offset="0.494792" stop-color="white"/>
<stop offset="1" stop-color="#FDFDFD"/>
</linearGradient>
<linearGradient id="paint3_linear" x1="678.368" y1="79.784" x2="690.806" y2="396.356" gradientUnits="userSpaceOnUse">
<stop stop-color="#DADADA" stop-opacity="0.66"/>
<stop offset="1" stop-color="#DADADA" stop-opacity="0.35"/>
</linearGradient>
<linearGradient id="paint4_linear" x1="336.772" y1="119.106" x2="338.653" y2="166.975" gradientUnits="userSpaceOnUse">
<stop stop-color="#FBFBFB"/>
<stop offset="0.494792" stop-color="white"/>
<stop offset="1" stop-color="#FDFDFD"/>
</linearGradient>
<linearGradient id="paint5_linear" x1="336.772" y1="119.106" x2="338.653" y2="166.975" gradientUnits="userSpaceOnUse">
<stop stop-color="#DADADA" stop-opacity="0.66"/>
<stop offset="1" stop-color="#DADADA" stop-opacity="0.35"/>
</linearGradient>
<linearGradient id="paint6_linear" x1="450.81" y1="105.28" x2="452.691" y2="153.148" gradientUnits="userSpaceOnUse">
<stop stop-color="#FBFBFB"/>
<stop offset="0.494792" stop-color="white"/>
<stop offset="1" stop-color="#FDFDFD"/>
</linearGradient>
<linearGradient id="paint7_linear" x1="450.81" y1="105.28" x2="452.691" y2="153.148" gradientUnits="userSpaceOnUse">
<stop stop-color="#DADADA" stop-opacity="0.66"/>
<stop offset="1" stop-color="#DADADA" stop-opacity="0.35"/>
</linearGradient>
<linearGradient id="paint8_linear" x1="395.494" y1="183.311" x2="401.032" y2="324.269" gradientUnits="userSpaceOnUse">
<stop stop-color="#FBFBFB"/>
<stop offset="0.494792" stop-color="white"/>
<stop offset="1" stop-color="#FDFDFD"/>
</linearGradient>
<linearGradient id="paint9_linear" x1="395.494" y1="183.311" x2="401.032" y2="324.269" gradientUnits="userSpaceOnUse">
<stop stop-color="#DADADA" stop-opacity="0.66"/>
<stop offset="1" stop-color="#DADADA" stop-opacity="0.35"/>
</linearGradient>
</defs>
</svg>
