<svg width="716" height="140" fill="none" xmlns="http://www.w3.org/2000/svg"><path d="M201.94 82.05c2.99.86 5.62 2.66 7.52 5.12a13.81 13.81 0 0 1 2.72 8.72 13 13 0 0 1-5.76 11.36c-3.79 2.62-9.33 3.93-16.64 3.92h-28.96v-56h27.36c6.82 0 12.05 1.3 15.68 3.92a12.36 12.36 0 0 1 5.52 10.63 13.62 13.62 0 0 1-7.44 12.29v.04ZM173.7 64.92v13.2h12.88c3.2 0 5.62-.55 7.28-1.67a5.6 5.6 0 0 0 2.48-4.96 5.42 5.42 0 0 0-2.48-4.89c-1.66-1.12-4.08-1.68-7.28-1.68H173.7Zm15.14 36.5c3.4 0 5.97-.56 7.67-1.68a5.74 5.74 0 0 0 2.64-5.21c0-4.64-3.44-6.96-10.31-6.96H173.7v13.85h15.14ZM221.12 68.13h12.48v43.04h-12.48V68.13Zm6.23-6a7.93 7.93 0 0 1-5.6-2.05 6.77 6.77 0 0 1 0-9.92 7.93 7.93 0 0 1 5.6-2.04c2.05-.1 4.05.6 5.61 1.92a6.14 6.14 0 0 1 2.16 4.8 6.95 6.95 0 0 1-2.16 5.33 7.94 7.94 0 0 1-5.6 1.96ZM258.87 69.09h11.04v9.6h-10.72v32.48H246.7V78.69h-6.64v-9.6h6.64v-1.92c0-4.91 1.44-8.8 4.32-11.68 2.88-2.88 6.97-4.32 12.28-4.32 1.78-.01 3.56.2 5.29.63 1.5.3 2.94.86 4.24 1.68l-3.28 9.05a8.55 8.55 0 0 0-4.98-1.53c-3.78 0-5.68 2.08-5.68 6.25l-.03 1.84ZM294.46 73.8c1.52-2.1 3.6-3.73 6-4.71 2.8-1.12 5.8-1.66 8.8-1.6V79c-1.39-.1-2.32-.17-2.8-.17-3.58 0-6.38 1.03-8.4 3.07-2.03 2.05-3.05 5.04-3.07 8.97v20.32h-12.45v-43h11.92v5.6ZM336.78 111.81c-4.26.08-8.48-.88-12.28-2.8a21.4 21.4 0 0 1-8.37-7.9 23.04 23.04 0 0 1 0-22.87 20.85 20.85 0 0 1 8.4-7.83 25.7 25.7 0 0 1 12.3-2.89c4.2-.06 8.38.93 12.11 2.9 3.48 1.76 6.4 4.48 8.4 7.83a23.04 23.04 0 0 1 0 22.88 21.39 21.39 0 0 1-8.4 7.92 25.77 25.77 0 0 1-12.16 2.76Zm0-10.23a10.33 10.33 0 0 0 7.84-3.2 12.15 12.15 0 0 0 3.12-8.72 11.89 11.89 0 0 0-3.12-8.65 10.23 10.23 0 0 0-7.84-3.27 10.47 10.47 0 0 0-7.92 3.27 11.86 11.86 0 0 0-3.13 8.65c-.15 3.2.97 6.34 3.13 8.72a10.59 10.59 0 0 0 7.92 3.19ZM383.21 111.81c-3.53 0-7.05-.42-10.48-1.28a28.26 28.26 0 0 1-8.19-3.35l4.17-8.97a26.86 26.86 0 0 0 6.96 3.07c2.6.73 5.3 1.1 8 1.12 5.28 0 7.91-1.3 7.91-3.92a2.76 2.76 0 0 0-2.12-2.66 31 31 0 0 0-6.63-1.37 63.47 63.47 0 0 1-8.72-1.84 13.83 13.83 0 0 1-6-3.68c-1.66-1.76-2.49-4.27-2.49-7.53-.03-2.58.79-5.1 2.33-7.16a15.35 15.35 0 0 1 6.88-4.97 29.85 29.85 0 0 1 10.72-1.76c3.04 0 6.08.34 9.04 1.03 2.64.48 5.18 1.4 7.52 2.72l-4.16 8.87a24.88 24.88 0 0 0-12.4-3.19c-2.07-.12-4.13.26-6 1.12a3.3 3.3 0 0 0-2.05 2.88 2.85 2.85 0 0 0 2.19 2.78c2.24.72 4.54 1.23 6.88 1.52 2.92.45 5.8 1.1 8.64 1.92 2.24.64 4.26 1.89 5.84 3.6a10.36 10.36 0 0 1 2.48 7.36c.04 2.59-.8 5.12-2.4 7.16a15.68 15.68 0 0 1-7.04 4.89 31.67 31.67 0 0 1-10.88 1.64ZM439 109.1a13.25 13.25 0 0 1-4.57 2.04c-1.83.44-3.71.65-5.6.64-5.12 0-9.09-1.3-11.91-3.92-2.83-2.61-4.22-6.45-4.17-11.52V78.69h-6.64v-9.6h6.64V58.6h12.48v10.48h10.73v9.6h-10.73v17.52c-.1 1.54.4 3.05 1.36 4.24a5.4 5.4 0 0 0 4 1.44c1.82.05 3.6-.51 5.05-1.6l3.36 8.8ZM548.92 55.17l-18.88 56h-6.25L507.42 63.4l-16.51 47.76h-6.15l-18.9-56h6.09l16.16 48.16 16.72-48.1h5.53l16.48 48.4 16.37-48.4 5.71-.06ZM570.1 68.76c5.5 0 9.7 1.39 12.63 4.17 2.93 2.78 4.4 6.83 4.4 12.16v26.08h-5.43v-6.56a12.98 12.98 0 0 1-5.68 5.11 19.44 19.44 0 0 1-8.8 1.84c-4.7 0-8.44-1.12-11.21-3.36a11.6 11.6 0 0 1-.32-17.52c2.62-2.18 6.75-3.28 12.4-3.28h13.31v-2.56c0-3.63-1.02-6.37-3.07-8.25-2.04-1.87-4.98-2.87-8.88-2.87-2.62-.01-5.22.45-7.68 1.36-2.32.78-4.47 2-6.32 3.6l-2.56-4.25a22.3 22.3 0 0 1 7.68-4.15 29.18 29.18 0 0 1 9.52-1.52Zm-2.05 38.33c2.88.07 5.71-.68 8.19-2.16a13.36 13.36 0 0 0 5.11-6.4v-6.88h-13.2c-7.2 0-10.8 2.5-10.8 7.52a6.95 6.95 0 0 0 2.8 5.84c1.94 1.39 4.58 2.08 7.95 2.08h-.05ZM602.57 51.8h5.68v59.37h-5.68V51.8ZM624.06 51.8h5.68v59.37h-5.68V51.8ZM682.22 91.9H647a15.16 15.16 0 0 0 5.03 10.65 16.8 16.8 0 0 0 11.53 4c2.46.03 4.9-.43 7.17-1.36a16.12 16.12 0 0 0 5.68-4.16l3.2 3.68a17.89 17.89 0 0 1-7.04 5.12 23.3 23.3 0 0 1-9.21 1.76c-4.01.08-7.97-.86-11.52-2.71a20.38 20.38 0 0 1-7.77-7.7 21.8 21.8 0 0 1-2.78-11.05c-.07-3.84.84-7.64 2.64-11.04a19.78 19.78 0 0 1 7.36-7.6 20.77 20.77 0 0 1 10.56-2.73c3.68-.05 7.3.89 10.48 2.72 3.09 1.81 5.6 4.45 7.28 7.61a22.5 22.5 0 0 1 2.64 11.04l-.02 1.78Zm-20.35-18.26a14.4 14.4 0 0 0-10.24 3.92A15.14 15.14 0 0 0 647 87.65h29.84a14.98 14.98 0 0 0-9.46-13.07c-1.75-.67-3.63-1-5.5-.94ZM716 108.61a11.05 11.05 0 0 1-4 2.24c-1.58.49-3.23.73-4.88.72-3.94 0-6.98-1.07-9.13-3.2-2.13-2.14-3.2-5.11-3.2-9.04V73.89h-7.51v-4.8h7.51v-9.21h5.7v9.21h12.79v4.8h-12.8v25.12a8.19 8.19 0 0 0 1.83 5.76 7.36 7.36 0 0 0 5.45 1.93c1.14 0 2.28-.2 3.36-.57a8.67 8.67 0 0 0 2.88-1.6l2 4.08ZM2.88 0A2.78 2.78 0 0 0 .01 3v24.01c0 3.88 1.72 8.12 5.75 9.45l94.63 31.89c3.08 1.02 7.03 3.85 3.08 7.77 3.52-1.96 9.92-3.5 9.92-10.3V48.27c0-8.3-3.89-11.47-10.09-13.62L3.6.17C3.37.07 3.13.02 2.88 0Zm55.47 56.36L33.7 64.9c-6.15 2.15-10.1 5.32-10.1 13.63v17.54c0 7.38 5.95 9.22 9.93 10.31-3.99-3.92 0-6.76 3.07-7.78l63.73-21.48a3.47 3.47 0 0 0 2.61-3.76c-.24-1.66-2.2-2.74-4.54-3.53L58.35 56.36ZM78.5 86.81 39.55 99.93c-1.81.62-4.2 1.81-4.5 3.65a3.9 3.9 0 0 0 2.57 4.18l44.77 15.07c3.07 1.02 6.5 4.24 2.5 8.19 3.99-1.03 10.46-3.3 10.46-10.69v-17.55c0-8.31-3.9-11.49-10.1-13.64l-6.75-2.33Zm-34.88 25.22v23.08c0 2.8 3.45 5.54 6.52 4.75l31.38-8.01A3.36 3.36 0 0 0 84 128c-.32-1.82-2.37-3.2-4.1-3.8l-36.28-12.18Z" fill="#fff"/></svg>