<svg width="1000" height="158" viewBox="0 0 1000 158" fill="none" xmlns="http://www.w3.org/2000/svg">
<mask id="mask0_2073_9063" style="mask-type:luminance" maskUnits="userSpaceOnUse" x="0" y="0" width="1000" height="158">
<path d="M1000 0H0V157.733H1000V0Z" fill="white"/>
</mask>
<g mask="url(#mask0_2073_9063)">
<path d="M120.764 0H36.9686C16.5514 0 0 16.5514 0 36.9686V120.764C0 141.182 16.5514 157.733 36.9686 157.733H120.764C141.182 157.733 157.733 141.182 157.733 120.764V36.9686C157.733 16.5514 141.182 0 120.764 0Z" fill="#001F29"/>
<path d="M65.4607 23.1749C59.0927 23.1719 52.7357 23.1689 46.3457 23.1779C42.4817 23.1779 41.0327 28.0289 43.9067 30.9019L87.4047 74.4009C88.7627 75.6429 89.6087 76.9919 89.6397 78.7709C89.6087 80.5499 88.7627 81.8999 87.4047 83.1409L43.9067 126.64C41.0327 129.513 42.4817 134.364 46.3457 134.364C52.7357 134.373 59.0927 134.37 65.4607 134.367C68.6487 134.365 71.8397 134.364 75.0387 134.364C79.2237 134.364 81.7137 132.128 83.9497 129.892L123.18 90.6619C126.31 87.5309 129.112 83.3739 129.074 78.7709C129.112 74.1679 126.31 70.0109 123.18 66.8799L83.9497 27.6499C81.7137 25.4139 79.2237 23.1779 75.0387 23.1779C71.8397 23.1779 68.6487 23.1769 65.4607 23.1749Z" fill="#00F0FF"/>
<path d="M986.891 128.242C973.051 128.242 966.58 121.021 966.58 108.232V73.3273H961.171C958.911 73.3273 957.561 71.9733 957.561 69.7163V62.6453C957.561 60.3883 958.911 59.0343 961.171 59.0343H966.58V41.4313C966.58 39.1743 967.94 37.8203 970.19 37.8203H981.781C984.041 37.8203 985.391 39.1743 985.391 41.4313V59.0343H996.521C998.781 59.0343 1000.13 60.3883 1000.13 62.6453V69.7163C1000.13 71.9733 998.781 73.3273 996.521 73.3273H985.391V105.223C985.391 113.348 990.35 113.648 994.72 113.648H995.771C998.031 113.648 999.38 115.003 999.38 117.259V124.632C999.38 126.888 998.031 128.242 995.771 128.242H986.891Z" fill="white"/>
<path d="M920.011 129.749C898.801 129.749 884.801 114.252 884.801 93.6396C884.801 73.0276 898.341 57.6816 919.261 57.6816C939.871 57.6816 952.501 73.0276 952.501 93.6396V95.1436C952.501 97.4006 951.151 98.7546 948.891 98.7546H902.861C904.661 108.083 911.431 113.65 920.011 113.65C926.931 113.65 931.291 111.243 934.151 108.685C935.811 107.181 937.311 106.88 939.121 108.234L946.191 113.5C948.141 115.004 948.591 116.509 947.241 118.164C941.071 125.385 931.441 129.749 920.011 129.749ZM903.161 86.8687H934.901C933.251 78.7447 928.131 72.5757 919.261 72.5757C910.681 72.5757 904.961 78.1427 903.161 86.8687Z" fill="white"/>
<path d="M858.427 128.244C856.17 128.244 854.816 126.889 854.816 124.633V34.0602C854.816 31.8032 856.17 30.4492 858.427 30.4492H870.16C872.42 30.4492 873.77 31.8032 873.77 34.0602L873.62 124.633C873.62 126.889 872.27 128.244 870.01 128.244H858.427Z" fill="white"/>
<path d="M825.88 128.244C823.623 128.244 822.27 126.889 822.27 124.633V34.0602C822.27 31.8032 823.623 30.4492 825.88 30.4492H837.615C839.872 30.4492 841.226 31.8032 841.226 34.0602L841.076 124.633C841.076 126.889 839.722 128.244 837.465 128.244H825.88Z" fill="white"/>
<path d="M770.012 129.447C751.056 129.447 737.215 114.251 737.215 93.6394C737.215 72.7264 751.056 57.9824 770.012 57.9824C778.737 57.9824 785.206 61.1414 789.87 66.4074V62.6464C789.87 60.3894 791.224 59.0354 793.481 59.0354H805.065C807.322 59.0354 808.676 60.3894 808.676 62.6464V124.633C808.676 126.889 807.322 128.243 805.065 128.243H793.481C791.224 128.243 789.87 126.889 789.87 124.633V121.022C785.206 126.287 778.737 129.447 770.012 129.447ZM772.72 111.694C783.1 111.694 789.87 104.02 789.87 93.6394C789.87 83.2584 783.1 75.5854 772.72 75.5854C762.339 75.5854 755.419 83.2584 755.419 93.6394C755.419 104.02 762.339 111.694 772.72 111.694Z" fill="white"/>
<path d="M639.055 128.244C636.949 128.244 635.445 127.19 634.843 125.234L604.604 34.5112C603.852 32.1042 605.055 30.4492 607.613 30.4492H620.701C622.807 30.4492 624.312 31.5022 624.914 33.4582L644.622 92.7372L664.18 33.4582C664.781 31.5022 666.135 30.4492 668.242 30.4492H676.215C678.321 30.4492 679.826 31.5022 680.428 33.4582L699.534 90.3292L718.49 33.4582C719.092 31.5022 720.596 30.4492 722.702 30.4492H735.791C738.349 30.4492 739.552 32.1042 738.8 34.5112L708.561 125.234C707.959 127.19 706.454 128.244 704.348 128.244H693.968C691.861 128.244 690.357 127.19 689.755 125.234L671.702 70.6202L653.649 125.234C653.047 127.19 651.542 128.244 649.436 128.244H639.055Z" fill="white"/>
<path d="M557.211 128.242C543.37 128.242 536.901 121.021 536.901 108.232V73.3273H531.485C529.229 73.3273 527.875 71.9733 527.875 69.7163V62.6453C527.875 60.3883 529.229 59.0343 531.485 59.0343H536.901V41.4313C536.901 39.1743 538.255 37.8203 540.512 37.8203H552.096C554.353 37.8203 555.707 39.1743 555.707 41.4313V59.0343H566.84C569.096 59.0343 570.45 60.3883 570.45 62.6453V69.7163C570.45 71.9733 569.096 73.3273 566.84 73.3273H555.707V105.223C555.707 113.348 560.671 113.648 565.034 113.648H566.087C568.344 113.648 569.698 115.003 569.698 117.259V124.632C569.698 126.888 568.344 128.242 566.087 128.242H557.211Z" fill="white"/>
<path d="M490.327 129.749C469.114 129.749 455.123 114.252 455.123 93.6396C455.123 73.0276 468.663 57.6816 489.575 57.6816C510.186 57.6816 522.823 73.0276 522.823 93.6396V95.1436C522.823 97.4006 521.469 98.7546 519.212 98.7546H473.176C474.982 108.083 481.752 113.65 490.327 113.65C497.247 113.65 501.61 111.243 504.469 108.685C506.124 107.181 507.628 106.88 509.433 108.234L516.504 113.5C518.46 115.004 518.911 116.509 517.557 118.164C511.389 125.385 501.761 129.749 490.327 129.749ZM473.477 86.8687H505.221C503.566 78.7447 498.451 72.5757 489.575 72.5757C480.999 72.5757 475.283 78.1427 473.477 86.8687Z" fill="white"/>
<path d="M407.072 157.732C396.09 157.732 386.762 153.971 380.293 147.953C378.488 146.298 378.789 144.492 380.594 142.837L387.364 137.12C389.019 135.616 390.674 135.766 392.479 137.12C397.293 141.032 402.559 141.935 407.072 141.935C413.541 141.935 425.276 138.324 425.276 123.429V120.871C420.612 126.137 413.993 129.447 405.267 129.447C386.311 129.447 372.621 114.251 372.621 93.6394C372.621 73.0274 386.311 57.9824 405.267 57.9824C413.993 57.9824 420.612 61.1414 425.276 66.5584V62.6464C425.276 60.3894 426.63 59.0354 428.887 59.0354H440.471C442.728 59.0354 444.082 60.3894 444.082 62.6464V123.429C444.082 143.289 430.993 157.732 407.072 157.732ZM407.975 111.694C418.356 111.694 425.276 104.02 425.276 93.6394C425.276 83.2584 418.356 75.5854 407.975 75.5854C397.594 75.5854 390.824 83.2584 390.824 93.6394C390.824 104.02 397.594 111.694 407.975 111.694Z" fill="white"/>
<path d="M353.942 128.242C340.101 128.242 333.632 121.021 333.632 108.232V73.3273H328.216C325.959 73.3273 324.605 71.9733 324.605 69.7163V62.6453C324.605 60.3883 325.959 59.0343 328.216 59.0343H333.632V41.4313C333.632 39.1743 334.986 37.8203 337.243 37.8203H348.827C351.084 37.8203 352.438 39.1743 352.438 41.4313V59.0343H363.57C365.827 59.0343 367.181 60.3883 367.181 62.6453V69.7163C367.181 71.9733 365.827 73.3273 363.57 73.3273H352.438V105.223C352.438 113.348 357.402 113.648 361.765 113.648H362.818C365.075 113.648 366.429 115.003 366.429 117.259V124.632C366.429 126.888 365.075 128.242 362.818 128.242H353.942Z" fill="white"/>
<path d="M305.191 48.8038C300.076 48.8038 294.811 44.8918 294.811 38.2718C294.811 31.8028 300.076 28.3418 305.191 28.3418C310.156 28.3418 315.572 31.8028 315.572 38.2718C315.572 44.8918 310.156 48.8038 305.191 48.8038ZM299.324 128.243C297.067 128.243 295.713 126.889 295.713 124.632V62.6458C295.713 60.3888 297.067 59.0348 299.324 59.0348H311.059C313.315 59.0348 314.669 60.3888 314.669 62.6458L314.519 124.632C314.519 126.889 313.165 128.243 310.908 128.243H299.324Z" fill="white"/>
<path d="M210.634 128.244C208.377 128.244 207.023 126.889 207.023 124.633V34.0602C207.023 31.8032 208.377 30.4492 210.634 30.4492H252.607C267.652 30.4492 281.041 40.2292 281.041 57.9822C281.041 67.3102 277.431 73.6292 271.864 77.5412C279.387 81.7542 284.652 89.1262 284.652 99.9582C284.652 117.712 270.36 128.244 255.315 128.244H210.634ZM226.43 70.0182H249.448C256.519 70.0182 261.032 65.8062 261.032 59.0352C261.032 52.2652 256.519 48.2032 249.448 48.2032H226.43V70.0182ZM226.43 110.49H252.156C259.979 110.49 264.643 105.074 264.643 98.3032C264.643 91.5332 259.678 86.1172 252.156 86.1172H226.43V110.49Z" fill="white"/>
</g>
</svg>
