<svg xmlns="http://www.w3.org/2000/svg" width="203" height="71" fill="none"><path fill="#1A3B8B" fill-rule="evenodd" d="M202.596 17.011h-10.498l-6.049 25.63-.83 3.5c-.593.178-1.186.297-1.779.416-1.068.237-2.195.297-3.381.297-1.305 0-2.372-.238-3.202-.594a3.238 3.238 0 0 1-1.661-1.66c-.297-.713-.415-1.544-.356-2.493.059-.949.237-2.017.534-3.085l3.202-13.29 2.076-8.84h-10.675l-4.863 20.469a38.262 38.262 0 0 0-1.008 7c-.119 2.255.237 4.154 1.008 5.934.771 1.72 2.075 3.025 3.914 4.034 1.838 1.008 4.389 1.483 7.71 1.483 2.313 0 4.329-.237 5.99-.593.059 0 .178-.06.237-.06-.474 2.136-1.423 3.857-2.906 5.162-1.542 1.305-3.796 2.017-6.761 2.017-1.305 0-2.432-.06-3.499-.237l-2.076 8.662c1.364.178 2.906.237 4.626.237 3.203 0 5.99-.356 8.362-1.068 2.373-.771 4.389-1.839 6.169-3.322 1.719-1.483 3.143-3.382 4.329-5.518 1.186-2.254 2.076-4.865 2.787-7.95l7.236-30.435 1.364-5.696m-51.311 8.691c-4.918 0-5.807 0-7.821 1.012-1.422.774-2.607 1.845-3.614 3.155a16.184 16.184 0 0 0-2.429 4.464 16.05 16.05 0 0 0-.889 5.298c0 2.262.356 4.047 1.126 5.417.77 1.31 2.133 1.964 4.147 1.964 1.067 0 2.074-.238 2.903-.655.83-.416 1.837-1.13 2.785-2.143.118-1.19.237-2.38.474-3.69s.474-2.5.711-3.572l2.607-11.25m7.346 13.096a24.963 24.963 0 0 0-.592 8.095c.237 2.738 1.303 6.845 2.311 8.928h-10.132c-1.244-2.083-1.185-3.095-1.422-3.75-1.303 1.072-2.784 1.965-4.384 2.68-1.6.714-3.377 1.07-5.392 1.07-2.31 0-4.384-.416-5.983-1.25a10.68 10.68 0 0 1-4.088-3.333c-1.067-1.369-1.837-2.976-2.311-4.88-.474-1.906-.711-3.87-.711-6.013 0-3.273.593-6.31 1.718-9.166 1.185-2.858 2.785-5.417 4.799-7.56 2.014-2.143 6.991-6.905 15.049-6.905h16.234l-5.096 22.084m-61.455 8.085c.77.238 1.837.238 2.963.238 1.837 0 3.497-.297 5.037-1.01 1.482-.712 2.845-1.663 3.912-2.85 1.066-1.248 1.837-2.732 2.489-4.395.592-1.722.889-3.623.889-5.701 0-2.02-.415-3.8-1.304-5.166-.889-1.426-2.43-2.198-4.682-2.198h-4.148l-5.156 21.082Zm25.72-14.55c0 3.445-.593 6.593-1.719 9.502-1.126 2.851-2.726 5.345-4.741 7.424-2.015 2.078-4.385 3.682-7.23 4.87-2.844 1.187-5.867 1.781-9.126 1.781-1.6 0-3.2-.178-4.86-.416l-3.2 12.828H81.53l12.209-51.25h13.986c2.666 0 4.918.415 6.815 1.247 1.896.772 3.437 1.9 4.741 3.325 1.244 1.366 2.133 3.029 2.726 4.93.593 1.603.889 3.622.889 5.76ZM75.148 46.844c-1.304 0-2.37-.238-3.2-.594a3.246 3.246 0 0 1-1.66-1.665c-.296-.714-.414-1.546-.355-2.497.06-.951.237-2.022.533-3.092l3.2-13.317h11.912l2.193-8.86H75.8l2.785-11.176-11.2 1.664-7.112 30.024a38.464 38.464 0 0 0-1.008 7.016c-.118 2.26.237 4.162 1.008 5.945.77 1.724 2.074 3.033 3.911 4.043 1.838 1.011 4.386 1.486 7.704 1.486 2.312 0 4.327-.237 5.986-.594.178-.06.415-.119.593-.178l2.192-9.097c-.77.238-1.481.416-2.192.535a15.344 15.344 0 0 1-3.32.357M48.395 16.893l-9.3 38.928h10.552l9.24-38.928H48.394m11.741-4.465 1.604-6.785H51.22l-1.604 6.785h10.52M16.07 47.09c1.662 0 3.205-.356 4.629-1.247a12.18 12.18 0 0 0 3.798-3.208c1.068-1.306 1.898-2.85 2.492-4.514.593-1.722.89-3.445.89-5.286 0-2.257-.356-3.98-1.127-5.286-.772-1.307-2.315-1.842-4.332-1.842-.653 0-1.306.06-2.374.297-1.068.238-1.958.773-2.848 1.485l-4.57 19.364c1.425.237 2.908.237 3.442.237Zm9.198-30.174c2.255 0 4.213.416 5.875 1.248 1.661.772 2.967 1.841 4.094 3.267 1.068 1.366 1.84 2.97 2.374 4.81.534 1.842.771 3.802.771 5.94 0 3.267-.593 6.297-1.84 9.207-1.245 2.851-2.848 5.465-4.925 7.543-2.076 2.139-4.51 3.861-7.358 5.05-2.848 1.247-5.874 1.84-9.138 1.84-.415 0-1.187 0-2.255-.059-1.068 0-2.314-.118-3.62-.297-1.365-.237-2.848-.475-4.332-.831-1.543-.357-2.967-.891-4.332-1.545L12.807 1.83 23.725.108l-4.332 18.175c.95-.415 1.84-.771 2.79-.95 1.008-.297 2.017-.416 3.085-.416Z" clip-rule="evenodd"/></svg>