<svg width="433" height="48" viewBox="0 0 433 48" fill="none" xmlns="http://www.w3.org/2000/svg">
<g clip-path="url(#clip0_2073_9067)">
<path d="M4.1 17.4004L1.9 19.6004C1.3 20.2004 0.8 20.9004 0.5 21.7004C0.2 22.5004 0 23.3004 0 24.1004C0 24.9004 0.2 25.8004 0.5 26.5004C0.8 27.3004 1.3 28.0004 1.9 28.6004L19.5 46.4004C19.9 46.8004 20.4 47.2004 20.9 47.5004V25.9004L4.1 17.4004Z" fill="#3D89F5"/>
<path d="M43.8996 17.4004L46.0996 19.6004C46.6996 20.2004 47.1996 20.9004 47.4996 21.7004C47.7996 22.5004 47.9996 23.3004 47.9996 24.1004C47.9996 24.9004 47.7996 25.8004 47.4996 26.5004C47.1996 27.3004 46.6996 28.0004 46.0996 28.6004L28.4996 46.4004C28.0996 46.8004 27.5996 47.2004 27.0996 47.5004V25.9004L43.8996 17.4004Z" fill="#1656B9"/>
<path d="M39.7 13L28.7 1.9C28.1 1.3 27.4 0.8 26.6 0.5C25.8 0.2 25 0 24.2 0C23.4 0 22.5 0.2 21.8 0.5C21 0.8 20.3 1.3 19.7 1.9L8.5 13L24 20.7L39.7 13Z" fill="#85B5F8"/>
<path fill-rule="evenodd" clip-rule="evenodd" d="M279.8 7.80004C279.8 7.00004 279.9 6.20004 280.4 5.50004C280.8 4.80004 281.4 4.20004 282.2 3.90004C282.9 3.60004 283.8 3.40004 284.6 3.60004C285.4 3.70004 286.1 4.10004 286.7 4.60004C287.3 5.20004 287.7 5.90004 287.9 6.70004C288.1 7.50004 288 8.30004 287.7 9.10004C287.4 9.90004 286.9 10.5 286.2 11C285.5 11.5 284.7 11.7 283.9 11.7C283.4 11.7 282.9 11.6 282.4 11.4C281.9 11.2 281.5 10.9 281.1 10.6C280.7 10.2 280.4 9.80004 280.2 9.40004C280 8.80004 279.9 8.30004 279.8 7.80004ZM280.1 15H287.6V42H280.1V15ZM80.4 6.00004H66V42H81.4C89.5 42 93.8 37.8 93.8 32C93.9 29.8 93.1 27.6 91.6 26C90.1 24.4 88 23.4 85.8 23.3V23C87.6 22.7 89.3 21.8 90.5 20.4C91.7 19 92.3 17.2 92.3 15.3C92.4 9.90004 88.4 6.00004 80.4 6.00004ZM84.7 16.5C84.7 19.3 82.3 21.1 79.3 21.1L73.5 21.2V12.2H79.4C82.8 12.1 84.7 13.6 84.7 16.5ZM85.8 31.3C85.8 34 84.1 35.8 79.8 35.8H73.5V26.3H79.8C80.5 26.2 81.3 26.2 82 26.4C82.7 26.6 83.4 27 83.9 27.4C84.5 27.9 84.9 28.5 85.2 29.1C85.6 29.8 85.8 30.5 85.8 31.3ZM97.5 42H105.1L105 6.00004H97.5V42ZM109 28.6C109 20.2 114.1 14.7 122.3 14.7C130.5 14.7 135.6 20.3 135.6 28.6C135.6 37 130.5 42.5 122.3 42.5C114.1 42.5 109 37 109 28.6ZM128 28.6C128 23.9 126 20.4 122.4 20.4C118.7 20.4 116.7 23.9 116.7 28.6C116.7 33.3 118.6 36.8 122.4 36.8C126.1 36.8 128 33.3 128 28.6ZM151.7 14.7C143.5 14.7 138.4 20.4 138.4 28.6C138.4 36.8 143.4 42.5 151.7 42.5C158.8 42.5 163.3 38.3 163.7 32.1H156.6C156.5 33.3 156 34.5 155.1 35.3C154.2 36.1 153 36.6 151.8 36.6C148.3 36.6 146 33.5 146 28.5C146 23.5 148.3 20.5 151.8 20.5C153 20.5 154.2 20.9 155.1 21.8C156 22.6 156.6 23.8 156.6 25H163.7C163.4 18.8 158.7 14.7 151.7 14.7ZM167.6 6.00004H175.1V25.2H175.5L184.2 15H192.8L182.8 26.7L193.3 42H184.5L177.1 31.1L175.1 33.4V42H167.6V6.00004ZM206.5 14.7C198.3 14.7 193.2 20.4 193.2 28.6C193.2 36.8 198.2 42.5 206.5 42.5C213.6 42.5 218.1 38.3 218.5 32.1H211.5C211.4 33.3 210.9 34.5 209.9 35.3C209 36.1 207.8 36.6 206.5 36.6C203 36.6 200.7 33.5 200.7 28.5C200.7 23.5 203 20.5 206.5 20.5C207.7 20.5 208.9 20.9 209.9 21.8C210.8 22.6 211.4 23.8 211.5 25H218.5C218.3 18.8 213.5 14.7 206.5 14.7ZM229.9 42H222.4V6.00004H229.7V19.8H230C230.6 18.2 231.7 16.8 233.2 15.9C234.7 15 236.4 14.5 238.1 14.7C243.7 14.7 247.4 18.5 247.4 24.9V42H239.9V26.1C240 25.4 239.9 24.7 239.7 24.1C239.5 23.4 239.2 22.9 238.7 22.3C238.2 21.8 237.7 21.4 237 21.1C236.4 20.8 235.7 20.7 235 20.8C234.3 20.8 233.6 20.9 232.9 21.2C232.2 21.5 231.6 21.9 231.1 22.4C230.6 22.9 230.2 23.5 230 24.2C229.8 24.9 229.7 25.6 229.8 26.3V42H229.9ZM261.2 26.2C255.9 26.7 251.1 28.5 251.1 34.5C251.1 39.8 254.9 42.5 260.1 42.5C261.7 42.6 263.3 42.3 264.7 41.5C266.1 40.7 267.3 39.6 268 38.2H268.2V42H275.3V23.8C275.3 17.4 269.8 14.6 263.8 14.6C257.3 14.6 253.1 17.7 252 22.6L258.9 23.2C259.2 22.2 259.9 21.4 260.8 20.9C261.7 20.4 262.7 20.1 263.7 20.2C266.2 20.2 267.7 21.5 267.7 23.7C267.8 25.5 266 25.7 261.2 26.2ZM267.8 29.4V32.4C267.8 33.1 267.6 33.8 267.3 34.4C267 35 266.6 35.6 266 36C265.5 36.5 264.9 36.8 264.2 37C263.5 37.2 262.8 37.3 262.2 37.2C259.9 37.2 258.2 36.1 258.2 34C258.2 31.9 259.9 30.8 262.6 30.5C264.4 30.4 266.2 30 267.8 29.4ZM292.5 42H300.1L300 26.4C299.9 25.7 300 25 300.2 24.3C300.4 23.6 300.8 23 301.3 22.5C301.8 22 302.4 21.6 303 21.3C303.7 21 304.4 20.9 305.1 20.9C305.8 20.9 306.5 21 307.1 21.2C307.7 21.5 308.3 21.9 308.7 22.4C309.2 22.9 309.5 23.5 309.7 24.1C309.9 24.7 310 25.4 309.9 26.1V42H317.4V24.8C317.4 18.5 313.7 14.6 308.1 14.6C306.4 14.5 304.7 14.9 303.2 15.9C301.7 16.8 300.6 18.2 300 19.8H299.7V15H292.6V42H292.5Z" fill="white"/>
<path fill-rule="evenodd" clip-rule="evenodd" d="M399.9 15.0005H392.8V42.0005H400.3V25.8005C400.2 25.2005 400.3 24.6005 400.5 24.0005C400.7 23.4005 401 22.9005 401.4 22.4005C401.8 21.9005 402.3 21.6005 402.9 21.3005C403.5 21.0005 404.1 20.9005 404.7 20.9005C405.3 20.9005 405.8 21.0005 406.4 21.2005C406.9 21.4005 407.4 21.7005 407.8 22.1005C408.2 22.5005 408.5 23.0005 408.7 23.5005C408.9 24.0005 408.9 24.6005 408.9 25.2005V42.0005H416.2V25.5005C416.1 24.9005 416.2 24.3005 416.4 23.7005C416.6 23.1005 416.9 22.6005 417.3 22.2005C417.7 21.8005 418.2 21.4005 418.8 21.2005C419.4 21.0005 420 20.9005 420.6 20.9005C421.2 20.9005 421.8 21.0005 422.3 21.2005C422.8 21.4005 423.3 21.8005 423.7 22.2005C424.1 22.6005 424.4 23.1005 424.6 23.7005C424.8 24.3005 424.8 24.8005 424.8 25.4005V42.0005H432.3V24.0005C432.4 22.0005 431.7 20.1005 430.5 18.5005C429.3 16.9005 427.6 15.8005 425.7 15.3005C423.8 14.8005 421.7 15.0005 419.9 15.8005C418.1 16.6005 416.6 18.0005 415.7 19.8005H415.3C414.8 18.2005 413.9 16.9005 412.5 15.9005C411.2 15.0005 409.5 14.5005 407.9 14.6005C406.3 14.5005 404.6 15.0005 403.3 15.9005C401.9 16.8005 400.9 18.2005 400.4 19.7005H400.1V15.0005H399.9ZM347.4 14.7005C339.2 14.7005 334.2 20.4005 334.2 28.6005C334.2 36.8005 339.1 42.5005 347.6 42.5005C354.7 42.5005 359.3 38.3005 359.6 32.1005H352.6C352.5 33.3005 352 34.5005 351 35.3005C350.1 36.1005 348.9 36.6005 347.6 36.6005C344.1 36.6005 341.8 33.5005 341.8 28.5005C341.8 23.5005 344.1 20.5005 347.6 20.5005C348.8 20.5005 350 20.9005 351 21.8005C351.9 22.6005 352.5 23.8005 352.6 25.0005H359.5C359.2 18.8005 354.5 14.7005 347.4 14.7005ZM323.7 35.3005C322.9 36.1005 322.5 37.1005 322.5 38.2005C322.5 38.8005 322.6 39.3005 322.8 39.8005C323 40.3005 323.3 40.8005 323.7 41.2005C324.1 41.6005 324.6 41.9005 325.1 42.1005C325.6 42.3005 326.2 42.4005 326.7 42.4005C327.8 42.4005 328.9 42.0005 329.7 41.2005C330.5 40.4005 330.9 39.3005 330.9 38.2005C330.9 37.1005 330.5 36.0005 329.7 35.2005C328.9 34.4005 327.8 34.0005 326.7 34.0005C325.6 34.1005 324.5 34.5005 323.7 35.3005ZM362.3 28.6005C362.3 20.2005 367.4 14.7005 375.6 14.7005C383.8 14.7005 388.9 20.3005 388.9 28.6005C388.9 37.0005 383.8 42.5005 375.6 42.5005C367.4 42.5005 362.3 37.0005 362.3 28.6005ZM381.2 28.6005C381.2 23.9005 379.2 20.4005 375.6 20.4005C371.9 20.4005 369.9 23.9005 369.9 28.6005C369.9 33.3005 371.9 36.8005 375.6 36.8005C379.4 36.8005 381.2 33.3005 381.2 28.6005Z" fill="#B1B8C7"/>
</g>
<defs>
<clipPath id="clip0_2073_9067">
<rect width="433" height="48" fill="white"/>
</clipPath>
</defs>
</svg>
