<svg width="512" height="171" viewBox="0 0 512 171" fill="none" xmlns="http://www.w3.org/2000/svg">
<g clip-path="url(#clip0_2068_8985)">
<path d="M364.9 131.52V-0.0371094H391.355V131.52H364.9Z" fill="#F6A500"/>
<path d="M56.6992 170.598H0.00976562V39.041H54.4316C80.8866 39.041 96.2684 53.4401 96.2684 76.0025C96.2684 90.5906 86.3666 100.039 79.5261 103.176C87.6894 106.879 98.158 115.194 98.158 132.73C98.158 157.295 80.8488 170.598 56.6992 170.598ZM52.3152 61.9435H26.427V92.2535H52.3152C63.5397 92.2535 69.8133 86.1688 69.8133 77.0985C69.8133 68.066 63.5397 61.9435 52.3152 61.9435ZM54.0159 115.345H26.427V147.696H54.0159C65.9962 147.696 71.703 140.326 71.703 131.445C71.703 122.563 65.9962 115.383 54.0159 115.383V115.345Z" fill="white"/>
<path d="M178.846 116.63V170.598H152.58V116.63L111.877 39.041H140.6L165.883 92.0645L190.826 39.041H219.549L178.846 116.63Z" fill="white"/>
<path d="M294.529 170.598H237.84V39.041H292.262C318.717 39.041 334.098 53.4401 334.098 76.0025C334.098 90.5906 324.197 100.039 317.356 103.176C325.519 106.879 335.988 115.194 335.988 132.73C335.988 157.295 318.679 170.598 294.529 170.598ZM290.145 61.9435H264.257V92.2535H290.145C301.37 92.2535 307.643 86.1688 307.643 77.0985C307.643 68.066 301.37 61.9435 290.145 61.9435ZM291.846 115.345H264.257V147.696H291.846C303.826 147.696 309.533 140.326 309.533 131.445C309.533 122.563 303.826 115.383 291.846 115.383V115.345Z" fill="white"/>
<path d="M476.579 61.9435V170.598H450.162V61.9435H414.75V39.041H511.991V61.9435H476.579Z" fill="white"/>
</g>
<defs>
<clipPath id="clip0_2068_8985">
<rect width="512.001" height="170.559" fill="white"/>
</clipPath>
</defs>
</svg>
