<svg width="2317" height="400" viewBox="0 0 2317 400" fill="none" xmlns="http://www.w3.org/2000/svg">
<path d="M519.964 30.6918C537.046 262.093 388.318 371.465 254.988 383.128C131.03 393.97 14.3502 317.794 4.11402 200.754C-4.32979 104.06 55.4247 62.8944 102.373 58.7908C150.661 54.5576 191.238 87.8617 194.758 128.185C198.149 166.954 173.962 184.599 157.139 186.068C143.836 187.234 127.1 179.156 125.588 161.813C124.293 146.911 129.951 144.88 128.568 129.049C126.107 100.864 101.531 97.5808 88.077 98.7471C71.7941 100.173 42.2515 119.179 46.3979 166.522C50.5658 214.275 96.3481 252.006 156.362 246.758C221.126 241.099 266.218 190.668 269.608 119.935C269.577 116.188 270.366 112.48 271.919 109.071L271.94 108.985C272.638 107.503 273.454 106.08 274.381 104.73C275.763 102.656 277.534 100.367 279.823 97.8615C279.844 97.7968 279.844 97.7968 279.888 97.7968C281.55 95.9177 283.559 93.8875 285.826 91.7061C314.116 65.011 416.003 2.05291 512.362 21.9878C514.398 22.4244 516.239 23.5079 517.609 25.0766C518.979 26.6453 519.805 28.6151 519.964 30.6918Z" fill="white"/>
<path d="M759.06 129.887V358.413C759.06 358.728 758.933 359.031 758.711 359.253C758.489 359.476 758.188 359.601 757.871 359.601H709.194C708.881 359.601 708.575 359.476 708.354 359.253C708.132 359.031 708.005 358.728 708.005 358.413V129.887C708.005 129.604 708.12 129.332 708.318 129.131C708.52 128.931 708.793 128.818 709.075 128.818H757.99C758.275 128.818 758.544 128.931 758.747 129.131C758.945 129.332 759.06 129.604 759.06 129.887Z" fill="white"/>
<path d="M1140.79 47.3369C1140.54 47.3369 1140.3 47.4372 1140.12 47.6151C1139.94 47.7935 1139.84 48.0353 1139.84 48.2873V89.2652C1139.84 89.5486 1139.95 89.8205 1140.15 90.021C1140.35 90.2215 1140.63 90.3341 1140.91 90.3341H1238.5V358.413C1238.5 358.728 1238.63 359.03 1238.85 359.252C1239.07 359.475 1239.37 359.6 1239.69 359.6H1290.38C1290.7 359.6 1291 359.475 1291.22 359.252C1291.44 359.03 1291.57 358.728 1291.57 358.413V90.3341H1381.33C1381.67 90.3341 1382.01 90.1966 1382.25 89.9512C1382.5 89.7063 1382.64 89.3742 1382.64 89.0274V48.2873C1382.64 48.0353 1382.53 47.7935 1382.35 47.6151C1382.18 47.4372 1381.93 47.3369 1381.68 47.3369H1140.79Z" fill="white"/>
<path d="M1158.55 358.294C1158.55 358.641 1158.42 358.973 1158.17 359.218C1157.93 359.463 1157.59 359.601 1157.25 359.601H1109.76C1109.41 359.601 1109.08 359.463 1108.83 359.218C1108.59 358.973 1108.45 358.641 1108.45 358.294V225.146C1108.41 218.663 1107.89 212.193 1106.91 205.786C1103.58 182.861 1095.03 167.421 1064.41 167.421H1063.1C1053.8 167.761 1044.72 170.328 1036.62 174.904C1026.07 180.46 1017.11 188.641 1010.62 198.659C1011.58 206.064 1012.05 213.523 1012.05 220.989V361.264C1012.05 361.579 1011.92 361.881 1011.7 362.104C1011.48 362.326 1011.18 362.452 1010.86 362.452H964.084C963.736 362.452 963.403 362.314 963.161 362.069C962.916 361.824 962.777 361.492 962.777 361.145V238.805C962.777 217.069 964.084 193.789 953.281 180.843C948.8 175.994 943.238 172.274 937.05 169.982C930.857 167.691 924.218 166.895 917.661 167.658C908.553 168.062 899.623 170.326 891.423 174.31C885.864 176.634 880.793 179.978 876.463 184.168C871.349 189.019 867.585 195.118 865.541 201.866V358.294C865.541 358.641 865.402 358.973 865.16 359.218C864.915 359.463 864.582 359.601 864.233 359.601H816.744C816.4 359.601 816.067 359.463 815.821 359.218C815.576 358.973 815.441 358.641 815.441 358.294V131.431C815.441 131.116 815.564 130.814 815.786 130.591C816.008 130.369 816.313 130.243 816.626 130.243H836.929C840.887 130.23 844.746 131.478 847.947 133.806C851.148 136.134 853.529 139.42 854.737 143.19C855.688 146.516 856.873 149.367 857.348 150.792C877.438 133.327 903.28 123.933 929.891 124.424C940.152 123.709 950.448 125.194 960.091 128.778C969.734 132.362 978.505 137.964 985.81 145.209C989.229 149.291 992.288 153.663 994.95 158.275C1005.1 147.495 1017.41 138.99 1031.08 133.319C1044.75 127.648 1059.47 124.94 1074.26 125.374C1099.43 125.374 1157.96 133.925 1157.96 213.387L1158.55 358.294Z" fill="white"/>
<path d="M1854.75 360.195H1802.63C1802.38 360.209 1802.13 360.162 1801.91 360.059C1801.68 359.955 1801.48 359.798 1801.33 359.601C1790.41 344.398 1767.13 308.052 1764.64 305.32L1763.57 303.538C1755.38 292.73 1736.03 267.906 1710.14 262.323L1690.55 282.634V358.65C1690.55 358.775 1690.53 358.899 1690.48 359.014C1690.44 359.13 1690.36 359.234 1690.28 359.323C1690.19 359.411 1690.08 359.481 1689.97 359.528C1689.85 359.576 1689.73 359.601 1689.61 359.601H1641.17C1640.84 359.571 1640.54 359.421 1640.32 359.178C1640.1 358.937 1639.98 358.621 1639.98 358.294V43.2992C1639.98 42.9841 1640.1 42.6821 1640.33 42.4593C1640.55 42.2366 1640.85 42.1113 1641.17 42.1113H1690.55C1690.81 42.1113 1691.05 42.2116 1691.23 42.3896C1691.41 42.5679 1691.51 42.8097 1691.51 43.0618V221.226L1786.49 123.83H1787.31H1841.57C1843.12 123.83 1843.83 123.83 1844.42 124.899C1845.02 125.967 1844.42 126.918 1844.42 127.987L1744.46 229.54C1766.66 241.371 1785.75 258.305 1800.14 278.952L1801.21 280.377C1804.53 284.653 1841.81 337.865 1855.94 357.701C1856.27 357.858 1856.53 358.14 1856.65 358.486C1856.77 358.831 1856.75 359.211 1856.59 359.541C1856.43 359.872 1856.15 360.127 1855.81 360.249C1855.46 360.372 1855.08 360.352 1854.75 360.195Z" fill="white"/>
<path d="M764.044 67.4112C764.162 73.4907 762.471 79.4679 759.183 84.5823C755.894 89.6967 751.16 93.7164 745.582 96.1306C740 98.5447 733.832 99.2438 727.853 98.1388C721.879 97.0338 716.365 94.175 712.015 89.9258C707.669 85.6766 704.681 80.2297 703.437 74.2774C702.193 68.3255 702.748 62.1375 705.03 56.5015C707.312 50.8651 711.218 46.0357 716.25 42.6271C721.285 39.2186 727.216 37.3855 733.297 37.3605C737.286 37.3134 741.248 38.0533 744.956 39.5384C748.66 41.0231 752.036 43.2236 754.892 46.0139C757.748 48.8045 760.026 52.1302 761.595 55.8015C763.168 59.4728 764 63.418 764.044 67.4112Z" fill="white"/>
<path d="M1483.55 119.079C1413.62 119.079 1370.29 165.521 1370.29 240.35C1370.29 315.179 1413.62 361.62 1483.55 361.62C1553.48 361.62 1597.53 315.06 1597.53 240.231C1597.53 165.402 1553.48 119.079 1483.55 119.079ZM1528.79 303.064C1522.71 308.659 1515.58 312.981 1507.81 315.776C1500.05 318.57 1491.8 319.781 1483.55 319.336C1430.01 319.336 1418.97 274.914 1418.97 237.855C1418.97 186.188 1439.98 161.007 1483.55 161.007C1527.12 161.007 1547.9 187.494 1547.9 239.994C1548.14 268.619 1541.61 289.88 1528.79 302.945V303.064Z" fill="white"/>
<path d="M2073.88 287.979C2072.81 286.672 2070.55 287.979 2069.49 287.979L2027.57 294.274C2026.86 294.288 2026.17 294.508 2025.58 294.909C2024.99 295.309 2024.52 295.872 2024.25 296.531C2019.69 304.065 2013.36 310.373 2005.8 314.906C1998.25 319.438 1989.71 322.06 1980.91 322.543C1969.5 324.156 1957.85 322.58 1947.27 317.99C1936.69 313.4 1927.59 305.973 1920.96 296.531C1913.58 287.001 1908.97 275.614 1907.66 263.63V262.798L2028.64 246.17C2036.11 245.3 2043.27 242.701 2049.56 238.577C2055.84 234.453 2061.08 228.919 2064.85 222.414C2068.36 215.702 2070.24 208.261 2070.34 200.689C2070.44 193.118 2068.77 185.628 2065.45 178.823C2054.19 154.395 2033.95 135.251 2008.94 125.374C1991.31 118.656 1972.29 116.494 1953.61 119.09C1934.93 121.685 1917.21 128.953 1902.08 140.221C1888.24 151.269 1877.09 165.315 1869.46 181.301C1861.83 197.287 1857.92 214.796 1858.03 232.51C1857.45 244.027 1858.09 255.573 1859.94 266.955C1868.37 315.654 1903.86 364.827 1965.95 364.827C2040.04 364.827 2068.42 319.217 2073.64 291.898C2074.35 291.067 2075.18 288.929 2073.88 287.979ZM1919.54 184.287C1925.15 177.304 1932.13 171.542 1940.06 167.355C1947.98 163.168 1956.67 160.644 1965.6 159.938C1973.82 158.325 1982.3 158.714 1990.34 161.07C1998.38 163.427 2005.73 167.682 2011.78 173.478C2016.54 177.956 2020.55 183.17 2023.66 188.919C2024.55 190.771 2025.02 192.801 2025.02 194.858C2025.02 196.915 2024.55 198.945 2023.66 200.797C2022.85 202.698 2021.56 204.356 2019.91 205.606C2018.27 206.856 2016.32 207.654 2014.28 207.923L1903.74 223.364C1905.45 209.083 1911.08 195.555 1920.01 184.287H1919.54Z" fill="white"/>
<path d="M2313.31 216.832V358.295C2313.31 358.642 2313.18 358.974 2312.93 359.219C2312.69 359.464 2312.35 359.602 2312.01 359.602H2264.51C2264.2 359.602 2263.9 359.476 2263.67 359.254C2263.45 359.031 2263.33 358.729 2263.33 358.414V240.706C2263.33 240.706 2263.33 221.227 2262.38 203.529C2262.21 197.6 2260.86 191.764 2258.41 186.361C2255.97 180.958 2252.47 176.094 2248.13 172.054C2243.64 168.503 2238.46 165.938 2232.92 164.526C2227.37 163.114 2221.59 162.887 2215.96 163.858C2193.51 166.753 2173 178.093 2158.61 195.571V358.295C2158.61 358.642 2158.48 358.974 2158.23 359.219C2157.98 359.464 2157.66 359.602 2157.31 359.602H2109.82C2109.47 359.602 2109.14 359.464 2108.89 359.219C2108.65 358.974 2108.51 358.642 2108.51 358.295V127.156C2108.51 126.81 2108.65 126.477 2108.89 126.232C2109.14 125.987 2109.47 125.85 2109.82 125.85H2149.59C2149.94 125.85 2150.27 125.987 2150.51 126.232C2150.76 126.477 2150.9 126.81 2150.9 127.156V149.724C2170.97 131.524 2196.84 121.007 2223.91 120.029C2246.71 118.604 2313.31 119.91 2313.31 216.832Z" fill="white"/>
</svg>
