<svg width="2001" height="670" viewBox="0 0 2001 670" fill="none" xmlns="http://www.w3.org/2000/svg">
<g clip-path="url(#clip0_2068_8983)">
<path d="M1711.35 627.2V669.34H2000.57V479.29H1958.43V627.2H1711.35ZM1711.35 0V42.14H1958.43V190.06H2000.57V0H1711.35ZM1562.2 326V228.08H1628.31C1660.54 228.08 1672.11 238.82 1672.11 268.16V285.51C1672.11 315.67 1660.95 326 1628.31 326H1562.2ZM1667.14 343.35C1697.3 335.5 1718.37 307.4 1718.37 273.94C1718.37 252.87 1710.11 233.86 1694.41 218.57C1674.58 199.56 1648.13 190.06 1613.84 190.06H1520.88V479.28H1562.2V364.01H1624.18C1655.99 364.01 1668.8 377.23 1668.8 410.29V479.29H1710.94V416.9C1710.94 371.45 1700.2 354.1 1667.14 349.14V343.35ZM1319.26 352.85H1446.52V314.84H1319.26V228.07H1458.91V190.06H1277.11V479.28H1465.11V441.27H1319.26V352.85ZM1180.84 368.14V387.97C1180.84 429.7 1165.55 443.34 1127.13 443.34H1118.04C1079.61 443.34 1061.02 430.94 1061.02 373.51V295.83C1061.02 237.99 1080.44 226 1118.86 226H1127.12C1164.72 226 1176.7 240.05 1177.11 278.89H1222.56C1218.43 221.87 1180.42 185.93 1123.4 185.93C1095.72 185.93 1072.58 194.61 1055.23 211.13C1029.2 235.51 1014.74 276.83 1014.74 334.67C1014.74 390.45 1027.14 431.77 1052.75 457.38C1070.1 474.32 1094.07 483.41 1117.62 483.41C1142.41 483.41 1165.14 473.49 1176.7 452.01H1182.48V479.28H1220.49V330.13H1108.52V368.14H1180.84ZM816.43 228.07H861.47C904.03 228.07 927.17 238.81 927.17 296.66V372.68C927.17 430.52 904.03 441.27 861.47 441.27H816.43V228.07ZM865.18 479.29C944.1 479.29 973.43 419.38 973.43 334.68C973.43 248.74 942.03 190.07 864.35 190.07H775.1V479.29H865.18ZM575.55 352.85H702.81V314.84H575.55V228.07H715.2V190.06H533.4V479.28H721.4V441.27H575.55V352.85ZM331.78 190.06H289.64V479.28H479.7V441.27H331.78V190.06ZM0 479.29V669.35H289.22V627.2H42.14V479.29H0ZM0 0V190.06H42.14V42.14H289.22V0L0 0Z" fill="white"/>
</g>
<defs>
<clipPath id="clip0_2068_8983">
<rect width="2000.58" height="669.35" fill="white"/>
</clipPath>
</defs>
</svg>
