<svg width="435" height="137" viewBox="0 0 435 137" fill="none" xmlns="http://www.w3.org/2000/svg">
<path d="M324.544 102.214V129.834H310.456V110.698L294.401 112.588C290.875 112.998 289.326 114.168 289.326 116.316C289.326 119.466 292.27 120.794 298.585 120.794C302.434 120.794 306.699 120.214 310.464 119.214L303.173 129.664C300.226 130.328 297.356 130.656 294.328 130.656C281.55 130.656 274.259 125.516 274.259 116.392C274.259 108.346 279.99 104.12 293.017 102.624L310.225 100.6C309.295 95.536 305.52 93.334 298.013 93.334C290.967 93.334 283.186 95.158 276.225 98.56L278.439 86.2C284.909 83.462 292.284 82.052 299.734 82.052C316.122 82.052 324.558 88.94 324.558 102.202L324.542 102.212L324.544 102.214ZM197.813 67.63L182.414 129.832H197.813L205.455 98.576L218.703 114.654H234.759L248.007 98.576L255.649 129.832H271.048L255.649 67.622L226.727 102.398L197.805 67.622L197.813 67.63ZM255.649 5.41992L226.727 40.1959L197.813 5.41992L182.414 67.63H197.813L205.455 36.3739L218.703 52.4519H234.759L248.007 36.3739L255.649 67.63H271.048L255.649 5.41992ZM361.57 101.634L349.119 99.81C346.007 99.316 344.78 98.316 344.78 96.576C344.78 93.756 347.808 92.512 354.038 92.512C361.249 92.512 367.72 94.006 374.523 97.24L372.806 85.052C367.313 83.062 361.008 82.07 354.454 82.07C339.139 82.07 330.776 87.462 330.776 97.164C330.776 104.716 335.364 108.942 345.111 110.436L357.731 112.344C360.925 112.84 362.235 114.084 362.235 116.074C362.235 118.894 359.291 120.222 353.309 120.222C345.444 120.222 336.923 118.316 329.961 114.914L331.355 127.102C337.338 129.346 345.121 130.672 352.412 130.672C368.142 130.672 376.332 125.112 376.332 115.242C376.332 107.362 371.744 103.128 361.59 101.642L361.57 101.634ZM381.81 73.18V129.83H395.896V73.182L381.81 73.18ZM412.357 104.37L431.946 82.882H414.415L395.896 105.11L415.642 129.822H433.422L412.357 104.362V104.37ZM379.844 54.1899C379.844 63.3099 387.135 68.45 399.912 68.45C402.94 68.45 405.811 68.116 408.757 67.46L416.049 57.0099C412.284 58.0019 408.018 58.5899 404.17 58.5899C397.863 58.5899 394.91 57.2619 394.91 54.1119C394.91 51.9539 396.47 50.7939 399.988 50.3839L416.041 48.4939V67.628H430.129V40.0079C430.129 26.7379 421.69 19.8579 405.305 19.8579C397.847 19.8579 390.48 21.2679 384.007 24.0079L381.792 36.3639C388.755 32.9619 396.536 31.1379 403.58 31.1379C411.088 31.1379 414.863 33.3379 415.792 38.4039L398.586 40.4299C385.559 41.9239 379.826 46.1499 379.826 54.1959L379.844 54.1899ZM340.441 51.2059C340.441 62.656 346.996 68.46 359.938 68.46C365.098 68.46 369.365 67.628 373.455 65.72L375.254 53.1979C371.321 55.5979 367.305 56.8419 363.291 56.8419C357.227 56.8419 354.522 54.3559 354.522 48.7959V32.2059H375.901V20.6799H354.52V10.8959L327.73 25.2439V32.2079H340.424V51.1999L340.439 51.2079L340.441 51.2059ZM326.596 45.9819V48.8039H288.519C290.236 54.5499 295.338 57.1779 304.396 57.1779C311.607 57.1779 318.327 55.6839 324.301 52.7859L322.584 64.898C317.092 67.218 310.131 68.468 303.003 68.468C284.078 68.468 273.759 60.0079 273.759 44.3359C273.759 28.6599 284.246 19.8659 300.465 19.8659C316.685 19.8659 326.6 29.4079 326.6 45.9899L326.59 45.9819H326.596ZM288.335 39.1799H312.412C311.143 33.6779 306.97 30.8039 300.3 30.8039C293.629 30.8039 289.672 33.6019 288.335 39.1799Z" fill="white"/>
<g clip-path="url(#clip0_1998_7045)">
<path d="M132.682 132.192L102.099 123.086L79.036 136.873L62.944 136.866L39.867 123.086L9.298 132.192L0 100.801L9.299 65.962L0 36.507L9.299 0L57.065 28.538H84.915L132.682 0L141.981 36.507L132.682 65.962L141.981 100.801L132.682 132.192Z" fill="#FF5C16"/>
<path d="M9.30469 0L57.0717 28.558L55.1727 48.157L9.30469 0ZM39.8747 100.814L60.8917 116.824L39.8747 123.085V100.814ZM59.2117 74.345L55.1727 48.171L29.3167 65.97L29.3027 65.963V65.976L29.3827 84.297L39.8677 74.346L59.2117 74.345ZM132.682 0L84.9147 28.558L86.8077 48.157L132.682 0ZM102.113 100.814L81.0947 116.824L102.113 123.085V100.814ZM112.678 65.975V65.962L112.672 65.969L86.8147 48.171L82.7757 74.345H102.112L112.604 84.295L112.678 65.975Z" fill="#FF5C16"/>
<path d="M39.868 123.085L9.299 132.191L0 100.814H39.868V123.085ZM59.205 74.3379L65.044 112.178L56.951 91.1379L29.37 84.2949L39.861 74.3389L59.205 74.3379ZM102.112 123.085L132.682 132.191L141.981 100.813H102.112C102.112 100.814 102.112 123.085 102.112 123.085ZM82.776 74.3379L76.937 112.178L85.029 91.1379L112.612 84.2949L102.114 74.3389L82.776 74.3379Z" fill="#E34807"/>
<path d="M0 100.8L9.299 65.9611H29.296L29.369 84.2881L56.953 91.1311L65.045 112.17L60.885 116.803L39.868 100.793H0V100.8ZM141.981 100.8L132.682 65.9611H112.684L112.611 84.2881L85.029 91.1311L76.936 112.17L81.095 116.803L102.113 100.793H141.981V100.8ZM84.915 28.5371H57.065L55.174 48.1361L65.046 112.149H76.937L86.815 48.1361L84.915 28.5371Z" fill="#FF8D5D"/>
<path d="M9.299 0L0 36.507L9.299 65.962H29.296L55.166 48.158L9.299 0ZM53.426 81.938H44.367L39.435 86.773L56.959 91.117L53.426 81.931V81.938ZM132.682 0L141.981 36.507L132.682 65.962H112.684L86.815 48.158L132.682 0ZM88.568 81.938H97.64L102.572 86.779L85.028 91.132L88.568 81.931V81.938ZM79.029 124.385L81.096 116.818L76.936 112.185H65.036L60.877 116.818L62.943 124.385" fill="#661800"/>
<path d="M79.0293 124.385V136.88H62.9453V124.385H79.0293Z" fill="#C0C4CD"/>
<path d="M39.875 123.072L62.958 136.872V124.377L60.891 116.811L39.875 123.072ZM102.113 123.072L79.029 136.872V124.377L81.096 116.811L102.113 123.072Z" fill="#E7EBF6"/>
</g>
<defs>
<clipPath id="clip0_1998_7045">
<rect width="142" height="136.878" fill="white"/>
</clipPath>
</defs>
</svg>
