<svg width="595" height="167" viewBox="0 0 595 167" fill="none" xmlns="http://www.w3.org/2000/svg">
<g clip-path="url(#clip0_2065_8933)">
<path d="M174.502 0H3.96597C2.91412 0 1.90537 0.390974 1.1616 1.08692C0.417838 1.78286 0 2.72676 0 3.71098V163.282C0 164.267 0.417838 165.212 1.1616 165.908C1.90537 166.603 2.91412 166.993 3.96597 166.993H174.502C175.555 166.993 176.562 166.603 177.307 165.908C178.051 165.212 178.469 164.267 178.469 163.282V3.71098C178.469 2.72676 178.051 1.78286 177.307 1.08692C176.562 0.390974 175.555 0 174.502 0ZM118.979 107.618C118.979 108.603 118.561 109.546 117.817 110.242C117.074 110.938 116.065 111.329 115.013 111.329H63.4554C62.4036 111.329 61.3948 110.938 60.6511 110.242C59.9073 109.546 59.4894 108.603 59.4894 107.618V59.3757C59.4894 58.3914 59.9073 57.4475 60.6511 56.7516C61.3948 56.0556 62.4036 55.6647 63.4554 55.6647H115.013C116.065 55.6647 117.074 56.0556 117.817 56.7516C118.561 57.4475 118.979 58.3914 118.979 59.3757V107.618Z" fill="white"/>
<path d="M531.512 55.6719H479.954C477.765 55.6719 475.988 57.3333 475.988 59.3829V107.626C475.988 109.675 477.765 111.337 479.954 111.337H531.512C533.703 111.337 535.478 109.675 535.478 107.626V59.3829C535.478 57.3333 533.703 55.6719 531.512 55.6719Z" fill="white"/>
<path d="M472.036 0.00195312H420.479C418.289 0.00195312 416.514 1.66342 416.514 3.71293V51.9557C416.514 54.0051 418.289 55.6667 420.479 55.6667H472.036C474.227 55.6667 476.004 54.0051 476.004 51.9557V3.71293C476.004 1.66342 474.227 0.00195312 472.036 0.00195312Z" fill="white"/>
<path d="M591.034 0.00195312H539.476C537.286 0.00195312 535.51 1.66342 535.51 3.71293V51.9557C535.51 54.0051 537.286 55.6667 539.476 55.6667H591.034C593.225 55.6667 595 54.0051 595 51.9557V3.71293C595 1.66342 593.225 0.00195312 591.034 0.00195312Z" fill="white"/>
<path d="M472.036 111.334H420.479C418.289 111.334 416.514 112.995 416.514 115.045V163.288C416.514 165.337 418.289 166.999 420.479 166.999H472.036C474.227 166.999 476.004 165.337 476.004 163.288V115.045C476.004 112.995 474.227 111.334 472.036 111.334Z" fill="white"/>
<path d="M591.034 111.334H539.476C537.286 111.334 535.51 112.995 535.51 115.045V163.288C535.51 165.337 537.286 166.999 539.476 166.999H591.034C593.225 166.999 595 165.337 595 163.288V115.045C595 112.995 593.225 111.334 591.034 111.334Z" fill="white"/>
<path d="M382.731 0.00195312H331.174C328.984 0.00195312 327.207 1.66342 327.207 3.71293V51.9557C327.207 54.0051 328.984 55.6667 331.174 55.6667H382.731C384.922 55.6667 386.697 54.0051 386.697 51.9557V3.71293C386.697 1.66342 384.922 0.00195312 382.731 0.00195312Z" fill="white"/>
<path d="M382.731 111.334H331.174C328.984 111.334 327.207 112.995 327.207 115.045V163.288C327.207 165.337 328.984 166.999 331.174 166.999H382.731C384.922 166.999 386.697 165.337 386.697 163.288V115.045C386.697 112.995 384.922 111.334 382.731 111.334Z" fill="white"/>
<path d="M327.191 59.3339C327.191 58.3497 326.772 57.4058 326.029 56.7099C325.286 56.0139 324.277 55.6229 323.225 55.6229H267.701V3.71098C267.701 2.72676 267.282 1.78286 266.539 1.08692C265.796 0.390974 264.787 0 263.735 0H212.178C211.125 0 210.118 0.390974 209.373 1.08692C208.629 1.78286 208.211 2.72676 208.211 3.71098V163.2C208.211 164.184 208.629 165.127 209.373 165.824C210.118 166.52 211.125 166.911 212.178 166.911H263.735C264.787 166.911 265.796 166.52 266.539 165.824C267.282 165.127 267.701 164.184 267.701 163.2V111.288H323.225C324.277 111.288 325.286 110.897 326.029 110.201C326.772 109.505 327.191 108.561 327.191 107.577V59.3339Z" fill="white"/>
</g>
<defs>
<clipPath id="clip0_2065_8933">
<rect width="595" height="167" fill="white"/>
</clipPath>
</defs>
</svg>
