<svg width="422" height="166" viewBox="0 0 422 166" fill="none" xmlns="http://www.w3.org/2000/svg">
<g clip-path="url(#clip0_2069_9021)">
<path fill-rule="evenodd" clip-rule="evenodd" d="M13.6008 0.699219H104.801C111.901 0.699219 117.601 6.39922 117.601 13.4992V113.599C117.601 118.399 115.401 122.999 111.701 125.999L65.3008 163.699C61.8008 166.599 56.7008 166.599 53.2008 163.699L6.70078 125.999C3.00078 122.999 0.800781 118.399 0.800781 113.599V13.4992C0.800781 6.39922 6.50078 0.699219 13.6008 0.699219Z" fill="white"/>
<path fill-rule="evenodd" clip-rule="evenodd" d="M88.8 19.9008C94.1 19.9008 98.4 24.2008 98.4 29.5008V60.5008V60.8008C98.3 67.1008 93.2 72.2008 86.9 72.3008C93.2 72.4008 98.3 77.5008 98.4 83.8008V84.1008V103.501C98.4 106.301 97.2 108.901 95.2 110.701L71 131.801V88.4008C71 83.1008 66.7 78.8008 61.4 78.8008H47.3V131.801L23.2 110.501C21.1 108.701 20 106.101 20 103.301V29.4008C20 24.1008 24.3 19.8008 29.6 19.8008H88.8V19.9008ZM71 33.2008H47.3V62.7008H61.4C66.7 62.7008 71 58.4008 71 53.1008V33.2008Z" fill="#222222"/>
<path d="M172.2 111.1V93.5H185.7L197.9 111.1H213.6L199.4 90.8C203.6 89 206.8 86.4 209 83C211.3 79.6 212.4 75.6 212.4 70.9C212.4 66.2 211.3 62.1 209.1 58.7C206.9 55.3 203.7 52.6 199.6 50.8C195.5 48.9 190.6 48 185 48H157.6V111.2H172.2V111.1ZM184.8 82.3H172.8V59.9H184.8C189.2 59.9 192.6 60.9 194.9 62.8C197.2 64.7 198.4 67.5 198.4 71.1C198.4 74.6 197.2 77.4 194.9 79.4C192.6 81.3 189.2 82.3 184.8 82.3ZM246.8 111.9C251.9 111.9 256.5 110.8 260.6 108.7C264.6 106.5 267.8 103.6 270.1 99.7C272.4 95.9 273.5 91.5 273.5 86.7C273.5 81.9 272.4 77.5 270.1 73.7C267.8 69.9 264.6 66.9 260.6 64.7C256.6 62.5 252 61.5 246.8 61.5C241.7 61.5 237.1 62.6 233 64.7C228.9 66.9 225.7 69.8 223.4 73.7C221.1 77.5 220 81.9 220 86.7C220 91.5 221.1 95.9 223.4 99.7C225.7 103.5 228.9 106.5 233 108.7C237.1 110.9 241.6 111.9 246.8 111.9ZM246.8 100.7C243.2 100.7 240.2 99.5 237.9 97C235.6 94.5 234.4 91.2 234.4 87.1C234.4 83 235.6 79.7 237.9 77.2C240.2 74.7 243.2 73.5 246.8 73.5C250.4 73.5 253.4 74.7 255.7 77.2C258 79.7 259.2 83 259.2 87.1C259.2 91.2 258 94.5 255.7 97C253.3 99.4 250.4 100.7 246.8 100.7ZM296.4 111.1V86.9C296.4 82.5 297.5 79.3 299.6 77C301.7 74.8 304.5 73.7 308.1 73.7C311.3 73.7 313.7 74.7 315.4 76.6C317.1 78.5 317.9 81.4 317.9 85.3V111.1H332V83.1C332 76 330.2 70.6 326.5 66.9C322.8 63.3 318 61.5 311.9 61.5C308.6 61.5 305.6 62.1 302.8 63.2C300 64.3 297.7 65.9 295.9 68V62.3H282.5V111.2H296.4V111.1ZM351.9 55.9C354.5 55.9 356.6 55.1 358.2 53.6C359.8 52 360.6 50.1 360.6 47.7C360.6 45.5 359.8 43.7 358.2 42.2C356.6 40.7 354.5 40 351.9 40C349.3 40 347.2 40.8 345.6 42.3C344 43.8 343.2 45.7 343.2 48C343.2 50.3 344 52.2 345.6 53.7C347.1 55.1 349.3 55.9 351.9 55.9ZM359.1 111.1V62.3H344.7V111.1H359.1ZM385.9 111.1V86.9C385.9 82.5 387 79.3 389.1 77C391.2 74.7 394 73.7 397.6 73.7C400.8 73.7 403.2 74.7 404.9 76.6C406.6 78.5 407.4 81.4 407.4 85.3V111.1H421.5V83.1C421.5 76 419.7 70.6 416 66.9C412.3 63.3 407.4 61.5 401.4 61.5C398.1 61.5 395.1 62.1 392.3 63.2C389.5 64.3 387.2 65.9 385.4 68V62.3H372V111.2H385.9V111.1Z" fill="white"/>
</g>
<defs>
<clipPath id="clip0_2069_9021">
<rect width="422" height="166" fill="white"/>
</clipPath>
</defs>
</svg>
