<svg width="346" height="77" viewBox="0 0 346 77" fill="none" xmlns="http://www.w3.org/2000/svg">
<path d="M125.355 64.8784C119.228 64.8784 112.473 62.8003 105.09 58.6443V49.6553C112.038 54.3433 118.818 56.6873 125.428 56.6873C128.468 56.6873 130.88 56.1314 132.665 55.0204C134.499 53.8604 135.416 52.2654 135.416 50.2354C135.416 48.3994 134.571 46.9494 132.882 45.8864C131.194 44.7744 128.588 43.7833 125.066 42.9143C118.745 41.2703 114.451 39.8694 112.183 38.7094C107.165 36.1484 104.656 32.3063 104.656 27.1833C104.656 22.7853 106.514 19.3064 110.229 16.7444C113.944 14.1834 118.528 12.9023 123.98 12.9023C130.639 12.9023 136.646 14.8354 142.002 18.7014V27.6903C135.874 23.2443 129.867 21.0214 123.98 21.0214C120.892 21.0214 118.335 21.6014 116.309 22.7614C114.282 23.9214 113.269 25.5403 113.269 27.6183C113.269 28.8743 113.848 29.9623 115.006 30.8803C116.164 31.7503 117.418 32.4263 118.769 32.9103C120.169 33.3453 122.243 33.9004 124.994 34.5774C127.889 35.3024 130.277 36.0034 132.159 36.6794C134.089 37.3564 136.043 38.2983 138.021 39.5063C139.999 40.6663 141.471 42.1403 142.436 43.9283C143.449 45.7173 143.956 47.8433 143.956 50.3083C143.956 54.8993 142.195 58.4753 138.672 61.0363C135.198 63.5983 130.759 64.8784 125.355 64.8784Z" fill="#F7F6FF"/>
<path d="M161.38 64.8786C159.691 64.8786 158.051 64.6856 156.459 64.2996C154.915 63.9126 153.419 63.3086 151.971 62.4866C150.524 61.6166 149.342 60.3846 148.425 58.7896C147.508 57.1466 147.05 55.2376 147.05 53.0626C147.002 49.1486 148.353 46.1766 151.103 44.1466C153.853 42.0686 157.786 41.0296 162.9 41.0296H174.552V38.7096C174.552 36.5836 173.684 34.9886 171.947 33.9256C170.21 32.8136 167.966 32.2576 165.216 32.2576C159.957 32.2576 156.893 33.9976 156.024 37.4776L148.063 37.6226C148.16 33.8046 149.824 30.7835 153.057 28.5605C156.338 26.3375 160.343 25.2266 165.071 25.2266C169.848 25.2266 173.925 26.3866 177.303 28.7056C180.728 31.0256 182.441 34.0215 182.441 37.6945V64.2996H174.552V58.4996C173.443 60.0466 171.754 61.4965 169.486 62.8495C167.267 64.2025 164.565 64.8786 161.38 64.8786ZM162.032 57.9926C165.216 57.9926 168.087 56.9046 170.644 54.7306C173.25 52.5556 174.552 49.9946 174.552 47.0466H164.348C161.211 47.0466 158.871 47.6506 157.327 48.8586C155.831 50.0186 155.18 51.4925 155.373 53.2805C155.518 54.9235 156.242 56.1316 157.544 56.9046C158.847 57.6296 160.343 57.9926 162.032 57.9926Z" fill="#F7F6FF"/>
<path d="M188.809 64.3008L188.664 33.0568V25.8798V24.5748C188.664 19.9838 190.546 16.5288 194.309 14.2088C198.073 11.8888 203.043 11.5028 209.219 13.0488L209.146 19.4278C205.142 18.3648 202.102 18.3648 200.027 19.4278C198.001 20.4428 196.987 22.1828 196.987 24.6478V25.8798H208.857V33.0568H196.987L197.06 64.3008H188.809Z" fill="#F7F6FF"/>
<path d="M230.739 64.8786C225.239 64.8786 220.582 62.9456 216.771 59.0796C212.959 55.1656 211.053 50.4776 211.053 45.0166C211.053 39.5066 212.983 34.8436 216.843 31.0256C220.703 27.1596 225.335 25.2266 230.739 25.2266C235.516 25.2266 239.714 26.7966 243.332 29.9386C246.999 33.0316 249.243 36.9216 250.063 41.6096C250.546 43.8806 250.57 46.0556 250.135 48.1336H219.304C219.786 50.9846 221.089 53.2566 223.212 54.9476C225.335 56.5906 227.844 57.4126 230.739 57.4126C235.178 57.4126 238.724 55.8416 241.378 52.7006H248.845C248.845 52.7006 247.982 57.7796 241.378 62.1246C238.001 63.9606 234.454 64.8786 230.739 64.8786ZM219.304 41.6815H241.957C241.475 39.1205 240.196 36.9696 238.121 35.2296C236.095 33.4906 233.61 32.6206 230.667 32.6206C227.723 32.6206 225.214 33.5146 223.14 35.3026C221.065 37.0426 219.786 39.1685 219.304 41.6815Z" fill="#F7F6FF"/>
<path d="M310.573 64.8786C308.885 64.8786 307.244 64.6856 305.652 64.2996C304.108 63.9126 302.612 63.3086 301.165 62.4866C299.717 61.6166 298.535 60.3846 297.618 58.7896C296.702 57.1466 296.243 55.2376 296.243 53.0626C296.195 49.1486 297.546 46.1766 300.296 44.1466C303.046 42.0686 306.979 41.0296 312.093 41.0296H323.746V38.7096C323.746 36.5836 322.877 34.9886 321.14 33.9256C319.403 32.8136 317.16 32.2576 314.409 32.2576C309.15 32.2576 306.086 33.9976 305.218 37.4776L297.257 37.6226C297.353 33.8046 299.018 30.7835 302.25 28.5605C305.531 26.3375 309.536 25.2266 314.265 25.2266C319.041 25.2266 323.118 26.3866 326.496 28.7056C329.922 31.0256 331.635 34.0215 331.635 37.6945V64.2996H323.746V58.4996C322.636 60.0466 320.947 61.4965 318.679 62.8495C316.46 64.2025 313.758 64.8786 310.573 64.8786ZM311.225 57.9926C314.409 57.9926 317.28 56.9046 319.837 54.7306C322.443 52.5556 323.746 49.9946 323.746 47.0466H313.541C310.405 47.0466 308.064 47.6506 306.52 48.8586C305.025 50.0186 304.373 51.4925 304.566 53.2805C304.711 54.9235 305.435 56.1316 306.738 56.9046C308.04 57.6296 309.536 57.9926 311.225 57.9926Z" fill="#F7F6FF"/>
<path d="M337.68 64.301V14.209H346.003V64.301H337.68Z" fill="#F7F6FF"/>
<path fill-rule="evenodd" clip-rule="evenodd" d="M254.973 14.209H276.974C281.848 14.209 285.901 15.876 289.133 19.211C292.366 22.497 293.983 26.484 293.983 31.172C293.983 35.908 292.366 39.895 289.133 43.133C285.949 46.323 281.896 47.942 276.974 47.99L263.585 48.062V64.301H254.973V14.209ZM276.395 40.233L263.585 40.306V22.038L276.395 21.966C279.242 21.966 281.486 22.811 283.126 24.503C284.815 26.194 285.659 28.321 285.659 30.882C285.659 33.492 284.815 35.715 283.126 37.551C281.438 39.339 279.194 40.233 276.395 40.233Z" fill="#F7F6FF"/>
<path d="M33.708 0C31.368 0 29.123 0.930982 27.469 2.58798L1.477 28.618C0.491997 29.604 0 30.896 0 32.188C0 33.48 0.491997 34.773 1.477 35.759L18.51 52.817V22.618C18.51 20.364 20.32 18.537 22.571 18.537C32.078 18.537 55.221 18.537 58.378 18.537L76.888 0H33.708Z" fill="#F7F6FF"/>
<path d="M18.51 58.4636H54.303C56.554 58.4636 58.378 56.6366 58.378 54.3826V24.1836L75.411 41.2416C76.396 42.2276 76.888 43.5196 76.888 44.8116C76.888 46.1046 76.396 47.3966 75.412 48.3826L49.419 74.4126C47.765 76.0696 45.52 77.0006 43.18 77.0006H0L18.51 58.4636Z" fill="#F7F6FF"/>
</svg>
