<svg width="1202" height="326" viewBox="0 0 1202 326" fill="none" xmlns="http://www.w3.org/2000/svg">
<g clip-path="url(#clip0_2073_9025)">
<path d="M0.0390625 47.4402L144.489 0.490234V325.51C41.309 282.17 0.0390625 199.11 0.0390625 152.17V47.4402Z" fill="#0500FF"/>
<path d="M288.95 47.4402L144.5 0.490234V325.51C247.68 282.17 288.95 199.11 288.95 152.17V47.4402Z" fill="url(#paint0_linear_2073_9025)"/>
<path d="M542.619 77.1602H599.909V109.25C618.679 80.4102 640.279 77.1602 671.899 77.1602V133.87H657.499C619.609 133.87 601.469 151.7 601.469 187.02V247.3H542.619V77.1602Z" fill="white"/>
<path d="M863.05 247.29H804.21V231.07C791.36 245.98 773.85 252.46 752.26 252.46C711.26 252.46 688.08 228.15 688.08 183.44V77.1504H746.92V170.17C746.92 191.22 757.25 203.53 774.77 203.53C792.29 203.53 804.2 191.53 804.2 171.13V77.1504H863.04V247.29H863.05Z" fill="white"/>
<path d="M877.43 194.77H932.54C935.05 207.08 943.5 212.26 963.83 212.26C980.43 212.26 990.13 208.38 990.13 201.25C990.13 195.73 985.43 192.16 971.99 189.25L927.54 179.2C897.8 172.41 882.77 155.23 882.77 127.67C882.77 91.3603 909.37 72.5703 961.02 72.5703C1012.67 72.5703 1038.02 90.8803 1042.42 130.11H987.65C986.72 119.75 976.06 113.41 958.54 113.41C944.46 113.41 935.4 117.94 935.4 124.76C935.4 130.59 941.33 135.12 953.25 138.06L999.88 149.41C1030.55 156.85 1045.28 172.42 1045.28 197.69C1045.28 232.7 1014.91 253.44 963.29 253.44C911.67 253.44 877.52 231.08 877.52 194.77H877.46H877.43Z" fill="white"/>
<path d="M1201.96 130.07V77.1504H1056.72V130.1H1100.06V247.29H1158.6V130.07H1201.96Z" fill="white"/>
<path d="M526.24 130.07V77.1504H381.01V130.1H424.35V247.29H482.9V130.07H526.24Z" fill="white"/>
</g>
<defs>
<linearGradient id="paint0_linear_2073_9025" x1="250.58" y1="-22.2698" x2="141.46" y2="321.07" gradientUnits="userSpaceOnUse">
<stop offset="0.02" stop-color="#0000FF"/>
<stop offset="0.08" stop-color="#0094FF"/>
<stop offset="0.16" stop-color="#48FF91"/>
<stop offset="0.42" stop-color="#0094FF"/>
<stop offset="0.68" stop-color="#0038FF"/>
<stop offset="0.9" stop-color="#0500FF"/>
</linearGradient>
<clipPath id="clip0_2073_9025">
<rect width="1202" height="326" fill="white"/>
</clipPath>
</defs>
</svg>
