<svg width="790" height="197" viewBox="0 0 790 197" fill="none" xmlns="http://www.w3.org/2000/svg">
<path d="M65.7322 18.3305C63.2737 17.9513 63.1701 17.9068 64.327 17.73C66.5441 17.391 71.7791 17.853 75.3867 18.7059C83.8087 20.6964 91.4723 25.7954 99.6526 34.8512L101.826 37.257L104.935 36.7601C118.032 34.6673 131.357 36.3305 142.501 41.4493C145.567 42.8576 150.401 45.6608 151.004 46.3811C151.197 46.6108 151.55 48.0885 151.789 49.6655C152.617 55.1211 152.203 59.3029 150.525 62.4263C149.611 64.126 149.56 64.6646 150.174 66.1192C150.665 67.2799 152.031 68.1391 153.384 68.1372C156.154 68.1335 159.134 63.6822 160.516 57.4886L161.064 55.0284L162.151 56.2525C168.113 62.968 172.795 72.1265 173.599 78.6455L173.809 80.3451L172.807 78.8C171.082 76.1411 169.349 74.3311 167.131 72.8712C163.131 70.2398 158.902 69.3443 147.701 68.7574C137.585 68.2274 131.86 67.3683 126.183 65.5277C116.524 62.3967 111.655 58.2266 100.182 43.2596C95.0855 36.6118 91.9357 32.9337 88.8024 29.9716C81.6829 23.2413 74.6872 19.7115 65.7322 18.3305Z" fill="#F50DB4"/>
<path d="M153.286 33.1735C153.541 28.7188 154.148 25.7806 155.37 23.0973C155.853 22.0351 156.306 21.1658 156.376 21.1658C156.446 21.1658 156.236 21.9498 155.909 22.9078C155.021 25.512 154.875 29.0739 155.487 33.218C156.264 38.4762 156.705 39.2348 162.295 44.9148C164.916 47.5789 167.966 50.939 169.071 52.3816L171.081 55.0046L169.071 53.1301C166.613 50.8377 160.96 46.3669 159.711 45.7278C158.874 45.2992 158.749 45.3066 158.233 45.8178C157.757 46.2887 157.657 46.9964 157.591 50.342C157.488 55.5563 156.773 58.9031 155.048 62.2495C154.115 64.0595 153.968 63.6732 154.812 61.6302C155.443 60.1049 155.507 59.4343 155.502 54.3866C155.492 44.2445 154.281 41.8063 147.179 37.6294C145.38 36.5713 142.416 35.0453 140.592 34.2381C138.768 33.4309 137.319 32.7279 137.372 32.6753C137.573 32.4763 144.499 34.4863 147.287 35.5524C151.433 37.1383 152.118 37.3439 152.621 37.1526C152.959 37.0243 153.122 36.0469 153.286 33.1735Z" fill="#F50DB4"/>
<path d="M70.5076 50.5237C65.5167 43.692 62.4288 33.2174 63.0973 25.3872L63.304 22.9641L64.4401 23.1702C66.5734 23.5571 70.2519 24.9184 71.9743 25.9586C76.701 28.8128 78.7473 32.5706 80.8291 42.2201C81.439 45.0465 82.239 48.2449 82.6071 49.3277C83.1998 51.0707 85.4394 55.1419 87.2602 57.7859C88.5717 59.6902 87.7005 60.5925 84.8014 60.3323C80.3739 59.9349 74.3765 55.8196 70.5076 50.5237Z" fill="#F50DB4"/>
<path d="M147.233 101.369C123.909 92.0317 115.694 83.9271 115.694 70.2522C115.694 68.2398 115.764 66.5933 115.849 66.5933C115.934 66.5933 116.836 67.2574 117.854 68.0692C122.584 71.8409 127.88 73.4519 142.542 75.5786C151.17 76.8302 156.025 77.8411 160.504 79.3179C174.739 84.0121 183.547 93.5383 185.647 106.514C186.258 110.284 185.9 117.354 184.91 121.08C184.129 124.023 181.745 129.329 181.113 129.532C180.938 129.589 180.766 128.92 180.721 128.012C180.481 123.139 178.005 118.396 173.846 114.843C169.118 110.803 162.765 107.587 147.233 101.369Z" fill="#F50DB4"/>
<path d="M130.858 105.248C130.566 103.519 130.059 101.311 129.732 100.341L129.137 98.5779L130.242 99.8116C131.772 101.519 132.981 103.703 134.005 106.613C134.787 108.833 134.875 109.494 134.869 113.102C134.864 116.645 134.766 117.388 134.044 119.386C132.905 122.538 131.492 124.773 129.121 127.172C124.861 131.483 119.383 133.87 111.479 134.861C110.105 135.032 106.1 135.322 102.579 135.504C93.7065 135.963 87.8669 136.911 82.6197 138.743C81.8652 139.007 81.1916 139.167 81.1233 139.099C80.9109 138.888 84.4835 136.771 87.4344 135.358C91.5953 133.365 95.7372 132.277 105.017 130.741C109.602 129.982 114.336 129.061 115.538 128.694C126.891 125.233 132.726 116.302 130.858 105.248Z" fill="#F50DB4"/>
<path d="M141.55 124.127C138.451 117.504 137.74 111.109 139.438 105.145C139.619 104.508 139.911 103.986 140.087 103.986C140.263 103.986 140.994 104.379 141.712 104.859C143.14 105.815 146.004 107.425 153.634 111.561C163.155 116.723 168.584 120.719 172.276 125.286C175.509 129.285 177.51 133.839 178.473 139.393C179.018 142.539 178.698 150.108 177.886 153.276C175.326 163.265 169.377 171.111 160.891 175.689C159.647 176.36 158.531 176.91 158.41 176.913C158.289 176.915 158.743 175.77 159.417 174.368C162.272 168.434 162.597 162.663 160.438 156.239C159.117 152.305 156.422 147.506 150.982 139.394C144.657 129.963 143.106 127.453 141.55 124.127Z" fill="#F50DB4"/>
<path d="M53.944 159.865C62.5993 152.598 73.3686 147.436 83.1783 145.852C87.406 145.169 94.4487 145.44 98.3636 146.436C104.639 148.033 110.252 151.609 113.172 155.87C116.025 160.035 117.249 163.664 118.523 171.738C119.026 174.923 119.573 178.122 119.738 178.846C120.695 183.03 122.558 186.375 124.866 188.055C128.531 190.723 134.843 190.889 141.053 188.48C142.106 188.072 143.021 187.789 143.086 187.853C143.311 188.075 140.184 190.156 137.978 191.252C135.01 192.726 132.65 193.296 129.514 193.296C123.827 193.296 119.106 190.419 115.166 184.554C114.391 183.4 112.648 179.943 111.294 176.871C107.134 167.438 105.08 164.565 100.25 161.42C96.0472 158.683 90.6266 158.193 86.5488 160.181C81.1923 162.792 79.6978 169.598 83.5343 173.911C85.059 175.626 87.9025 177.104 90.2276 177.392C94.5774 177.93 98.3155 174.64 98.3155 170.273C98.3155 167.438 97.2195 165.82 94.4603 164.582C90.6919 162.891 86.6413 164.867 86.6606 168.387C86.6691 169.888 87.3264 170.831 88.8396 171.512C89.8104 171.948 89.8329 171.983 89.0413 171.819C85.5836 171.106 84.7736 166.962 87.5537 164.21C90.8915 160.907 97.7934 162.365 100.163 166.874C101.159 168.767 101.275 172.539 100.407 174.816C98.4638 179.914 92.7988 182.594 87.0519 181.136C83.1393 180.142 81.5461 179.067 76.8287 174.236C68.6316 165.84 65.4493 164.213 53.6317 162.379L51.3672 162.028L53.944 159.865Z" fill="#F50DB4"/>
<path fill-rule="evenodd" clip-rule="evenodd" d="M15.4817 9.60182C42.8565 42.6365 61.7109 56.2661 63.8062 59.1456C65.5361 61.5233 64.885 63.6609 61.9213 65.3361C60.2732 66.2676 56.8849 67.2113 55.1883 67.2113C53.2695 67.2113 52.6107 66.4754 52.6107 66.4754C51.4981 65.4262 50.8715 65.6097 45.1581 55.5261C37.226 43.2885 30.5879 33.1368 30.4068 32.9669C29.988 32.5738 29.9952 32.5871 44.3493 58.1232C46.6685 63.4455 44.8106 65.3992 44.8106 66.1572C44.8106 67.6993 44.3875 68.5099 42.4743 70.6317C39.2848 74.1695 37.859 78.1445 36.8298 86.3712C35.676 95.5933 32.4316 102.108 23.4403 113.257C18.1772 119.783 17.3159 120.98 15.9879 123.61C14.3151 126.923 13.8551 128.778 13.6687 132.961C13.4717 137.383 13.8554 140.24 15.2144 144.469C16.4041 148.171 17.646 150.615 20.8208 155.504C23.5605 159.724 25.1381 162.859 25.1381 164.086C25.1381 165.061 25.3255 165.063 29.571 164.11C39.7311 161.828 47.981 157.816 52.6209 152.9C55.4925 149.856 56.1667 148.176 56.1885 144.005C56.2029 141.278 56.1064 140.706 55.3648 139.137C54.1576 136.583 51.9599 134.459 47.1161 131.167C40.7693 126.853 38.0586 123.38 37.3098 118.604C36.6956 114.686 37.4081 111.921 40.9192 104.604C44.5533 97.0306 45.4539 93.8034 46.0631 86.1697C46.4566 81.2379 47.0014 79.2929 48.4266 77.7317C49.913 76.1037 51.251 75.5524 54.9295 75.0527C60.9265 74.2381 64.7451 72.6954 67.884 69.8196C70.6069 67.3248 71.7463 64.9208 71.9212 61.3021L72.0539 58.5591L70.5323 56.7952C65.0218 50.4069 11.7914 4.58008 11.4523 4.58008C11.3798 4.58008 13.1932 6.84002 15.4817 9.60182ZM28.2314 137.965C29.4773 135.771 28.8153 132.951 26.7313 131.573C24.7622 130.271 21.7032 130.884 21.7032 132.581C21.7032 133.098 21.9911 133.475 22.64 133.807C23.7326 134.366 23.8119 134.995 22.9523 136.28C22.0817 137.581 22.1519 138.725 23.1506 139.502C24.76 140.755 27.0382 140.066 28.2314 137.965Z" fill="#F50DB4"/>
<path fill-rule="evenodd" clip-rule="evenodd" d="M75.8386 76.4915C73.0232 77.3512 70.2865 80.3179 69.4393 83.4286C68.9226 85.3264 69.2158 88.6553 69.9899 89.6834C71.2405 91.3438 72.4499 91.7814 75.7246 91.7585C82.1359 91.714 87.7095 88.9801 88.3575 85.5622C88.8886 82.7605 86.4408 78.8778 83.069 77.1732C81.3291 76.294 77.6287 75.9451 75.8386 76.4915ZM83.3334 82.3186C84.3221 80.9218 83.8896 79.4122 82.2081 78.3911C79.0058 76.447 74.1633 78.0558 74.1633 81.0636C74.1633 82.5609 76.6885 84.1944 79.0033 84.1944C80.544 84.1944 82.6524 83.2809 83.3334 82.3186Z" fill="#F50DB4"/>
<path d="M717.612 185.575V85.9069H731.997V97.2095C735.961 90.7509 743.593 84.1455 756.364 84.1455C775.446 84.1455 789.244 99.2645 789.244 122.163C789.244 145.062 775.446 160.181 756.364 160.181C743.3 160.181 735.814 153.282 732.144 147.41V185.575H717.612ZM752.988 148.585C767.226 148.585 774.125 136.695 774.125 122.163C774.125 107.631 767.226 95.7416 752.988 95.7416C738.749 95.7416 731.557 107.925 731.557 122.163C731.557 136.401 738.749 148.585 752.988 148.585Z" fill="#F50DB4"/>
<path d="M663.384 160.181C650.32 160.181 638.577 152.254 638.577 138.75C638.577 125.539 647.825 119.521 663.531 116.438L673.512 114.383C681.292 112.769 684.961 111.154 684.961 105.136C684.961 99.1177 679.971 94.8609 671.164 94.8609C661.623 94.8609 655.458 100.732 654.87 110.42L639.898 109.099C640.926 93.5398 653.403 84.1455 671.31 84.1455C689.805 84.1455 699.64 93.0995 699.64 108.365V158.419H685.695V149.906H685.549C682.173 155.483 674.686 160.181 663.384 160.181ZM667.2 149.759C677.475 149.759 685.549 143.007 685.549 130.97V122.163C670.283 124.658 663.09 126.713 658.687 129.502C655.311 131.557 653.403 134.493 653.403 138.456C653.403 145.208 658.98 149.759 667.2 149.759Z" fill="#F50DB4"/>
<path d="M545.167 158.42L522.122 85.9082H537.534L553.387 140.659H553.534L569.974 85.9082H584.506L601.092 140.513H601.239L617.092 85.9082H632.211L609.166 158.42H593.9L577.46 102.495H577.313L560.58 158.42H545.167Z" fill="#F50DB4"/>
<path d="M486.555 160.181C468.5 160.181 455.289 151.814 453.675 134.493L468.06 132.732C468.794 144.181 476.867 149.465 486.848 149.465C496.683 149.465 503.288 145.062 503.288 138.016C503.288 130.97 496.536 129.502 487.436 127.447L476.72 124.952C464.977 122.163 456.904 116.585 456.904 105.429C456.904 93.0995 469.087 84.1455 486.261 84.1455C502.848 84.1455 514.151 92.5123 516.059 106.017L501.527 108.072C500.5 99.4112 494.188 94.8609 485.674 94.8609C477.014 94.8609 471.436 99.1177 471.436 104.696C471.436 109.98 474.665 111.888 483.766 113.943L494.481 116.438C509.747 119.961 517.82 124.952 517.82 136.548C517.82 151.08 504.316 160.181 486.555 160.181Z" fill="#F50DB4"/>
<path d="M426.615 158.421V85.9091H441.147V158.421H426.615ZM426.615 74.6066V57.4326H441.147V74.6066H426.615Z" fill="#F50DB4"/>
<path d="M345.372 158.419V85.9069H359.757V96.182H359.904C364.014 89.8702 372.087 84.1455 383.096 84.1455C399.243 84.1455 408.784 93.8334 408.784 111.448V158.419H394.252V117.759C394.252 104.696 391.316 96.3287 379.133 96.3287C366.95 96.3287 359.904 106.163 359.904 117.906V158.419H345.372Z" fill="#F50DB4"/>
<path d="M288.86 160.183C264.787 160.183 250.109 146.532 250.109 121.431V57.4326H265.375V120.551C265.375 136.844 273.007 147.412 288.86 147.412C306.034 147.412 312.346 136.844 312.346 120.551V57.4326H327.612V121.431C327.612 146.532 312.933 160.183 288.86 160.183Z" fill="#F50DB4"/>
</svg>
