<svg width="634" height="155" viewBox="0 0 634 155" fill="none" xmlns="http://www.w3.org/2000/svg">
<g clip-path="url(#clip0_2065_8918)">
<path d="M0.599609 41.5992C0.599609 27.0992 0.599612 19.7992 3.39961 14.2992C5.89961 9.39922 9.89961 5.49922 14.6996 2.99922C20.1996 0.199222 27.4996 0.199219 41.9996 0.199219H114.6C129.1 0.199219 136.4 0.199222 141.9 2.99922C146.8 5.49922 150.7 9.49922 153.2 14.2992C156 19.7992 156 27.0992 156 41.5992V113.599C156 128.099 156 135.399 153.2 140.899C150.7 145.799 146.7 149.699 141.9 152.199C136.4 154.999 129.1 154.999 114.6 154.999H41.9996C27.4996 154.999 20.1996 154.999 14.6996 152.199C9.79961 149.699 5.89961 145.699 3.39961 140.899C0.599612 135.399 0.599609 128.099 0.599609 113.599V41.5992Z" fill="white"/>
<path d="M34.3994 38.9004C31.6994 38.9004 30.6994 42.2004 32.8994 43.6004L88.7994 77.2004C90.1994 78.1004 92.0994 77.7004 92.9994 76.4004L117.599 44.2004C119.299 42.0004 117.599 38.9004 114.699 38.9004H34.3994Z" fill="#222222"/>
<path d="M122.301 116.299C125.001 116.299 126.001 112.999 123.801 111.599L67.8006 77.9991C66.4006 77.0991 64.6007 77.499 63.6007 78.799L39.0006 110.999C37.3006 113.199 39.1006 116.299 42.0006 116.299H122.301Z" fill="#222222"/>
<mask id="mask0_2065_8918" style="mask-type:luminance" maskUnits="userSpaceOnUse" x="207" y="38" width="427" height="79">
<path d="M633.101 38.8008H207.801V116.301H633.101V38.8008Z" fill="white"/>
</mask>
<g mask="url(#mask0_2065_8918)">
<path d="M207.801 113.1L244.001 53.2004H211.801V39.9004H268.301V41.9004L232.801 101.8H267.001V115.2H207.801V113.1Z" fill="white"/>
<path d="M287 39.9004H336.5V53.2004H304.1V70.8004H330V83.2004H304.1V101.9H338.2V115.2H287V39.9004Z" fill="white"/>
<path d="M358.1 39.9004H385.3C389.8 39.9004 393.8 40.4004 397.4 41.3004C401 42.2004 404.1 43.6004 406.6 45.5004C409.1 47.4004 411.1 49.8004 412.4 52.7004C413.8 55.6004 414.5 58.9004 414.5 62.8004V63.2004C414.5 66.1004 414.1 68.6004 413.3 70.8004C412.5 73.0004 411.4 74.9004 410 76.5004C408.6 78.1004 406.9 79.5004 405 80.6004C403.1 81.7004 401 82.6004 398.8 83.2004L418.9 115.2H400.6L382.4 86.1004H375V115.2H357.9V39.9004H358.1ZM384.9 74.5004C389.2 74.5004 392.4 73.6004 394.6 71.8004C396.8 70.0004 397.9 67.3004 397.9 63.7004V63.3004C397.9 59.4004 396.8 56.8004 394.5 55.3004C392.3 53.8004 389.1 53.0004 384.9 53.0004H375.2V74.6004H384.9V74.5004Z" fill="white"/>
<path d="M437.102 39.9004H454.402V115.2H437.102V39.9004Z" fill="white"/>
<path d="M511.402 102.7C514.602 102.7 517.502 102.1 520.002 100.9C522.602 99.7004 524.802 98.0004 526.702 95.8004C528.502 93.7004 529.802 91.1004 530.802 88.0004C531.802 84.9004 532.302 81.5004 532.302 77.7004V77.0004C532.302 73.4004 531.802 70.0004 530.802 67.0004C529.902 64.0004 528.502 61.4004 526.802 59.2004C525.002 57.0004 522.702 55.3004 520.102 54.1004C517.502 52.9004 514.502 52.3004 511.202 52.3004C507.902 52.3004 504.902 52.9004 502.302 54.1004C499.802 55.2004 497.602 56.8004 495.702 58.9004C493.902 61.1004 492.402 63.7004 491.502 66.8004C490.602 69.8004 490.102 73.2004 490.102 77.0004V77.8004C490.102 81.7004 490.602 85.1004 491.702 88.2004C492.802 91.2004 494.202 93.8004 496.202 95.9004C498.002 98.1004 500.302 99.8004 502.902 101C505.502 102.2 508.302 102.7 511.402 102.7ZM511.102 116.3C505.202 116.3 499.802 115.4 495.002 113.5C490.202 111.5 486.102 108.8 482.802 105.4C479.402 102 476.802 98.0004 474.902 93.3004C473.102 88.6004 472.102 83.5004 472.102 78.0004V77.2004C472.102 71.6004 473.102 66.4004 475.002 61.7004C477.002 57.0004 479.702 53.0004 483.302 49.6004C486.802 46.2004 490.902 43.6004 495.602 41.7004C500.302 39.8004 505.502 38.9004 511.202 38.9004C516.902 38.9004 522.202 39.8004 526.902 41.6004C531.702 43.4004 535.902 46.0004 539.302 49.3004C542.702 52.7004 545.402 56.7004 547.302 61.3004C549.302 65.9004 550.302 71.1004 550.302 76.8004V77.6004C550.302 83.2004 549.302 88.4004 547.402 93.2004C545.602 97.9004 542.902 102 539.502 105.4C536.102 108.8 532.002 111.5 527.202 113.5C522.402 115.4 517.102 116.3 511.102 116.3Z" fill="white"/>
<path d="M568.9 39.9004H588.9L617.8 89.5004V39.9004H633V115.2H615.8L584.2 61.6004V115.2H568.9V39.9004Z" fill="white"/>
</g>
</g>
<defs>
<clipPath id="clip0_2065_8918">
<rect width="633.101" height="155" fill="white"/>
</clipPath>
</defs>
</svg>
